<?xml version="1.0" encoding="UTF-8"?>
<!DOCTYPE svg PUBLIC "-//W3C//DTD SVG 1.1//EN" "http://www.w3.org/Graphics/SVG/1.1/DTD/svg11.dtd">
<svg version="1.1" xmlns="http://www.w3.org/2000/svg" xmlns:xlink="http://www.w3.org/1999/xlink" width="100" height="100"  xml:space="preserve" id="identity">
    <!-- Generated by PaintCode (www.paintcodeapp.com) -->
    <g id="identity-group" transform="translate(2, 2) scale(0.96, 0.96)" >
        <path id="identity-bezier" stroke="none" fill="rgb(255, 168, 0)" d="M 3.67,2.22 L 5.11,2.22 5.11,5.11 2.22,5.11 2.22,3.67 2.22,3.67 C 2.22,2.87 2.87,2.22 3.67,2.22 Z M 5.11,2.22 L 8,2.22 8,5.11 5.11,5.11 5.11,2.22 Z M 8,2.22 L 10.89,2.22 10.89,5.11 8,5.11 8,2.22 Z M 10.89,2.22 L 13.78,2.22 13.78,5.11 10.89,5.11 10.89,2.22 Z M 13.78,2.22 L 16.67,2.22 16.67,5.11 13.78,5.11 13.78,2.22 Z M 16.67,2.22 L 19.56,2.22 19.56,5.11 16.67,5.11 16.67,2.22 Z M 19.56,2.22 L 21,2.22 21,2.22 C 21.8,2.22 22.44,2.87 22.44,3.67 L 22.44,5.11 19.56,5.11 19.56,2.22 Z M 32.56,2.22 L 32.56,2.22 32.56,2.22 C 33.35,2.22 34,2.87 34,3.67 L 34,3.67 34,3.67 C 34,4.46 33.35,5.11 32.56,5.11 L 32.56,5.11 32.56,5.11 C 31.76,5.11 31.11,4.46 31.11,3.67 L 31.11,3.67 31.11,3.67 C 31.11,2.87 31.76,2.22 32.56,2.22 Z M 41.22,2.22 L 41.22,2.22 41.22,2.22 C 42.02,2.22 42.67,2.87 42.67,3.67 L 42.67,5.11 39.78,5.11 39.78,3.67 39.78,3.67 C 39.78,2.87 40.42,2.22 41.22,2.22 Z M 47,2.22 L 47,2.22 47,2.22 C 47.8,2.22 48.44,2.87 48.44,3.67 L 48.44,5.11 45.56,5.11 45.56,3.67 45.56,3.67 C 45.56,2.87 46.2,2.22 47,2.22 Z M 48.44,3.67 L 48.44,5.11 49.89,5.11 49.89,5.11 C 49.09,5.11 48.44,4.46 48.44,3.67 Z M 52.78,2.22 L 52.78,2.22 52.78,2.22 C 53.58,2.22 54.22,2.87 54.22,3.67 L 54.22,3.67 54.22,3.67 C 54.22,4.46 53.58,5.11 52.78,5.11 L 52.78,5.11 52.78,5.11 C 51.98,5.11 51.33,4.46 51.33,3.67 L 51.33,3.67 51.33,3.67 C 51.33,2.87 51.98,2.22 52.78,2.22 Z M 58.56,2.22 L 60,2.22 60,5.11 58.56,5.11 58.56,5.11 C 57.76,5.11 57.11,4.46 57.11,3.67 L 57.11,3.67 57.11,3.67 C 57.11,2.87 57.76,2.22 58.56,2.22 Z M 60,2.22 L 62.89,2.22 62.89,5.11 60,5.11 60,2.22 Z M 62.89,2.22 L 64.33,2.22 64.33,2.22 C 65.13,2.22 65.78,2.87 65.78,3.67 L 65.78,5.11 62.89,5.11 62.89,2.22 Z M 65.78,3.67 L 65.78,5.11 67.22,5.11 67.22,5.11 C 66.42,5.11 65.78,4.46 65.78,3.67 Z M 70.11,2.22 L 71.56,2.22 71.56,5.11 70.11,5.11 70.11,5.11 C 69.31,5.11 68.67,4.46 68.67,3.67 L 68.67,3.67 68.67,3.67 C 68.67,2.87 69.31,2.22 70.11,2.22 Z M 71.56,2.22 L 73,2.22 73,2.22 C 73.8,2.22 74.44,2.87 74.44,3.67 L 74.44,5.11 71.56,5.11 71.56,2.22 Z M 78.78,2.22 L 80.22,2.22 80.22,5.11 77.33,5.11 77.33,3.67 77.33,3.67 C 77.33,2.87 77.98,2.22 78.78,2.22 Z M 80.22,2.22 L 83.11,2.22 83.11,5.11 80.22,5.11 80.22,2.22 Z M 83.11,2.22 L 86,2.22 86,5.11 83.11,5.11 83.11,2.22 Z M 86,2.22 L 88.89,2.22 88.89,5.11 86,5.11 86,2.22 Z M 88.89,2.22 L 91.78,2.22 91.78,5.11 88.89,5.11 88.89,2.22 Z M 91.78,2.22 L 94.67,2.22 94.67,5.11 91.78,5.11 91.78,2.22 Z M 94.67,2.22 L 96.11,2.22 96.11,2.22 C 96.91,2.22 97.56,2.87 97.56,3.67 L 97.56,5.11 94.67,5.11 94.67,2.22 Z M 2.22,5.11 L 5.11,5.11 5.11,8 2.22,8 2.22,5.11 Z M 6.56,5.11 L 5.11,5.11 5.11,6.56 5.11,6.56 C 5.11,5.76 5.76,5.11 6.56,5.11 Z M 19.56,6.56 L 19.56,5.11 18.11,5.11 18.11,5.11 C 18.91,5.11 19.56,5.76 19.56,6.56 Z M 19.56,5.11 L 22.44,5.11 22.44,8 19.56,8 19.56,5.11 Z M 26.78,5.11 L 28.22,5.11 28.22,8 26.78,8 26.78,8 C 25.98,8 25.33,7.35 25.33,6.56 L 25.33,6.56 25.33,6.56 C 25.33,5.76 25.98,5.11 26.78,5.11 Z M 28.22,5.11 L 29.67,5.11 29.67,5.11 C 30.46,5.11 31.11,5.76 31.11,6.56 L 31.11,6.56 31.11,6.56 C 31.11,7.35 30.46,8 29.67,8 L 28.22,8 28.22,5.11 Z M 35.44,5.11 L 35.44,5.11 35.44,5.11 C 36.24,5.11 36.89,5.76 36.89,6.56 L 36.89,6.56 36.89,6.56 C 36.89,7.35 36.24,8 35.44,8 L 35.44,8 35.44,8 C 34.65,8 34,7.35 34,6.56 L 34,6.56 34,6.56 C 34,5.76 34.65,5.11 35.44,5.11 Z M 39.78,5.11 L 42.67,5.11 42.67,6.56 42.67,6.56 C 42.67,7.35 42.02,8 41.22,8 L 41.22,8 41.22,8 C 40.42,8 39.78,7.35 39.78,6.56 L 39.78,5.11 Z M 45.56,5.11 L 48.44,5.11 48.44,8 45.56,8 45.56,5.11 Z M 48.44,5.11 L 49.89,5.11 49.89,5.11 C 50.69,5.11 51.33,5.76 51.33,6.56 L 51.33,6.56 51.33,6.56 C 51.33,7.35 50.69,8 49.89,8 L 48.44,8 48.44,5.11 Z M 60,6.56 L 60,5.11 58.56,5.11 58.56,5.11 C 59.35,5.11 60,5.76 60,6.56 Z M 60,5.11 L 62.89,5.11 62.89,8 61.44,8 61.44,8 C 60.65,8 60,7.35 60,6.56 L 60,5.11 Z M 62.89,5.11 L 65.78,5.11 65.78,8 62.89,8 62.89,5.11 Z M 65.78,5.11 L 67.22,5.11 67.22,5.11 C 68.02,5.11 68.67,5.76 68.67,6.56 L 68.67,8 65.78,8 65.78,5.11 Z M 71.56,6.56 L 71.56,5.11 70.11,5.11 70.11,5.11 C 70.91,5.11 71.56,5.76 71.56,6.56 Z M 71.56,5.11 L 74.44,5.11 74.44,6.56 74.44,6.56 C 74.44,7.35 73.8,8 73,8 L 73,8 73,8 C 72.2,8 71.56,7.35 71.56,6.56 L 71.56,5.11 Z M 77.33,5.11 L 80.22,5.11 80.22,8 77.33,8 77.33,5.11 Z M 81.67,5.11 L 80.22,5.11 80.22,6.56 80.22,6.56 C 80.22,5.76 80.87,5.11 81.67,5.11 Z M 94.67,6.56 L 94.67,5.11 93.22,5.11 93.22,5.11 C 94.02,5.11 94.67,5.76 94.67,6.56 Z M 94.67,5.11 L 97.56,5.11 97.56,8 94.67,8 94.67,5.11 Z M 2.22,8 L 5.11,8 5.11,10.89 2.22,10.89 2.22,8 Z M 9.44,8 L 10.89,8 10.89,10.89 8,10.89 8,9.44 8,9.44 C 8,8.65 8.65,8 9.44,8 Z M 10.89,8 L 13.78,8 13.78,10.89 10.89,10.89 10.89,8 Z M 13.78,8 L 15.22,8 15.22,8 C 16.02,8 16.67,8.65 16.67,9.44 L 16.67,10.89 13.78,10.89 13.78,8 Z M 19.56,8 L 22.44,8 22.44,10.89 19.56,10.89 19.56,8 Z M 32.56,8 L 32.56,8 32.56,8 C 33.35,8 34,8.65 34,9.44 L 34,9.44 34,9.44 C 34,10.24 33.35,10.89 32.56,10.89 L 32.56,10.89 32.56,10.89 C 31.76,10.89 31.11,10.24 31.11,9.44 L 31.11,9.44 31.11,9.44 C 31.11,8.65 31.76,8 32.56,8 Z M 45.56,8 L 48.44,8 48.44,9.44 48.44,9.44 C 48.44,10.24 47.8,10.89 47,10.89 L 47,10.89 47,10.89 C 46.2,10.89 45.56,10.24 45.56,9.44 L 45.56,8 Z M 49.89,8 L 48.44,8 48.44,9.44 48.44,9.44 C 48.44,8.65 49.09,8 49.89,8 Z M 52.78,10.89 L 54.22,10.89 54.22,9.44 54.22,9.44 C 54.22,10.24 53.58,10.89 52.78,10.89 Z M 55.67,8 L 55.67,8 55.67,8 C 56.46,8 57.11,8.65 57.11,9.44 L 57.11,10.89 54.22,10.89 54.22,9.44 54.22,9.44 C 54.22,8.65 54.87,8 55.67,8 Z M 62.89,9.44 L 62.89,8 61.44,8 61.44,8 C 62.24,8 62.89,8.65 62.89,9.44 Z M 62.89,8 L 65.78,8 65.78,10.89 64.33,10.89 64.33,10.89 C 63.54,10.89 62.89,10.24 62.89,9.44 L 62.89,8 Z M 65.78,8 L 68.67,8 68.67,9.44 68.67,9.44 C 68.67,10.24 68.02,10.89 67.22,10.89 L 65.78,10.89 65.78,8 Z M 77.33,8 L 80.22,8 80.22,10.89 77.33,10.89 77.33,8 Z M 84.56,8 L 86,8 86,10.89 83.11,10.89 83.11,9.44 83.11,9.44 C 83.11,8.65 83.76,8 84.56,8 Z M 86,8 L 88.89,8 88.89,10.89 86,10.89 86,8 Z M 88.89,8 L 90.33,8 90.33,8 C 91.13,8 91.78,8.65 91.78,9.44 L 91.78,10.89 88.89,10.89 88.89,8 Z M 94.67,8 L 97.56,8 97.56,10.89 94.67,10.89 94.67,8 Z M 2.22,10.89 L 5.11,10.89 5.11,13.78 2.22,13.78 2.22,10.89 Z M 8,10.89 L 10.89,10.89 10.89,13.78 8,13.78 8,10.89 Z M 10.89,10.89 L 13.78,10.89 13.78,13.78 10.89,13.78 10.89,10.89 Z M 13.78,10.89 L 16.67,10.89 16.67,13.78 13.78,13.78 13.78,10.89 Z M 19.56,10.89 L 22.44,10.89 22.44,13.78 19.56,13.78 19.56,10.89 Z M 35.44,10.89 L 35.44,10.89 35.44,10.89 C 36.24,10.89 36.89,11.54 36.89,12.33 L 36.89,12.33 36.89,12.33 C 36.89,13.13 36.24,13.78 35.44,13.78 L 35.44,13.78 35.44,13.78 C 34.65,13.78 34,13.13 34,12.33 L 34,12.33 34,12.33 C 34,11.54 34.65,10.89 35.44,10.89 Z M 44.11,10.89 L 44.11,10.89 44.11,10.89 C 44.91,10.89 45.56,11.54 45.56,12.33 L 45.56,12.33 45.56,12.33 C 45.56,13.13 44.91,13.78 44.11,13.78 L 44.11,13.78 44.11,13.78 C 43.31,13.78 42.67,13.13 42.67,12.33 L 42.67,12.33 42.67,12.33 C 42.67,11.54 43.31,10.89 44.11,10.89 Z M 52.78,10.89 L 54.22,10.89 54.22,13.78 52.78,13.78 52.78,13.78 C 51.98,13.78 51.33,13.13 51.33,12.33 L 51.33,12.33 51.33,12.33 C 51.33,11.54 51.98,10.89 52.78,10.89 Z M 54.22,10.89 L 57.11,10.89 57.11,13.78 54.22,13.78 54.22,10.89 Z M 61.44,10.89 L 61.44,10.89 61.44,10.89 C 62.24,10.89 62.89,11.54 62.89,12.33 L 62.89,12.33 62.89,12.33 C 62.89,13.13 62.24,13.78 61.44,13.78 L 61.44,13.78 61.44,13.78 C 60.65,13.78 60,13.13 60,12.33 L 60,12.33 60,12.33 C 60,11.54 60.65,10.89 61.44,10.89 Z M 77.33,10.89 L 80.22,10.89 80.22,13.78 77.33,13.78 77.33,10.89 Z M 83.11,10.89 L 86,10.89 86,13.78 83.11,13.78 83.11,10.89 Z M 86,10.89 L 88.89,10.89 88.89,13.78 86,13.78 86,10.89 Z M 88.89,10.89 L 91.78,10.89 91.78,13.78 88.89,13.78 88.89,10.89 Z M 94.67,10.89 L 97.56,10.89 97.56,13.78 94.67,13.78 94.67,10.89 Z M 2.22,13.78 L 5.11,13.78 5.11,16.67 2.22,16.67 2.22,13.78 Z M 8,13.78 L 10.89,13.78 10.89,16.67 9.44,16.67 9.44,16.67 C 8.65,16.67 8,16.02 8,15.22 L 8,13.78 Z M 10.89,13.78 L 13.78,13.78 13.78,16.67 10.89,16.67 10.89,13.78 Z M 13.78,13.78 L 16.67,13.78 16.67,15.22 16.67,15.22 C 16.67,16.02 16.02,16.67 15.22,16.67 L 13.78,16.67 13.78,13.78 Z M 19.56,13.78 L 22.44,13.78 22.44,16.67 19.56,16.67 19.56,13.78 Z M 29.67,13.78 L 29.67,13.78 29.67,13.78 C 30.46,13.78 31.11,14.42 31.11,15.22 L 31.11,15.22 31.11,15.22 C 31.11,16.02 30.46,16.67 29.67,16.67 L 29.67,16.67 29.67,16.67 C 28.87,16.67 28.22,16.02 28.22,15.22 L 28.22,15.22 28.22,15.22 C 28.22,14.42 28.87,13.78 29.67,13.78 Z M 41.22,13.78 L 41.22,13.78 41.22,13.78 C 42.02,13.78 42.67,14.42 42.67,15.22 L 42.67,15.22 42.67,15.22 C 42.67,16.02 42.02,16.67 41.22,16.67 L 41.22,16.67 41.22,16.67 C 40.42,16.67 39.78,16.02 39.78,15.22 L 39.78,15.22 39.78,15.22 C 39.78,14.42 40.42,13.78 41.22,13.78 Z M 54.22,15.22 L 54.22,13.78 52.78,13.78 52.78,13.78 C 53.58,13.78 54.22,14.42 54.22,15.22 Z M 52.78,16.67 L 54.22,16.67 54.22,15.22 54.22,15.22 C 54.22,16.02 53.58,16.67 52.78,16.67 Z M 54.22,13.78 L 57.11,13.78 57.11,16.67 54.22,16.67 54.22,13.78 Z M 64.33,13.78 L 64.33,13.78 64.33,13.78 C 65.13,13.78 65.78,14.42 65.78,15.22 L 65.78,16.67 62.89,16.67 62.89,15.22 62.89,15.22 C 62.89,14.42 63.54,13.78 64.33,13.78 Z M 65.78,15.22 L 65.78,16.67 67.22,16.67 67.22,16.67 C 66.42,16.67 65.78,16.02 65.78,15.22 Z M 77.33,13.78 L 80.22,13.78 80.22,16.67 77.33,16.67 77.33,13.78 Z M 83.11,13.78 L 86,13.78 86,16.67 84.56,16.67 84.56,16.67 C 83.76,16.67 83.11,16.02 83.11,15.22 L 83.11,13.78 Z M 86,13.78 L 88.89,13.78 88.89,16.67 86,16.67 86,13.78 Z M 88.89,13.78 L 91.78,13.78 91.78,15.22 91.78,15.22 C 91.78,16.02 91.13,16.67 90.33,16.67 L 88.89,16.67 88.89,13.78 Z M 94.67,13.78 L 97.56,13.78 97.56,16.67 94.67,16.67 94.67,13.78 Z M 2.22,16.67 L 5.11,16.67 5.11,19.56 2.22,19.56 2.22,16.67 Z M 5.11,18.11 L 5.11,19.56 6.56,19.56 6.56,19.56 C 5.76,19.56 5.11,18.91 5.11,18.11 Z M 18.11,19.56 L 19.56,19.56 19.56,18.11 19.56,18.11 C 19.56,18.91 18.91,19.56 18.11,19.56 Z M 19.56,16.67 L 22.44,16.67 22.44,19.56 19.56,19.56 19.56,16.67 Z M 26.78,16.67 L 26.78,16.67 26.78,16.67 C 27.58,16.67 28.22,17.31 28.22,18.11 L 28.22,19.56 25.33,19.56 25.33,18.11 25.33,18.11 C 25.33,17.31 25.98,16.67 26.78,16.67 Z M 38.33,16.67 L 38.33,16.67 38.33,16.67 C 39.13,16.67 39.78,17.31 39.78,18.11 L 39.78,19.56 36.89,19.56 36.89,18.11 36.89,18.11 C 36.89,17.31 37.54,16.67 38.33,16.67 Z M 47,16.67 L 47,16.67 47,16.67 C 47.8,16.67 48.44,17.31 48.44,18.11 L 48.44,18.11 48.44,18.11 C 48.44,18.91 47.8,19.56 47,19.56 L 47,19.56 47,19.56 C 46.2,19.56 45.56,18.91 45.56,18.11 L 45.56,18.11 45.56,18.11 C 45.56,17.31 46.2,16.67 47,16.67 Z M 52.78,16.67 L 54.22,16.67 54.22,19.56 52.78,19.56 52.78,19.56 C 51.98,19.56 51.33,18.91 51.33,18.11 L 51.33,18.11 51.33,18.11 C 51.33,17.31 51.98,16.67 52.78,16.67 Z M 54.22,16.67 L 57.11,16.67 57.11,19.56 54.22,19.56 54.22,16.67 Z M 62.89,16.67 L 65.78,16.67 65.78,19.56 64.33,19.56 64.33,19.56 C 63.54,19.56 62.89,18.91 62.89,18.11 L 62.89,16.67 Z M 65.78,16.67 L 68.67,16.67 68.67,19.56 65.78,19.56 65.78,16.67 Z M 68.67,16.67 L 71.56,16.67 71.56,19.56 68.67,19.56 68.67,16.67 Z M 71.56,16.67 L 73,16.67 73,16.67 C 73.8,16.67 74.44,17.31 74.44,18.11 L 74.44,19.56 71.56,19.56 71.56,16.67 Z M 77.33,16.67 L 80.22,16.67 80.22,19.56 77.33,19.56 77.33,16.67 Z M 80.22,18.11 L 80.22,19.56 81.67,19.56 81.67,19.56 C 80.87,19.56 80.22,18.91 80.22,18.11 Z M 93.22,19.56 L 94.67,19.56 94.67,18.11 94.67,18.11 C 94.67,18.91 94.02,19.56 93.22,19.56 Z M 94.67,16.67 L 97.56,16.67 97.56,19.56 94.67,19.56 94.67,16.67 Z M 2.22,19.56 L 5.11,19.56 5.11,22.44 3.67,22.44 3.67,22.44 C 2.87,22.44 2.22,21.8 2.22,21 L 2.22,19.56 Z M 5.11,19.56 L 8,19.56 8,22.44 5.11,22.44 5.11,19.56 Z M 8,19.56 L 10.89,19.56 10.89,22.44 8,22.44 8,19.56 Z M 10.89,19.56 L 13.78,19.56 13.78,22.44 10.89,22.44 10.89,19.56 Z M 13.78,19.56 L 16.67,19.56 16.67,22.44 13.78,22.44 13.78,19.56 Z M 16.67,19.56 L 19.56,19.56 19.56,22.44 16.67,22.44 16.67,19.56 Z M 19.56,19.56 L 22.44,19.56 22.44,21 22.44,21 C 22.44,21.8 21.8,22.44 21,22.44 L 19.56,22.44 19.56,19.56 Z M 25.33,19.56 L 28.22,19.56 28.22,22.44 25.33,22.44 25.33,19.56 Z M 28.22,21 L 28.22,22.44 29.67,22.44 29.67,22.44 C 28.87,22.44 28.22,21.8 28.22,21 Z M 32.56,19.56 L 32.56,19.56 32.56,19.56 C 33.35,19.56 34,20.2 34,21 L 34,21 34,21 C 34,21.8 33.35,22.44 32.56,22.44 L 32.56,22.44 32.56,22.44 C 31.76,22.44 31.11,21.8 31.11,21 L 31.11,21 31.11,21 C 31.11,20.2 31.76,19.56 32.56,19.56 Z M 36.89,19.56 L 39.78,19.56 39.78,21 39.78,21 C 39.78,21.8 39.13,22.44 38.33,22.44 L 38.33,22.44 38.33,22.44 C 37.54,22.44 36.89,21.8 36.89,21 L 36.89,19.56 Z M 41.22,22.44 L 42.67,22.44 42.67,21 42.67,21 C 42.67,21.8 42.02,22.44 41.22,22.44 Z M 44.11,19.56 L 44.11,19.56 44.11,19.56 C 44.91,19.56 45.56,20.2 45.56,21 L 45.56,22.44 42.67,22.44 42.67,21 42.67,21 C 42.67,20.2 43.31,19.56 44.11,19.56 Z M 49.89,19.56 L 49.89,19.56 49.89,19.56 C 50.69,19.56 51.33,20.2 51.33,21 L 51.33,22.44 48.44,22.44 48.44,21 48.44,21 C 48.44,20.2 49.09,19.56 49.89,19.56 Z M 54.22,21 L 54.22,19.56 52.78,19.56 52.78,19.56 C 53.58,19.56 54.22,20.2 54.22,21 Z M 52.78,22.44 L 54.22,22.44 54.22,21 54.22,21 C 54.22,21.8 53.58,22.44 52.78,22.44 Z M 51.33,21 L 51.33,22.44 52.78,22.44 52.78,22.44 C 51.98,22.44 51.33,21.8 51.33,21 Z M 54.22,19.56 L 57.11,19.56 57.11,22.44 54.22,22.44 54.22,19.56 Z M 58.56,22.44 L 60,22.44 60,21 60,21 C 60,21.8 59.35,22.44 58.56,22.44 Z M 57.11,21 L 57.11,22.44 58.56,22.44 58.56,22.44 C 57.76,22.44 57.11,21.8 57.11,21 Z M 61.44,19.56 L 61.44,19.56 61.44,19.56 C 62.24,19.56 62.89,20.2 62.89,21 L 62.89,22.44 60,22.44 60,21 60,21 C 60,20.2 60.65,19.56 61.44,19.56 Z M 65.78,21 L 65.78,19.56 64.33,19.56 64.33,19.56 C 65.13,19.56 65.78,20.2 65.78,21 Z M 62.89,21 L 62.89,22.44 64.33,22.44 64.33,22.44 C 63.54,22.44 62.89,21.8 62.89,21 Z M 65.78,19.56 L 68.67,19.56 68.67,21 68.67,21 C 68.67,21.8 68.02,22.44 67.22,22.44 L 67.22,22.44 67.22,22.44 C 66.42,22.44 65.78,21.8 65.78,21 L 65.78,19.56 Z M 70.11,19.56 L 68.67,19.56 68.67,21 68.67,21 C 68.67,20.2 69.31,19.56 70.11,19.56 Z M 71.56,21 L 71.56,19.56 70.11,19.56 70.11,19.56 C 70.91,19.56 71.56,20.2 71.56,21 Z M 71.56,19.56 L 74.44,19.56 74.44,22.44 71.56,22.44 71.56,19.56 Z M 77.33,19.56 L 80.22,19.56 80.22,22.44 78.78,22.44 78.78,22.44 C 77.98,22.44 77.33,21.8 77.33,21 L 77.33,19.56 Z M 80.22,19.56 L 83.11,19.56 83.11,22.44 80.22,22.44 80.22,19.56 Z M 83.11,19.56 L 86,19.56 86,22.44 83.11,22.44 83.11,19.56 Z M 86,19.56 L 88.89,19.56 88.89,22.44 86,22.44 86,19.56 Z M 88.89,19.56 L 91.78,19.56 91.78,22.44 88.89,22.44 88.89,19.56 Z M 91.78,19.56 L 94.67,19.56 94.67,22.44 91.78,22.44 91.78,19.56 Z M 94.67,19.56 L 97.56,19.56 97.56,21 97.56,21 C 97.56,21.8 96.91,22.44 96.11,22.44 L 94.67,22.44 94.67,19.56 Z M 25.33,22.44 L 28.22,22.44 28.22,25.33 26.78,25.33 26.78,25.33 C 25.98,25.33 25.33,24.69 25.33,23.89 L 25.33,22.44 Z M 28.22,22.44 L 29.67,22.44 29.67,22.44 C 30.46,22.44 31.11,23.09 31.11,23.89 L 31.11,25.33 28.22,25.33 28.22,22.44 Z M 38.33,25.33 L 39.78,25.33 39.78,23.89 39.78,23.89 C 39.78,24.69 39.13,25.33 38.33,25.33 Z M 41.22,22.44 L 42.67,22.44 42.67,25.33 39.78,25.33 39.78,23.89 39.78,23.89 C 39.78,23.09 40.42,22.44 41.22,22.44 Z M 42.67,22.44 L 45.56,22.44 45.56,23.89 45.56,23.89 C 45.56,24.69 44.91,25.33 44.11,25.33 L 42.67,25.33 42.67,22.44 Z M 48.44,22.44 L 51.33,22.44 51.33,25.33 49.89,25.33 49.89,25.33 C 49.09,25.33 48.44,24.69 48.44,23.89 L 48.44,22.44 Z M 51.33,22.44 L 54.22,22.44 54.22,25.33 51.33,25.33 51.33,22.44 Z M 54.22,22.44 L 57.11,22.44 57.11,25.33 54.22,25.33 54.22,22.44 Z M 57.11,22.44 L 60,22.44 60,25.33 57.11,25.33 57.11,22.44 Z M 60,22.44 L 62.89,22.44 62.89,25.33 60,25.33 60,22.44 Z M 62.89,22.44 L 64.33,22.44 64.33,22.44 C 65.13,22.44 65.78,23.09 65.78,23.89 L 65.78,25.33 62.89,25.33 62.89,22.44 Z M 70.11,25.33 L 71.56,25.33 71.56,23.89 71.56,23.89 C 71.56,24.69 70.91,25.33 70.11,25.33 Z M 71.56,22.44 L 74.44,22.44 74.44,25.33 71.56,25.33 71.56,22.44 Z M 12.33,28.22 L 13.78,28.22 13.78,26.78 13.78,26.78 C 13.78,27.58 13.13,28.22 12.33,28.22 Z M 15.22,25.33 L 16.67,25.33 16.67,28.22 13.78,28.22 13.78,26.78 13.78,26.78 C 13.78,25.98 14.42,25.33 15.22,25.33 Z M 16.67,25.33 L 19.56,25.33 19.56,28.22 16.67,28.22 16.67,25.33 Z M 19.56,25.33 L 22.44,25.33 22.44,28.22 19.56,28.22 19.56,25.33 Z M 22.44,25.33 L 23.89,25.33 23.89,25.33 C 24.69,25.33 25.33,25.98 25.33,26.78 L 25.33,28.22 22.44,28.22 22.44,25.33 Z M 28.22,26.78 L 28.22,25.33 26.78,25.33 26.78,25.33 C 27.58,25.33 28.22,25.98 28.22,26.78 Z M 26.78,28.22 L 28.22,28.22 28.22,26.78 28.22,26.78 C 28.22,27.58 27.58,28.22 26.78,28.22 Z M 25.33,26.78 L 25.33,28.22 26.78,28.22 26.78,28.22 C 25.98,28.22 25.33,27.58 25.33,26.78 Z M 28.22,25.33 L 31.11,25.33 31.11,28.22 28.22,28.22 28.22,25.33 Z M 32.56,28.22 L 34,28.22 34,26.78 34,26.78 C 34,27.58 33.35,28.22 32.56,28.22 Z M 31.11,26.78 L 31.11,28.22 32.56,28.22 32.56,28.22 C 31.76,28.22 31.11,27.58 31.11,26.78 Z M 35.44,25.33 L 36.89,25.33 36.89,28.22 34,28.22 34,26.78 34,26.78 C 34,25.98 34.65,25.33 35.44,25.33 Z M 36.89,25.33 L 39.78,25.33 39.78,28.22 36.89,28.22 36.89,25.33 Z M 39.78,25.33 L 42.67,25.33 42.67,26.78 42.67,26.78 C 42.67,27.58 42.02,28.22 41.22,28.22 L 39.78,28.22 39.78,25.33 Z M 44.11,25.33 L 42.67,25.33 42.67,26.78 42.67,26.78 C 42.67,25.98 43.31,25.33 44.11,25.33 Z M 54.22,26.78 L 54.22,25.33 52.78,25.33 52.78,25.33 C 53.58,25.33 54.22,25.98 54.22,26.78 Z M 54.22,25.33 L 57.11,25.33 57.11,28.22 55.67,28.22 55.67,28.22 C 54.87,28.22 54.22,27.58 54.22,26.78 L 54.22,25.33 Z M 57.11,25.33 L 60,25.33 60,28.22 57.11,28.22 57.11,25.33 Z M 61.44,25.33 L 60,25.33 60,26.78 60,26.78 C 60,25.98 60.65,25.33 61.44,25.33 Z M 62.89,26.78 L 62.89,25.33 61.44,25.33 61.44,25.33 C 62.24,25.33 62.89,25.98 62.89,26.78 Z M 62.89,25.33 L 65.78,25.33 65.78,26.78 65.78,26.78 C 65.78,27.58 65.13,28.22 64.33,28.22 L 64.33,28.22 64.33,28.22 C 63.54,28.22 62.89,27.58 62.89,26.78 L 62.89,25.33 Z M 70.11,25.33 L 71.56,25.33 71.56,28.22 68.67,28.22 68.67,26.78 68.67,26.78 C 68.67,25.98 69.31,25.33 70.11,25.33 Z M 71.56,25.33 L 74.44,25.33 74.44,26.78 74.44,26.78 C 74.44,27.58 73.8,28.22 73,28.22 L 71.56,28.22 71.56,25.33 Z M 78.78,25.33 L 80.22,25.33 80.22,28.22 78.78,28.22 78.78,28.22 C 77.98,28.22 77.33,27.58 77.33,26.78 L 77.33,26.78 77.33,26.78 C 77.33,25.98 77.98,25.33 78.78,25.33 Z M 80.22,25.33 L 81.67,25.33 81.67,25.33 C 82.46,25.33 83.11,25.98 83.11,26.78 L 83.11,28.22 80.22,28.22 80.22,25.33 Z M 93.22,25.33 L 93.22,25.33 93.22,25.33 C 94.02,25.33 94.67,25.98 94.67,26.78 L 94.67,28.22 91.78,28.22 91.78,26.78 91.78,26.78 C 91.78,25.98 92.42,25.33 93.22,25.33 Z M 3.67,28.22 L 3.67,28.22 3.67,28.22 C 4.46,28.22 5.11,28.87 5.11,29.67 L 5.11,29.67 5.11,29.67 C 5.11,30.46 4.46,31.11 3.67,31.11 L 3.67,31.11 3.67,31.11 C 2.87,31.11 2.22,30.46 2.22,29.67 L 2.22,29.67 2.22,29.67 C 2.22,28.87 2.87,28.22 3.67,28.22 Z M 9.44,31.11 L 10.89,31.11 10.89,29.67 10.89,29.67 C 10.89,30.46 10.24,31.11 9.44,31.11 Z M 12.33,28.22 L 13.78,28.22 13.78,31.11 10.89,31.11 10.89,29.67 10.89,29.67 C 10.89,28.87 11.54,28.22 12.33,28.22 Z M 13.78,28.22 L 16.67,28.22 16.67,31.11 13.78,31.11 13.78,28.22 Z M 16.67,28.22 L 19.56,28.22 19.56,29.67 19.56,29.67 C 19.56,30.46 18.91,31.11 18.11,31.11 L 16.67,31.11 16.67,28.22 Z M 21,28.22 L 19.56,28.22 19.56,29.67 19.56,29.67 C 19.56,28.87 20.2,28.22 21,28.22 Z M 22.44,29.67 L 22.44,28.22 21,28.22 21,28.22 C 21.8,28.22 22.44,28.87 22.44,29.67 Z M 22.44,28.22 L 25.33,28.22 25.33,31.11 23.89,31.11 23.89,31.11 C 23.09,31.11 22.44,30.46 22.44,29.67 L 22.44,28.22 Z M 25.33,28.22 L 28.22,28.22 28.22,31.11 25.33,31.11 25.33,28.22 Z M 28.22,28.22 L 31.11,28.22 31.11,31.11 28.22,31.11 28.22,28.22 Z M 31.11,28.22 L 34,28.22 34,31.11 31.11,31.11 31.11,28.22 Z M 34,28.22 L 36.89,28.22 36.89,29.67 36.89,29.67 C 36.89,30.46 36.24,31.11 35.44,31.11 L 34,31.11 34,28.22 Z M 38.33,28.22 L 36.89,28.22 36.89,29.67 36.89,29.67 C 36.89,28.87 37.54,28.22 38.33,28.22 Z M 41.22,31.11 L 42.67,31.11 42.67,29.67 42.67,29.67 C 42.67,30.46 42.02,31.11 41.22,31.11 Z M 44.11,28.22 L 45.56,28.22 45.56,31.11 42.67,31.11 42.67,29.67 42.67,29.67 C 42.67,28.87 43.31,28.22 44.11,28.22 Z M 45.56,28.22 L 47,28.22 47,28.22 C 47.8,28.22 48.44,28.87 48.44,29.67 L 48.44,31.11 45.56,31.11 45.56,28.22 Z M 57.11,29.67 L 57.11,28.22 55.67,28.22 55.67,28.22 C 56.46,28.22 57.11,28.87 57.11,29.67 Z M 57.11,28.22 L 60,28.22 60,31.11 57.11,31.11 57.11,28.22 Z M 60,29.67 L 60,31.11 61.44,31.11 61.44,31.11 C 60.65,31.11 60,30.46 60,29.67 Z M 67.22,31.11 L 68.67,31.11 68.67,29.67 68.67,29.67 C 68.67,30.46 68.02,31.11 67.22,31.11 Z M 68.67,28.22 L 71.56,28.22 71.56,31.11 68.67,31.11 68.67,28.22 Z M 73,28.22 L 71.56,28.22 71.56,29.67 71.56,29.67 C 71.56,28.87 72.2,28.22 73,28.22 Z M 80.22,29.67 L 80.22,28.22 78.78,28.22 78.78,28.22 C 79.58,28.22 80.22,28.87 80.22,29.67 Z M 80.22,28.22 L 83.11,28.22 83.11,31.11 80.22,31.11 80.22,28.22 Z M 84.56,31.11 L 86,31.11 86,29.67 86,29.67 C 86,30.46 85.35,31.11 84.56,31.11 Z M 83.11,29.67 L 83.11,31.11 84.56,31.11 84.56,31.11 C 83.76,31.11 83.11,30.46 83.11,29.67 Z M 87.44,28.22 L 87.44,28.22 87.44,28.22 C 88.24,28.22 88.89,28.87 88.89,29.67 L 88.89,31.11 86,31.11 86,29.67 86,29.67 C 86,28.87 86.65,28.22 87.44,28.22 Z M 90.33,31.11 L 91.78,31.11 91.78,29.67 91.78,29.67 C 91.78,30.46 91.13,31.11 90.33,31.11 Z M 88.89,29.67 L 88.89,31.11 90.33,31.11 90.33,31.11 C 89.54,31.11 88.89,30.46 88.89,29.67 Z M 91.78,28.22 L 94.67,28.22 94.67,31.11 91.78,31.11 91.78,28.22 Z M 6.56,31.11 L 8,31.11 8,34 6.56,34 6.56,34 C 5.76,34 5.11,33.35 5.11,32.56 L 5.11,32.56 5.11,32.56 C 5.11,31.76 5.76,31.11 6.56,31.11 Z M 8,31.11 L 10.89,31.11 10.89,34 8,34 8,31.11 Z M 10.89,31.11 L 13.78,31.11 13.78,34 10.89,34 10.89,31.11 Z M 13.78,31.11 L 16.67,31.11 16.67,34 13.78,34 13.78,31.11 Z M 18.11,31.11 L 16.67,31.11 16.67,32.56 16.67,32.56 C 16.67,31.76 17.31,31.11 18.11,31.11 Z M 16.67,32.56 L 16.67,34 18.11,34 18.11,34 C 17.31,34 16.67,33.35 16.67,32.56 Z M 21,31.11 L 21,31.11 21,31.11 C 21.8,31.11 22.44,31.76 22.44,32.56 L 22.44,32.56 22.44,32.56 C 22.44,33.35 21.8,34 21,34 L 21,34 21,34 C 20.2,34 19.56,33.35 19.56,32.56 L 19.56,32.56 19.56,32.56 C 19.56,31.76 20.2,31.11 21,31.11 Z M 28.22,32.56 L 28.22,31.11 26.78,31.11 26.78,31.11 C 27.58,31.11 28.22,31.76 28.22,32.56 Z M 28.22,31.11 L 31.11,31.11 31.11,32.56 31.11,32.56 C 31.11,33.35 30.46,34 29.67,34 L 29.67,34 29.67,34 C 28.87,34 28.22,33.35 28.22,32.56 L 28.22,31.11 Z M 32.56,31.11 L 31.11,31.11 31.11,32.56 31.11,32.56 C 31.11,31.76 31.76,31.11 32.56,31.11 Z M 41.22,31.11 L 42.67,31.11 42.67,34 41.22,34 41.22,34 C 40.42,34 39.78,33.35 39.78,32.56 L 39.78,32.56 39.78,32.56 C 39.78,31.76 40.42,31.11 41.22,31.11 Z M 42.67,31.11 L 45.56,31.11 45.56,34 42.67,34 42.67,31.11 Z M 45.56,31.11 L 48.44,31.11 48.44,32.56 48.44,32.56 C 48.44,33.35 47.8,34 47,34 L 45.56,34 45.56,31.11 Z M 52.78,31.11 L 52.78,31.11 52.78,31.11 C 53.58,31.11 54.22,31.76 54.22,32.56 L 54.22,32.56 54.22,32.56 C 54.22,33.35 53.58,34 52.78,34 L 52.78,34 52.78,34 C 51.98,34 51.33,33.35 51.33,32.56 L 51.33,32.56 51.33,32.56 C 51.33,31.76 51.98,31.11 52.78,31.11 Z M 57.11,31.11 L 60,31.11 60,34 58.56,34 58.56,34 C 57.76,34 57.11,33.35 57.11,32.56 L 57.11,31.11 Z M 60,31.11 L 62.89,31.11 62.89,34 60,34 60,31.11 Z M 62.89,31.11 L 65.78,31.11 65.78,34 62.89,34 62.89,31.11 Z M 65.78,31.11 L 68.67,31.11 68.67,34 65.78,34 65.78,31.11 Z M 68.67,31.11 L 71.56,31.11 71.56,32.56 71.56,32.56 C 71.56,33.35 70.91,34 70.11,34 L 68.67,34 68.67,31.11 Z M 80.22,31.11 L 83.11,31.11 83.11,34 81.67,34 81.67,34 C 80.87,34 80.22,33.35 80.22,32.56 L 80.22,31.11 Z M 83.11,31.11 L 86,31.11 86,34 83.11,34 83.11,31.11 Z M 86,31.11 L 88.89,31.11 88.89,34 86,34 86,31.11 Z M 88.89,31.11 L 91.78,31.11 91.78,34 88.89,34 88.89,31.11 Z M 91.78,31.11 L 94.67,31.11 94.67,34 91.78,34 91.78,31.11 Z M 94.67,32.56 L 94.67,34 96.11,34 96.11,34 C 95.31,34 94.67,33.35 94.67,32.56 Z M 3.67,34 L 3.67,34 3.67,34 C 4.46,34 5.11,34.65 5.11,35.44 L 5.11,36.89 2.22,36.89 2.22,35.44 2.22,35.44 C 2.22,34.65 2.87,34 3.67,34 Z M 8,35.44 L 8,34 6.56,34 6.56,34 C 7.35,34 8,34.65 8,35.44 Z M 8,34 L 10.89,34 10.89,35.44 10.89,35.44 C 10.89,36.24 10.24,36.89 9.44,36.89 L 9.44,36.89 9.44,36.89 C 8.65,36.89 8,36.24 8,35.44 L 8,34 Z M 12.33,34 L 10.89,34 10.89,35.44 10.89,35.44 C 10.89,34.65 11.54,34 12.33,34 Z M 13.78,35.44 L 13.78,34 12.33,34 12.33,34 C 13.13,34 13.78,34.65 13.78,35.44 Z M 13.78,34 L 16.67,34 16.67,36.89 15.22,36.89 15.22,36.89 C 14.42,36.89 13.78,36.24 13.78,35.44 L 13.78,34 Z M 16.67,34 L 18.11,34 18.11,34 C 18.91,34 19.56,34.65 19.56,35.44 L 19.56,35.44 19.56,35.44 C 19.56,36.24 18.91,36.89 18.11,36.89 L 16.67,36.89 16.67,34 Z M 29.67,36.89 L 31.11,36.89 31.11,35.44 31.11,35.44 C 31.11,36.24 30.46,36.89 29.67,36.89 Z M 32.56,34 L 32.56,34 32.56,34 C 33.35,34 34,34.65 34,35.44 L 34,36.89 31.11,36.89 31.11,35.44 31.11,35.44 C 31.11,34.65 31.76,34 32.56,34 Z M 34,35.44 L 34,36.89 35.44,36.89 35.44,36.89 C 34.65,36.89 34,36.24 34,35.44 Z M 55.67,34 L 55.67,34 55.67,34 C 56.46,34 57.11,34.65 57.11,35.44 L 57.11,35.44 57.11,35.44 C 57.11,36.24 56.46,36.89 55.67,36.89 L 55.67,36.89 55.67,36.89 C 54.87,36.89 54.22,36.24 54.22,35.44 L 54.22,35.44 54.22,35.44 C 54.22,34.65 54.87,34 55.67,34 Z M 62.89,35.44 L 62.89,34 61.44,34 61.44,34 C 62.24,34 62.89,34.65 62.89,35.44 Z M 62.89,34 L 65.78,34 65.78,35.44 65.78,35.44 C 65.78,36.24 65.13,36.89 64.33,36.89 L 64.33,36.89 64.33,36.89 C 63.54,36.89 62.89,36.24 62.89,35.44 L 62.89,34 Z M 67.22,34 L 65.78,34 65.78,35.44 65.78,35.44 C 65.78,34.65 66.42,34 67.22,34 Z M 70.11,36.89 L 71.56,36.89 71.56,35.44 71.56,35.44 C 71.56,36.24 70.91,36.89 70.11,36.89 Z M 73,34 L 73,34 73,34 C 73.8,34 74.44,34.65 74.44,35.44 L 74.44,36.89 71.56,36.89 71.56,35.44 71.56,35.44 C 71.56,34.65 72.2,34 73,34 Z M 78.78,34 L 78.78,34 78.78,34 C 79.58,34 80.22,34.65 80.22,35.44 L 80.22,36.89 77.33,36.89 77.33,35.44 77.33,35.44 C 77.33,34.65 77.98,34 78.78,34 Z M 83.11,35.44 L 83.11,34 81.67,34 81.67,34 C 82.46,34 83.11,34.65 83.11,35.44 Z M 80.22,35.44 L 80.22,36.89 81.67,36.89 81.67,36.89 C 80.87,36.89 80.22,36.24 80.22,35.44 Z M 83.11,34 L 86,34 86,35.44 86,35.44 C 86,36.24 85.35,36.89 84.56,36.89 L 84.56,36.89 84.56,36.89 C 83.76,36.89 83.11,36.24 83.11,35.44 L 83.11,34 Z M 87.44,34 L 86,34 86,35.44 86,35.44 C 86,34.65 86.65,34 87.44,34 Z M 91.78,35.44 L 91.78,34 90.33,34 90.33,34 C 91.13,34 91.78,34.65 91.78,35.44 Z M 91.78,34 L 94.67,34 94.67,36.89 91.78,36.89 91.78,34 Z M 94.67,34 L 96.11,34 96.11,34 C 96.91,34 97.56,34.65 97.56,35.44 L 97.56,36.89 94.67,36.89 94.67,34 Z M 2.22,36.89 L 5.11,36.89 5.11,39.78 2.22,39.78 2.22,36.89 Z M 21,36.89 L 21,36.89 21,36.89 C 21.8,36.89 22.44,37.54 22.44,38.33 L 22.44,38.33 22.44,38.33 C 22.44,39.13 21.8,39.78 21,39.78 L 21,39.78 21,39.78 C 20.2,39.78 19.56,39.13 19.56,38.33 L 19.56,38.33 19.56,38.33 C 19.56,37.54 20.2,36.89 21,36.89 Z M 26.78,39.78 L 28.22,39.78 28.22,38.33 28.22,38.33 C 28.22,39.13 27.58,39.78 26.78,39.78 Z M 29.67,36.89 L 31.11,36.89 31.11,39.78 28.22,39.78 28.22,38.33 28.22,38.33 C 28.22,37.54 28.87,36.89 29.67,36.89 Z M 31.11,36.89 L 34,36.89 34,39.78 31.11,39.78 31.11,36.89 Z M 34,36.89 L 36.89,36.89 36.89,39.78 34,39.78 34,36.89 Z M 36.89,36.89 L 39.78,36.89 39.78,39.78 36.89,39.78 36.89,36.89 Z M 39.78,36.89 L 41.22,36.89 41.22,36.89 C 42.02,36.89 42.67,37.54 42.67,38.33 L 42.67,39.78 39.78,39.78 39.78,36.89 Z M 52.78,36.89 L 52.78,36.89 52.78,36.89 C 53.58,36.89 54.22,37.54 54.22,38.33 L 54.22,38.33 54.22,38.33 C 54.22,39.13 53.58,39.78 52.78,39.78 L 52.78,39.78 52.78,39.78 C 51.98,39.78 51.33,39.13 51.33,38.33 L 51.33,38.33 51.33,38.33 C 51.33,37.54 51.98,36.89 52.78,36.89 Z M 67.22,39.78 L 68.67,39.78 68.67,38.33 68.67,38.33 C 68.67,39.13 68.02,39.78 67.22,39.78 Z M 70.11,36.89 L 71.56,36.89 71.56,39.78 68.67,39.78 68.67,38.33 68.67,38.33 C 68.67,37.54 69.31,36.89 70.11,36.89 Z M 71.56,36.89 L 74.44,36.89 74.44,38.33 74.44,38.33 C 74.44,39.13 73.8,39.78 73,39.78 L 71.56,39.78 71.56,36.89 Z M 77.33,36.89 L 80.22,36.89 80.22,39.78 78.78,39.78 78.78,39.78 C 77.98,39.78 77.33,39.13 77.33,38.33 L 77.33,36.89 Z M 80.22,36.89 L 81.67,36.89 81.67,36.89 C 82.46,36.89 83.11,37.54 83.11,38.33 L 83.11,38.33 83.11,38.33 C 83.11,39.13 82.46,39.78 81.67,39.78 L 80.22,39.78 80.22,36.89 Z M 87.44,36.89 L 87.44,36.89 87.44,36.89 C 88.24,36.89 88.89,37.54 88.89,38.33 L 88.89,38.33 88.89,38.33 C 88.89,39.13 88.24,39.78 87.44,39.78 L 87.44,39.78 87.44,39.78 C 86.65,39.78 86,39.13 86,38.33 L 86,38.33 86,38.33 C 86,37.54 86.65,36.89 87.44,36.89 Z M 90.33,39.78 L 91.78,39.78 91.78,38.33 91.78,38.33 C 91.78,39.13 91.13,39.78 90.33,39.78 Z M 91.78,36.89 L 94.67,36.89 94.67,39.78 91.78,39.78 91.78,36.89 Z M 94.67,36.89 L 97.56,36.89 97.56,38.33 97.56,38.33 C 97.56,39.13 96.91,39.78 96.11,39.78 L 94.67,39.78 94.67,36.89 Z M 2.22,39.78 L 5.11,39.78 5.11,41.22 5.11,41.22 C 5.11,42.02 4.46,42.67 3.67,42.67 L 3.67,42.67 3.67,42.67 C 2.87,42.67 2.22,42.02 2.22,41.22 L 2.22,39.78 Z M 9.44,39.78 L 9.44,39.78 9.44,39.78 C 10.24,39.78 10.89,40.42 10.89,41.22 L 10.89,42.67 8,42.67 8,41.22 8,41.22 C 8,40.42 8.65,39.78 9.44,39.78 Z M 12.33,42.67 L 13.78,42.67 13.78,41.22 13.78,41.22 C 13.78,42.02 13.13,42.67 12.33,42.67 Z M 10.89,41.22 L 10.89,42.67 12.33,42.67 12.33,42.67 C 11.54,42.67 10.89,42.02 10.89,41.22 Z M 15.22,39.78 L 15.22,39.78 15.22,39.78 C 16.02,39.78 16.67,40.42 16.67,41.22 L 16.67,42.67 13.78,42.67 13.78,41.22 13.78,41.22 C 13.78,40.42 14.42,39.78 15.22,39.78 Z M 16.67,41.22 L 16.67,42.67 18.11,42.67 18.11,42.67 C 17.31,42.67 16.67,42.02 16.67,41.22 Z M 23.89,39.78 L 25.33,39.78 25.33,42.67 23.89,42.67 23.89,42.67 C 23.09,42.67 22.44,42.02 22.44,41.22 L 22.44,41.22 22.44,41.22 C 22.44,40.42 23.09,39.78 23.89,39.78 Z M 25.33,39.78 L 28.22,39.78 28.22,42.67 25.33,42.67 25.33,39.78 Z M 28.22,39.78 L 31.11,39.78 31.11,42.67 28.22,42.67 28.22,39.78 Z M 31.11,39.78 L 34,39.78 34,42.67 31.11,42.67 31.11,39.78 Z M 34,39.78 L 36.89,39.78 36.89,42.67 34,42.67 34,39.78 Z M 38.33,39.78 L 36.89,39.78 36.89,41.22 36.89,41.22 C 36.89,40.42 37.54,39.78 38.33,39.78 Z M 39.78,41.22 L 39.78,39.78 38.33,39.78 38.33,39.78 C 39.13,39.78 39.78,40.42 39.78,41.22 Z M 39.78,39.78 L 42.67,39.78 42.67,41.22 42.67,41.22 C 42.67,42.02 42.02,42.67 41.22,42.67 L 41.22,42.67 41.22,42.67 C 40.42,42.67 39.78,42.02 39.78,41.22 L 39.78,39.78 Z M 55.67,39.78 L 55.67,39.78 55.67,39.78 C 56.46,39.78 57.11,40.42 57.11,41.22 L 57.11,41.22 57.11,41.22 C 57.11,42.02 56.46,42.67 55.67,42.67 L 55.67,42.67 55.67,42.67 C 54.87,42.67 54.22,42.02 54.22,41.22 L 54.22,41.22 54.22,41.22 C 54.22,40.42 54.87,39.78 55.67,39.78 Z M 61.44,39.78 L 62.89,39.78 62.89,42.67 60,42.67 60,41.22 60,41.22 C 60,40.42 60.65,39.78 61.44,39.78 Z M 62.89,39.78 L 65.78,39.78 65.78,42.67 62.89,42.67 62.89,39.78 Z M 65.78,39.78 L 68.67,39.78 68.67,42.67 65.78,42.67 65.78,39.78 Z M 68.67,39.78 L 71.56,39.78 71.56,42.67 68.67,42.67 68.67,39.78 Z M 73,39.78 L 71.56,39.78 71.56,41.22 71.56,41.22 C 71.56,40.42 72.2,39.78 73,39.78 Z M 71.56,41.22 L 71.56,42.67 73,42.67 73,42.67 C 72.2,42.67 71.56,42.02 71.56,41.22 Z M 75.89,39.78 L 75.89,39.78 75.89,39.78 C 76.69,39.78 77.33,40.42 77.33,41.22 L 77.33,41.22 77.33,41.22 C 77.33,42.02 76.69,42.67 75.89,42.67 L 75.89,42.67 75.89,42.67 C 75.09,42.67 74.44,42.02 74.44,41.22 L 74.44,41.22 74.44,41.22 C 74.44,40.42 75.09,39.78 75.89,39.78 Z M 90.33,39.78 L 91.78,39.78 91.78,42.67 90.33,42.67 90.33,42.67 C 89.54,42.67 88.89,42.02 88.89,41.22 L 88.89,41.22 88.89,41.22 C 88.89,40.42 89.54,39.78 90.33,39.78 Z M 91.78,39.78 L 94.67,39.78 94.67,42.67 91.78,42.67 91.78,39.78 Z M 96.11,39.78 L 94.67,39.78 94.67,41.22 94.67,41.22 C 94.67,40.42 95.31,39.78 96.11,39.78 Z M 6.56,45.56 L 8,45.56 8,44.11 8,44.11 C 8,44.91 7.35,45.56 6.56,45.56 Z M 8,42.67 L 10.89,42.67 10.89,45.56 8,45.56 8,42.67 Z M 10.89,42.67 L 13.78,42.67 13.78,45.56 10.89,45.56 10.89,42.67 Z M 13.78,42.67 L 16.67,42.67 16.67,45.56 13.78,45.56 13.78,42.67 Z M 16.67,42.67 L 19.56,42.67 19.56,45.56 16.67,45.56 16.67,42.67 Z M 19.56,42.67 L 21,42.67 21,42.67 C 21.8,42.67 22.44,43.31 22.44,44.11 L 22.44,44.11 22.44,44.11 C 22.44,44.91 21.8,45.56 21,45.56 L 19.56,45.56 19.56,42.67 Z M 25.33,44.11 L 25.33,42.67 23.89,42.67 23.89,42.67 C 24.69,42.67 25.33,43.31 25.33,44.11 Z M 25.33,42.67 L 28.22,42.67 28.22,44.11 28.22,44.11 C 28.22,44.91 27.58,45.56 26.78,45.56 L 26.78,45.56 26.78,45.56 C 25.98,45.56 25.33,44.91 25.33,44.11 L 25.33,42.67 Z M 29.67,42.67 L 28.22,42.67 28.22,44.11 28.22,44.11 C 28.22,43.31 28.87,42.67 29.67,42.67 Z M 31.11,44.11 L 31.11,42.67 29.67,42.67 29.67,42.67 C 30.46,42.67 31.11,43.31 31.11,44.11 Z M 31.11,42.67 L 34,42.67 34,45.56 32.56,45.56 32.56,45.56 C 31.76,45.56 31.11,44.91 31.11,44.11 L 31.11,42.67 Z M 34,42.67 L 36.89,42.67 36.89,44.11 36.89,44.11 C 36.89,44.91 36.24,45.56 35.44,45.56 L 34,45.56 34,42.67 Z M 44.11,42.67 L 45.56,42.67 45.56,45.56 42.67,45.56 42.67,44.11 42.67,44.11 C 42.67,43.31 43.31,42.67 44.11,42.67 Z M 45.56,42.67 L 48.44,42.67 48.44,45.56 45.56,45.56 45.56,42.67 Z M 48.44,42.67 L 51.33,42.67 51.33,45.56 48.44,45.56 48.44,42.67 Z M 51.33,42.67 L 52.78,42.67 52.78,42.67 C 53.58,42.67 54.22,43.31 54.22,44.11 L 54.22,44.11 54.22,44.11 C 54.22,44.91 53.58,45.56 52.78,45.56 L 51.33,45.56 51.33,42.67 Z M 60,42.67 L 62.89,42.67 62.89,45.56 60,45.56 60,42.67 Z M 64.33,42.67 L 62.89,42.67 62.89,44.11 62.89,44.11 C 62.89,43.31 63.54,42.67 64.33,42.67 Z M 62.89,44.11 L 62.89,45.56 64.33,45.56 64.33,45.56 C 63.54,45.56 62.89,44.91 62.89,44.11 Z M 68.67,44.11 L 68.67,42.67 67.22,42.67 67.22,42.67 C 68.02,42.67 68.67,43.31 68.67,44.11 Z M 68.67,42.67 L 71.56,42.67 71.56,45.56 70.11,45.56 70.11,45.56 C 69.31,45.56 68.67,44.91 68.67,44.11 L 68.67,42.67 Z M 71.56,42.67 L 73,42.67 73,42.67 C 73.8,42.67 74.44,43.31 74.44,44.11 L 74.44,44.11 74.44,44.11 C 74.44,44.91 73.8,45.56 73,45.56 L 71.56,45.56 71.56,42.67 Z M 81.67,45.56 L 83.11,45.56 83.11,44.11 83.11,44.11 C 83.11,44.91 82.46,45.56 81.67,45.56 Z M 84.56,42.67 L 84.56,42.67 84.56,42.67 C 85.35,42.67 86,43.31 86,44.11 L 86,45.56 83.11,45.56 83.11,44.11 83.11,44.11 C 83.11,43.31 83.76,42.67 84.56,42.67 Z M 86,44.11 L 86,45.56 87.44,45.56 87.44,45.56 C 86.65,45.56 86,44.91 86,44.11 Z M 91.78,44.11 L 91.78,42.67 90.33,42.67 90.33,42.67 C 91.13,42.67 91.78,43.31 91.78,44.11 Z M 91.78,42.67 L 94.67,42.67 94.67,45.56 91.78,45.56 91.78,42.67 Z M 94.67,44.11 L 94.67,45.56 96.11,45.56 96.11,45.56 C 95.31,45.56 94.67,44.91 94.67,44.11 Z M 3.67,48.44 L 5.11,48.44 5.11,47 5.11,47 C 5.11,47.8 4.46,48.44 3.67,48.44 Z M 6.56,45.56 L 8,45.56 8,48.44 5.11,48.44 5.11,47 5.11,47 C 5.11,46.2 5.76,45.56 6.56,45.56 Z M 8,45.56 L 10.89,45.56 10.89,48.44 8,48.44 8,45.56 Z M 10.89,45.56 L 13.78,45.56 13.78,48.44 10.89,48.44 10.89,45.56 Z M 13.78,45.56 L 16.67,45.56 16.67,48.44 13.78,48.44 13.78,45.56 Z M 16.67,45.56 L 19.56,45.56 19.56,48.44 16.67,48.44 16.67,45.56 Z M 21,45.56 L 19.56,45.56 19.56,47 19.56,47 C 19.56,46.2 20.2,45.56 21,45.56 Z M 19.56,47 L 19.56,48.44 21,48.44 21,48.44 C 20.2,48.44 19.56,47.8 19.56,47 Z M 23.89,45.56 L 23.89,45.56 23.89,45.56 C 24.69,45.56 25.33,46.2 25.33,47 L 25.33,47 25.33,47 C 25.33,47.8 24.69,48.44 23.89,48.44 L 23.89,48.44 23.89,48.44 C 23.09,48.44 22.44,47.8 22.44,47 L 22.44,47 22.44,47 C 22.44,46.2 23.09,45.56 23.89,45.56 Z M 38.33,45.56 L 38.33,45.56 38.33,45.56 C 39.13,45.56 39.78,46.2 39.78,47 L 39.78,48.44 36.89,48.44 36.89,47 36.89,47 C 36.89,46.2 37.54,45.56 38.33,45.56 Z M 39.78,47 L 39.78,48.44 41.22,48.44 41.22,48.44 C 40.42,48.44 39.78,47.8 39.78,47 Z M 42.67,45.56 L 45.56,45.56 45.56,48.44 44.11,48.44 44.11,48.44 C 43.31,48.44 42.67,47.8 42.67,47 L 42.67,45.56 Z M 45.56,45.56 L 48.44,45.56 48.44,48.44 45.56,48.44 45.56,45.56 Z M 49.89,45.56 L 48.44,45.56 48.44,47 48.44,47 C 48.44,46.2 49.09,45.56 49.89,45.56 Z M 60,45.56 L 62.89,45.56 62.89,48.44 61.44,48.44 61.44,48.44 C 60.65,48.44 60,47.8 60,47 L 60,45.56 Z M 62.89,45.56 L 64.33,45.56 64.33,45.56 C 65.13,45.56 65.78,46.2 65.78,47 L 65.78,48.44 62.89,48.44 62.89,45.56 Z M 75.89,45.56 L 77.33,45.56 77.33,48.44 75.89,48.44 75.89,48.44 C 75.09,48.44 74.44,47.8 74.44,47 L 74.44,47 74.44,47 C 74.44,46.2 75.09,45.56 75.89,45.56 Z M 77.33,45.56 L 80.22,45.56 80.22,48.44 77.33,48.44 77.33,45.56 Z M 80.22,45.56 L 83.11,45.56 83.11,48.44 80.22,48.44 80.22,45.56 Z M 83.11,45.56 L 86,45.56 86,48.44 83.11,48.44 83.11,45.56 Z M 86,45.56 L 87.44,45.56 87.44,45.56 C 88.24,45.56 88.89,46.2 88.89,47 L 88.89,47 88.89,47 C 88.89,47.8 88.24,48.44 87.44,48.44 L 86,48.44 86,45.56 Z M 90.33,48.44 L 91.78,48.44 91.78,47 91.78,47 C 91.78,47.8 91.13,48.44 90.33,48.44 Z M 91.78,45.56 L 94.67,45.56 94.67,48.44 91.78,48.44 91.78,45.56 Z M 94.67,45.56 L 96.11,45.56 96.11,45.56 C 96.91,45.56 97.56,46.2 97.56,47 L 97.56,47 97.56,47 C 97.56,47.8 96.91,48.44 96.11,48.44 L 94.67,48.44 94.67,45.56 Z M 3.67,48.44 L 5.11,48.44 5.11,51.33 2.22,51.33 2.22,49.89 2.22,49.89 C 2.22,49.09 2.87,48.44 3.67,48.44 Z M 5.11,48.44 L 8,48.44 8,51.33 5.11,51.33 5.11,48.44 Z M 8,48.44 L 10.89,48.44 10.89,51.33 8,51.33 8,48.44 Z M 10.89,48.44 L 13.78,48.44 13.78,51.33 10.89,51.33 10.89,48.44 Z M 13.78,48.44 L 16.67,48.44 16.67,51.33 13.78,51.33 13.78,48.44 Z M 16.67,48.44 L 19.56,48.44 19.56,51.33 16.67,51.33 16.67,48.44 Z M 19.56,48.44 L 21,48.44 21,48.44 C 21.8,48.44 22.44,49.09 22.44,49.89 L 22.44,49.89 22.44,49.89 C 22.44,50.69 21.8,51.33 21,51.33 L 19.56,51.33 19.56,48.44 Z M 23.89,51.33 L 25.33,51.33 25.33,49.89 25.33,49.89 C 25.33,50.69 24.69,51.33 23.89,51.33 Z M 26.78,48.44 L 26.78,48.44 26.78,48.44 C 27.58,48.44 28.22,49.09 28.22,49.89 L 28.22,51.33 25.33,51.33 25.33,49.89 25.33,49.89 C 25.33,49.09 25.98,48.44 26.78,48.44 Z M 28.22,49.89 L 28.22,51.33 29.67,51.33 29.67,51.33 C 28.87,51.33 28.22,50.69 28.22,49.89 Z M 32.56,48.44 L 32.56,48.44 32.56,48.44 C 33.35,48.44 34,49.09 34,49.89 L 34,49.89 34,49.89 C 34,50.69 33.35,51.33 32.56,51.33 L 32.56,51.33 32.56,51.33 C 31.76,51.33 31.11,50.69 31.11,49.89 L 31.11,49.89 31.11,49.89 C 31.11,49.09 31.76,48.44 32.56,48.44 Z M 35.44,51.33 L 36.89,51.33 36.89,49.89 36.89,49.89 C 36.89,50.69 36.24,51.33 35.44,51.33 Z M 36.89,48.44 L 39.78,48.44 39.78,51.33 36.89,51.33 36.89,48.44 Z M 39.78,48.44 L 41.22,48.44 41.22,48.44 C 42.02,48.44 42.67,49.09 42.67,49.89 L 42.67,49.89 42.67,49.89 C 42.67,50.69 42.02,51.33 41.22,51.33 L 39.78,51.33 39.78,48.44 Z M 45.56,49.89 L 45.56,48.44 44.11,48.44 44.11,48.44 C 44.91,48.44 45.56,49.09 45.56,49.89 Z M 45.56,48.44 L 48.44,48.44 48.44,49.89 48.44,49.89 C 48.44,50.69 47.8,51.33 47,51.33 L 47,51.33 47,51.33 C 46.2,51.33 45.56,50.69 45.56,49.89 L 45.56,48.44 Z M 52.78,48.44 L 52.78,48.44 52.78,48.44 C 53.58,48.44 54.22,49.09 54.22,49.89 L 54.22,49.89 54.22,49.89 C 54.22,50.69 53.58,51.33 52.78,51.33 L 52.78,51.33 52.78,51.33 C 51.98,51.33 51.33,50.69 51.33,49.89 L 51.33,49.89 51.33,49.89 C 51.33,49.09 51.98,48.44 52.78,48.44 Z M 62.89,49.89 L 62.89,48.44 61.44,48.44 61.44,48.44 C 62.24,48.44 62.89,49.09 62.89,49.89 Z M 62.89,48.44 L 65.78,48.44 65.78,51.33 62.89,51.33 62.89,48.44 Z M 77.33,49.89 L 77.33,48.44 75.89,48.44 75.89,48.44 C 76.69,48.44 77.33,49.09 77.33,49.89 Z M 77.33,48.44 L 80.22,48.44 80.22,51.33 78.78,51.33 78.78,51.33 C 77.98,51.33 77.33,50.69 77.33,49.89 L 77.33,48.44 Z M 80.22,48.44 L 83.11,48.44 83.11,51.33 80.22,51.33 80.22,48.44 Z M 83.11,48.44 L 86,48.44 86,49.89 86,49.89 C 86,50.69 85.35,51.33 84.56,51.33 L 83.11,51.33 83.11,48.44 Z M 87.44,48.44 L 86,48.44 86,49.89 86,49.89 C 86,49.09 86.65,48.44 87.44,48.44 Z M 90.33,48.44 L 91.78,48.44 91.78,51.33 90.33,51.33 90.33,51.33 C 89.54,51.33 88.89,50.69 88.89,49.89 L 88.89,49.89 88.89,49.89 C 88.89,49.09 89.54,48.44 90.33,48.44 Z M 91.78,48.44 L 94.67,48.44 94.67,51.33 91.78,51.33 91.78,48.44 Z M 96.11,48.44 L 94.67,48.44 94.67,49.89 94.67,49.89 C 94.67,49.09 95.31,48.44 96.11,48.44 Z M 2.22,51.33 L 5.11,51.33 5.11,54.22 3.67,54.22 3.67,54.22 C 2.87,54.22 2.22,53.58 2.22,52.78 L 2.22,51.33 Z M 5.11,51.33 L 8,51.33 8,54.22 5.11,54.22 5.11,51.33 Z M 8,51.33 L 10.89,51.33 10.89,54.22 8,54.22 8,51.33 Z M 10.89,51.33 L 13.78,51.33 13.78,54.22 10.89,54.22 10.89,51.33 Z M 13.78,51.33 L 16.67,51.33 16.67,54.22 13.78,54.22 13.78,51.33 Z M 18.11,51.33 L 16.67,51.33 16.67,52.78 16.67,52.78 C 16.67,51.98 17.31,51.33 18.11,51.33 Z M 21,54.22 L 22.44,54.22 22.44,52.78 22.44,52.78 C 22.44,53.58 21.8,54.22 21,54.22 Z M 23.89,51.33 L 25.33,51.33 25.33,54.22 22.44,54.22 22.44,52.78 22.44,52.78 C 22.44,51.98 23.09,51.33 23.89,51.33 Z M 25.33,51.33 L 28.22,51.33 28.22,54.22 25.33,54.22 25.33,51.33 Z M 28.22,51.33 L 29.67,51.33 29.67,51.33 C 30.46,51.33 31.11,51.98 31.11,52.78 L 31.11,52.78 31.11,52.78 C 31.11,53.58 30.46,54.22 29.67,54.22 L 28.22,54.22 28.22,51.33 Z M 35.44,51.33 L 36.89,51.33 36.89,54.22 35.44,54.22 35.44,54.22 C 34.65,54.22 34,53.58 34,52.78 L 34,52.78 34,52.78 C 34,51.98 34.65,51.33 35.44,51.33 Z M 36.89,51.33 L 39.78,51.33 39.78,54.22 36.89,54.22 36.89,51.33 Z M 41.22,51.33 L 39.78,51.33 39.78,52.78 39.78,52.78 C 39.78,51.98 40.42,51.33 41.22,51.33 Z M 39.78,52.78 L 39.78,54.22 41.22,54.22 41.22,54.22 C 40.42,54.22 39.78,53.58 39.78,52.78 Z M 55.67,51.33 L 57.11,51.33 57.11,54.22 55.67,54.22 55.67,54.22 C 54.87,54.22 54.22,53.58 54.22,52.78 L 54.22,52.78 54.22,52.78 C 54.22,51.98 54.87,51.33 55.67,51.33 Z M 57.11,51.33 L 58.56,51.33 58.56,51.33 C 59.35,51.33 60,51.98 60,52.78 L 60,54.22 57.11,54.22 57.11,51.33 Z M 61.44,54.22 L 62.89,54.22 62.89,52.78 62.89,52.78 C 62.89,53.58 62.24,54.22 61.44,54.22 Z M 60,52.78 L 60,54.22 61.44,54.22 61.44,54.22 C 60.65,54.22 60,53.58 60,52.78 Z M 62.89,51.33 L 65.78,51.33 65.78,54.22 62.89,54.22 62.89,51.33 Z M 67.22,54.22 L 68.67,54.22 68.67,52.78 68.67,52.78 C 68.67,53.58 68.02,54.22 67.22,54.22 Z M 65.78,52.78 L 65.78,54.22 67.22,54.22 67.22,54.22 C 66.42,54.22 65.78,53.58 65.78,52.78 Z M 70.11,51.33 L 71.56,51.33 71.56,54.22 68.67,54.22 68.67,52.78 68.67,52.78 C 68.67,51.98 69.31,51.33 70.11,51.33 Z M 71.56,51.33 L 74.44,51.33 74.44,54.22 71.56,54.22 71.56,51.33 Z M 74.44,51.33 L 75.89,51.33 75.89,51.33 C 76.69,51.33 77.33,51.98 77.33,52.78 L 77.33,54.22 74.44,54.22 74.44,51.33 Z M 80.22,52.78 L 80.22,51.33 78.78,51.33 78.78,51.33 C 79.58,51.33 80.22,51.98 80.22,52.78 Z M 77.33,52.78 L 77.33,54.22 78.78,54.22 78.78,54.22 C 77.98,54.22 77.33,53.58 77.33,52.78 Z M 80.22,51.33 L 83.11,51.33 83.11,52.78 83.11,52.78 C 83.11,53.58 82.46,54.22 81.67,54.22 L 81.67,54.22 81.67,54.22 C 80.87,54.22 80.22,53.58 80.22,52.78 L 80.22,51.33 Z M 84.56,51.33 L 83.11,51.33 83.11,52.78 83.11,52.78 C 83.11,51.98 83.76,51.33 84.56,51.33 Z M 91.78,52.78 L 91.78,51.33 90.33,51.33 90.33,51.33 C 91.13,51.33 91.78,51.98 91.78,52.78 Z M 91.78,51.33 L 94.67,51.33 94.67,54.22 91.78,54.22 91.78,51.33 Z M 8,55.67 L 8,54.22 6.56,54.22 6.56,54.22 C 7.35,54.22 8,54.87 8,55.67 Z M 6.56,57.11 L 8,57.11 8,55.67 8,55.67 C 8,56.46 7.35,57.11 6.56,57.11 Z M 8,54.22 L 10.89,54.22 10.89,57.11 8,57.11 8,54.22 Z M 12.33,54.22 L 10.89,54.22 10.89,55.67 10.89,55.67 C 10.89,54.87 11.54,54.22 12.33,54.22 Z M 13.78,55.67 L 13.78,54.22 12.33,54.22 12.33,54.22 C 13.13,54.22 13.78,54.87 13.78,55.67 Z M 12.33,57.11 L 13.78,57.11 13.78,55.67 13.78,55.67 C 13.78,56.46 13.13,57.11 12.33,57.11 Z M 10.89,55.67 L 10.89,57.11 12.33,57.11 12.33,57.11 C 11.54,57.11 10.89,56.46 10.89,55.67 Z M 13.78,54.22 L 16.67,54.22 16.67,57.11 13.78,57.11 13.78,54.22 Z M 16.67,55.67 L 16.67,57.11 18.11,57.11 18.11,57.11 C 17.31,57.11 16.67,56.46 16.67,55.67 Z M 21,54.22 L 22.44,54.22 22.44,57.11 21,57.11 21,57.11 C 20.2,57.11 19.56,56.46 19.56,55.67 L 19.56,55.67 19.56,55.67 C 19.56,54.87 20.2,54.22 21,54.22 Z M 22.44,54.22 L 25.33,54.22 25.33,55.67 25.33,55.67 C 25.33,56.46 24.69,57.11 23.89,57.11 L 22.44,57.11 22.44,54.22 Z M 26.78,54.22 L 25.33,54.22 25.33,55.67 25.33,55.67 C 25.33,54.87 25.98,54.22 26.78,54.22 Z M 36.89,55.67 L 36.89,54.22 35.44,54.22 35.44,54.22 C 36.24,54.22 36.89,54.87 36.89,55.67 Z M 36.89,54.22 L 39.78,54.22 39.78,57.11 38.33,57.11 38.33,57.11 C 37.54,57.11 36.89,56.46 36.89,55.67 L 36.89,54.22 Z M 39.78,54.22 L 41.22,54.22 41.22,54.22 C 42.02,54.22 42.67,54.87 42.67,55.67 L 42.67,55.67 42.67,55.67 C 42.67,56.46 42.02,57.11 41.22,57.11 L 39.78,57.11 39.78,54.22 Z M 47,54.22 L 47,54.22 47,54.22 C 47.8,54.22 48.44,54.87 48.44,55.67 L 48.44,57.11 45.56,57.11 45.56,55.67 45.56,55.67 C 45.56,54.87 46.2,54.22 47,54.22 Z M 57.11,55.67 L 57.11,54.22 55.67,54.22 55.67,54.22 C 56.46,54.22 57.11,54.87 57.11,55.67 Z M 57.11,54.22 L 60,54.22 60,57.11 58.56,57.11 58.56,57.11 C 57.76,57.11 57.11,56.46 57.11,55.67 L 57.11,54.22 Z M 60,54.22 L 62.89,54.22 62.89,57.11 60,57.11 60,54.22 Z M 62.89,54.22 L 65.78,54.22 65.78,57.11 62.89,57.11 62.89,54.22 Z M 65.78,54.22 L 68.67,54.22 68.67,57.11 65.78,57.11 65.78,54.22 Z M 68.67,54.22 L 71.56,54.22 71.56,57.11 68.67,57.11 68.67,54.22 Z M 71.56,54.22 L 74.44,54.22 74.44,57.11 71.56,57.11 71.56,54.22 Z M 74.44,54.22 L 77.33,54.22 77.33,57.11 74.44,57.11 74.44,54.22 Z M 77.33,54.22 L 78.78,54.22 78.78,54.22 C 79.58,54.22 80.22,54.87 80.22,55.67 L 80.22,57.11 77.33,57.11 77.33,54.22 Z M 87.44,54.22 L 87.44,54.22 87.44,54.22 C 88.24,54.22 88.89,54.87 88.89,55.67 L 88.89,55.67 88.89,55.67 C 88.89,56.46 88.24,57.11 87.44,57.11 L 87.44,57.11 87.44,57.11 C 86.65,57.11 86,56.46 86,55.67 L 86,55.67 86,55.67 C 86,54.87 86.65,54.22 87.44,54.22 Z M 91.78,54.22 L 94.67,54.22 94.67,57.11 91.78,57.11 91.78,54.22 Z M 94.67,55.67 L 94.67,57.11 96.11,57.11 96.11,57.11 C 95.31,57.11 94.67,56.46 94.67,55.67 Z M 3.67,57.11 L 5.11,57.11 5.11,60 2.22,60 2.22,58.56 2.22,58.56 C 2.22,57.76 2.87,57.11 3.67,57.11 Z M 5.11,57.11 L 8,57.11 8,60 5.11,60 5.11,57.11 Z M 8,57.11 L 10.89,57.11 10.89,60 8,60 8,57.11 Z M 10.89,57.11 L 13.78,57.11 13.78,60 10.89,60 10.89,57.11 Z M 13.78,57.11 L 16.67,57.11 16.67,60 13.78,60 13.78,57.11 Z M 16.67,57.11 L 18.11,57.11 18.11,57.11 C 18.91,57.11 19.56,57.76 19.56,58.56 L 19.56,58.56 19.56,58.56 C 19.56,59.35 18.91,60 18.11,60 L 16.67,60 16.67,57.11 Z M 23.89,60 L 25.33,60 25.33,58.56 25.33,58.56 C 25.33,59.35 24.69,60 23.89,60 Z M 26.78,57.11 L 26.78,57.11 26.78,57.11 C 27.58,57.11 28.22,57.76 28.22,58.56 L 28.22,60 25.33,60 25.33,58.56 25.33,58.56 C 25.33,57.76 25.98,57.11 26.78,57.11 Z M 32.56,57.11 L 34,57.11 34,60 32.56,60 32.56,60 C 31.76,60 31.11,59.35 31.11,58.56 L 31.11,58.56 31.11,58.56 C 31.11,57.76 31.76,57.11 32.56,57.11 Z M 34,57.11 L 35.44,57.11 35.44,57.11 C 36.24,57.11 36.89,57.76 36.89,58.56 L 36.89,58.56 36.89,58.56 C 36.89,59.35 36.24,60 35.44,60 L 34,60 34,57.11 Z M 45.56,57.11 L 48.44,57.11 48.44,58.56 48.44,58.56 C 48.44,59.35 47.8,60 47,60 L 47,60 47,60 C 46.2,60 45.56,59.35 45.56,58.56 L 45.56,57.11 Z M 55.67,57.11 L 55.67,57.11 55.67,57.11 C 56.46,57.11 57.11,57.76 57.11,58.56 L 57.11,58.56 57.11,58.56 C 57.11,59.35 56.46,60 55.67,60 L 55.67,60 55.67,60 C 54.87,60 54.22,59.35 54.22,58.56 L 54.22,58.56 54.22,58.56 C 54.22,57.76 54.87,57.11 55.67,57.11 Z M 62.89,58.56 L 62.89,57.11 61.44,57.11 61.44,57.11 C 62.24,57.11 62.89,57.76 62.89,58.56 Z M 61.44,60 L 62.89,60 62.89,58.56 62.89,58.56 C 62.89,59.35 62.24,60 61.44,60 Z M 62.89,57.11 L 65.78,57.11 65.78,60 62.89,60 62.89,57.11 Z M 67.22,57.11 L 65.78,57.11 65.78,58.56 65.78,58.56 C 65.78,57.76 66.42,57.11 67.22,57.11 Z M 65.78,58.56 L 65.78,60 67.22,60 67.22,60 C 66.42,60 65.78,59.35 65.78,58.56 Z M 77.33,58.56 L 77.33,57.11 75.89,57.11 75.89,57.11 C 76.69,57.11 77.33,57.76 77.33,58.56 Z M 77.33,57.11 L 80.22,57.11 80.22,58.56 80.22,58.56 C 80.22,59.35 79.58,60 78.78,60 L 78.78,60 78.78,60 C 77.98,60 77.33,59.35 77.33,58.56 L 77.33,57.11 Z M 91.78,57.11 L 94.67,57.11 94.67,60 91.78,60 91.78,57.11 Z M 94.67,57.11 L 96.11,57.11 96.11,57.11 C 96.91,57.11 97.56,57.76 97.56,58.56 L 97.56,60 94.67,60 94.67,57.11 Z M 2.22,60 L 5.11,60 5.11,62.89 2.22,62.89 2.22,60 Z M 6.56,60 L 5.11,60 5.11,61.44 5.11,61.44 C 5.11,60.65 5.76,60 6.56,60 Z M 8,61.44 L 8,60 6.56,60 6.56,60 C 7.35,60 8,60.65 8,61.44 Z M 6.56,62.89 L 8,62.89 8,61.44 8,61.44 C 8,62.24 7.35,62.89 6.56,62.89 Z M 5.11,61.44 L 5.11,62.89 6.56,62.89 6.56,62.89 C 5.76,62.89 5.11,62.24 5.11,61.44 Z M 8,60 L 10.89,60 10.89,62.89 8,62.89 8,60 Z M 12.33,60 L 10.89,60 10.89,61.44 10.89,61.44 C 10.89,60.65 11.54,60 12.33,60 Z M 13.78,61.44 L 13.78,60 12.33,60 12.33,60 C 13.13,60 13.78,60.65 13.78,61.44 Z M 13.78,60 L 16.67,60 16.67,62.89 13.78,62.89 13.78,60 Z M 18.11,60 L 16.67,60 16.67,61.44 16.67,61.44 C 16.67,60.65 17.31,60 18.11,60 Z M 21,60 L 22.44,60 22.44,62.89 21,62.89 21,62.89 C 20.2,62.89 19.56,62.24 19.56,61.44 L 19.56,61.44 19.56,61.44 C 19.56,60.65 20.2,60 21,60 Z M 22.44,60 L 25.33,60 25.33,62.89 22.44,62.89 22.44,60 Z M 25.33,60 L 28.22,60 28.22,61.44 28.22,61.44 C 28.22,62.24 27.58,62.89 26.78,62.89 L 25.33,62.89 25.33,60 Z M 61.44,60 L 62.89,60 62.89,62.89 60,62.89 60,61.44 60,61.44 C 60,60.65 60.65,60 61.44,60 Z M 62.89,60 L 65.78,60 65.78,62.89 62.89,62.89 62.89,60 Z M 65.78,60 L 67.22,60 67.22,60 C 68.02,60 68.67,60.65 68.67,61.44 L 68.67,62.89 65.78,62.89 65.78,60 Z M 78.78,62.89 L 80.22,62.89 80.22,61.44 80.22,61.44 C 80.22,62.24 79.58,62.89 78.78,62.89 Z M 81.67,60 L 83.11,60 83.11,62.89 80.22,62.89 80.22,61.44 80.22,61.44 C 80.22,60.65 80.87,60 81.67,60 Z M 83.11,60 L 86,60 86,62.89 83.11,62.89 83.11,60 Z M 86,60 L 87.44,60 87.44,60 C 88.24,60 88.89,60.65 88.89,61.44 L 88.89,61.44 88.89,61.44 C 88.89,62.24 88.24,62.89 87.44,62.89 L 86,62.89 86,60 Z M 91.78,60 L 94.67,60 94.67,62.89 91.78,62.89 91.78,60 Z M 94.67,60 L 97.56,60 97.56,61.44 97.56,61.44 C 97.56,62.24 96.91,62.89 96.11,62.89 L 94.67,62.89 94.67,60 Z M 2.22,62.89 L 5.11,62.89 5.11,65.78 3.67,65.78 3.67,65.78 C 2.87,65.78 2.22,65.13 2.22,64.33 L 2.22,62.89 Z M 5.11,62.89 L 8,62.89 8,65.78 5.11,65.78 5.11,62.89 Z M 8,62.89 L 10.89,62.89 10.89,64.33 10.89,64.33 C 10.89,65.13 10.24,65.78 9.44,65.78 L 8,65.78 8,62.89 Z M 13.78,62.89 L 16.67,62.89 16.67,65.78 13.78,65.78 13.78,62.89 Z M 16.67,64.33 L 16.67,65.78 18.11,65.78 18.11,65.78 C 17.31,65.78 16.67,65.13 16.67,64.33 Z M 29.67,62.89 L 29.67,62.89 29.67,62.89 C 30.46,62.89 31.11,63.54 31.11,64.33 L 31.11,65.78 28.22,65.78 28.22,64.33 28.22,64.33 C 28.22,63.54 28.87,62.89 29.67,62.89 Z M 31.11,64.33 L 31.11,65.78 32.56,65.78 32.56,65.78 C 31.76,65.78 31.11,65.13 31.11,64.33 Z M 35.44,62.89 L 35.44,62.89 35.44,62.89 C 36.24,62.89 36.89,63.54 36.89,64.33 L 36.89,64.33 36.89,64.33 C 36.89,65.13 36.24,65.78 35.44,65.78 L 35.44,65.78 35.44,65.78 C 34.65,65.78 34,65.13 34,64.33 L 34,64.33 34,64.33 C 34,63.54 34.65,62.89 35.44,62.89 Z M 44.11,62.89 L 44.11,62.89 44.11,62.89 C 44.91,62.89 45.56,63.54 45.56,64.33 L 45.56,65.78 42.67,65.78 42.67,64.33 42.67,64.33 C 42.67,63.54 43.31,62.89 44.11,62.89 Z M 52.78,65.78 L 54.22,65.78 54.22,64.33 54.22,64.33 C 54.22,65.13 53.58,65.78 52.78,65.78 Z M 55.67,62.89 L 55.67,62.89 55.67,62.89 C 56.46,62.89 57.11,63.54 57.11,64.33 L 57.11,65.78 54.22,65.78 54.22,64.33 54.22,64.33 C 54.22,63.54 54.87,62.89 55.67,62.89 Z M 57.11,64.33 L 57.11,65.78 58.56,65.78 58.56,65.78 C 57.76,65.78 57.11,65.13 57.11,64.33 Z M 60,62.89 L 62.89,62.89 62.89,65.78 61.44,65.78 61.44,65.78 C 60.65,65.78 60,65.13 60,64.33 L 60,62.89 Z M 62.89,62.89 L 65.78,62.89 65.78,65.78 62.89,65.78 62.89,62.89 Z M 65.78,62.89 L 68.67,62.89 68.67,64.33 68.67,64.33 C 68.67,65.13 68.02,65.78 67.22,65.78 L 65.78,65.78 65.78,62.89 Z M 70.11,65.78 L 71.56,65.78 71.56,64.33 71.56,64.33 C 71.56,65.13 70.91,65.78 70.11,65.78 Z M 73,62.89 L 74.44,62.89 74.44,65.78 71.56,65.78 71.56,64.33 71.56,64.33 C 71.56,63.54 72.2,62.89 73,62.89 Z M 74.44,62.89 L 77.33,62.89 77.33,65.78 74.44,65.78 74.44,62.89 Z M 77.33,62.89 L 80.22,62.89 80.22,65.78 77.33,65.78 77.33,62.89 Z M 80.22,62.89 L 83.11,62.89 83.11,64.33 83.11,64.33 C 83.11,65.13 82.46,65.78 81.67,65.78 L 80.22,65.78 80.22,62.89 Z M 84.56,62.89 L 83.11,62.89 83.11,64.33 83.11,64.33 C 83.11,63.54 83.76,62.89 84.56,62.89 Z M 91.78,62.89 L 94.67,62.89 94.67,64.33 94.67,64.33 C 94.67,65.13 94.02,65.78 93.22,65.78 L 93.22,65.78 93.22,65.78 C 92.42,65.78 91.78,65.13 91.78,64.33 L 91.78,62.89 Z M 96.11,62.89 L 94.67,62.89 94.67,64.33 94.67,64.33 C 94.67,63.54 95.31,62.89 96.11,62.89 Z M 13.78,65.78 L 16.67,65.78 16.67,68.67 13.78,68.67 13.78,65.78 Z M 16.67,65.78 L 19.56,65.78 19.56,68.67 16.67,68.67 16.67,65.78 Z M 19.56,65.78 L 21,65.78 21,65.78 C 21.8,65.78 22.44,66.42 22.44,67.22 L 22.44,67.22 22.44,67.22 C 22.44,68.02 21.8,68.67 21,68.67 L 19.56,68.67 19.56,65.78 Z M 28.22,65.78 L 31.11,65.78 31.11,68.67 29.67,68.67 29.67,68.67 C 28.87,68.67 28.22,68.02 28.22,67.22 L 28.22,65.78 Z M 31.11,65.78 L 32.56,65.78 32.56,65.78 C 33.35,65.78 34,66.42 34,67.22 L 34,68.67 31.11,68.67 31.11,65.78 Z M 34,67.22 L 34,68.67 35.44,68.67 35.44,68.67 C 34.65,68.67 34,68.02 34,67.22 Z M 38.33,65.78 L 38.33,65.78 38.33,65.78 C 39.13,65.78 39.78,66.42 39.78,67.22 L 39.78,67.22 39.78,67.22 C 39.78,68.02 39.13,68.67 38.33,68.67 L 38.33,68.67 38.33,68.67 C 37.54,68.67 36.89,68.02 36.89,67.22 L 36.89,67.22 36.89,67.22 C 36.89,66.42 37.54,65.78 38.33,65.78 Z M 42.67,65.78 L 45.56,65.78 45.56,68.67 42.67,68.67 42.67,65.78 Z M 49.89,65.78 L 51.33,65.78 51.33,68.67 48.44,68.67 48.44,67.22 48.44,67.22 C 48.44,66.42 49.09,65.78 49.89,65.78 Z M 51.33,65.78 L 54.22,65.78 54.22,68.67 51.33,68.67 51.33,65.78 Z M 54.22,65.78 L 57.11,65.78 57.11,68.67 54.22,68.67 54.22,65.78 Z M 57.11,65.78 L 58.56,65.78 58.56,65.78 C 59.35,65.78 60,66.42 60,67.22 L 60,67.22 60,67.22 C 60,68.02 59.35,68.67 58.56,68.67 L 57.11,68.67 57.11,65.78 Z M 67.22,68.67 L 68.67,68.67 68.67,67.22 68.67,67.22 C 68.67,68.02 68.02,68.67 67.22,68.67 Z M 70.11,65.78 L 71.56,65.78 71.56,68.67 68.67,68.67 68.67,67.22 68.67,67.22 C 68.67,66.42 69.31,65.78 70.11,65.78 Z M 71.56,65.78 L 74.44,65.78 74.44,67.22 74.44,67.22 C 74.44,68.02 73.8,68.67 73,68.67 L 71.56,68.67 71.56,65.78 Z M 75.89,65.78 L 74.44,65.78 74.44,67.22 74.44,67.22 C 74.44,66.42 75.09,65.78 75.89,65.78 Z M 81.67,68.67 L 83.11,68.67 83.11,67.22 83.11,67.22 C 83.11,68.02 82.46,68.67 81.67,68.67 Z M 84.56,65.78 L 86,65.78 86,68.67 83.11,68.67 83.11,67.22 83.11,67.22 C 83.11,66.42 83.76,65.78 84.56,65.78 Z M 86,65.78 L 87.44,65.78 87.44,65.78 C 88.24,65.78 88.89,66.42 88.89,67.22 L 88.89,67.22 88.89,67.22 C 88.89,68.02 88.24,68.67 87.44,68.67 L 86,68.67 86,65.78 Z M 6.56,71.56 L 8,71.56 8,70.11 8,70.11 C 8,70.91 7.35,71.56 6.56,71.56 Z M 9.44,68.67 L 9.44,68.67 9.44,68.67 C 10.24,68.67 10.89,69.31 10.89,70.11 L 10.89,71.56 8,71.56 8,70.11 8,70.11 C 8,69.31 8.65,68.67 9.44,68.67 Z M 12.33,71.56 L 13.78,71.56 13.78,70.11 13.78,70.11 C 13.78,70.91 13.13,71.56 12.33,71.56 Z M 10.89,70.11 L 10.89,71.56 12.33,71.56 12.33,71.56 C 11.54,71.56 10.89,70.91 10.89,70.11 Z M 13.78,68.67 L 16.67,68.67 16.67,71.56 13.78,71.56 13.78,68.67 Z M 18.11,68.67 L 16.67,68.67 16.67,70.11 16.67,70.11 C 16.67,69.31 17.31,68.67 18.11,68.67 Z M 31.11,70.11 L 31.11,68.67 29.67,68.67 29.67,68.67 C 30.46,68.67 31.11,69.31 31.11,70.11 Z M 31.11,68.67 L 34,68.67 34,71.56 31.11,71.56 31.11,68.67 Z M 34,68.67 L 35.44,68.67 35.44,68.67 C 36.24,68.67 36.89,69.31 36.89,70.11 L 36.89,70.11 36.89,70.11 C 36.89,70.91 36.24,71.56 35.44,71.56 L 34,71.56 34,68.67 Z M 42.67,68.67 L 45.56,68.67 45.56,70.11 45.56,70.11 C 45.56,70.91 44.91,71.56 44.11,71.56 L 44.11,71.56 44.11,71.56 C 43.31,71.56 42.67,70.91 42.67,70.11 L 42.67,68.67 Z M 48.44,68.67 L 51.33,68.67 51.33,70.11 51.33,70.11 C 51.33,70.91 50.69,71.56 49.89,71.56 L 49.89,71.56 49.89,71.56 C 49.09,71.56 48.44,70.91 48.44,70.11 L 48.44,68.67 Z M 52.78,68.67 L 51.33,68.67 51.33,70.11 51.33,70.11 C 51.33,69.31 51.98,68.67 52.78,68.67 Z M 61.44,71.56 L 62.89,71.56 62.89,70.11 62.89,70.11 C 62.89,70.91 62.24,71.56 61.44,71.56 Z M 64.33,68.67 L 65.78,68.67 65.78,71.56 62.89,71.56 62.89,70.11 62.89,70.11 C 62.89,69.31 63.54,68.67 64.33,68.67 Z M 65.78,68.67 L 68.67,68.67 68.67,71.56 65.78,71.56 65.78,68.67 Z M 68.67,68.67 L 71.56,68.67 71.56,70.11 71.56,70.11 C 71.56,70.91 70.91,71.56 70.11,71.56 L 68.67,71.56 68.67,68.67 Z M 73,68.67 L 71.56,68.67 71.56,70.11 71.56,70.11 C 71.56,69.31 72.2,68.67 73,68.67 Z M 78.78,71.56 L 80.22,71.56 80.22,70.11 80.22,70.11 C 80.22,70.91 79.58,71.56 78.78,71.56 Z M 81.67,68.67 L 83.11,68.67 83.11,71.56 80.22,71.56 80.22,70.11 80.22,70.11 C 80.22,69.31 80.87,68.67 81.67,68.67 Z M 83.11,68.67 L 86,68.67 86,71.56 83.11,71.56 83.11,68.67 Z M 87.44,68.67 L 86,68.67 86,70.11 86,70.11 C 86,69.31 86.65,68.67 87.44,68.67 Z M 3.67,71.56 L 5.11,71.56 5.11,74.44 3.67,74.44 3.67,74.44 C 2.87,74.44 2.22,73.8 2.22,73 L 2.22,73 2.22,73 C 2.22,72.2 2.87,71.56 3.67,71.56 Z M 5.11,71.56 L 8,71.56 8,74.44 5.11,74.44 5.11,71.56 Z M 8,71.56 L 10.89,71.56 10.89,74.44 8,74.44 8,71.56 Z M 10.89,71.56 L 13.78,71.56 13.78,74.44 10.89,74.44 10.89,71.56 Z M 13.78,71.56 L 16.67,71.56 16.67,73 16.67,73 C 16.67,73.8 16.02,74.44 15.22,74.44 L 13.78,74.44 13.78,71.56 Z M 21,71.56 L 21,71.56 21,71.56 C 21.8,71.56 22.44,72.2 22.44,73 L 22.44,73 22.44,73 C 22.44,73.8 21.8,74.44 21,74.44 L 21,74.44 21,74.44 C 20.2,74.44 19.56,73.8 19.56,73 L 19.56,73 19.56,73 C 19.56,72.2 20.2,71.56 21,71.56 Z M 26.78,71.56 L 26.78,71.56 26.78,71.56 C 27.58,71.56 28.22,72.2 28.22,73 L 28.22,74.44 25.33,74.44 25.33,73 25.33,73 C 25.33,72.2 25.98,71.56 26.78,71.56 Z M 29.67,74.44 L 31.11,74.44 31.11,73 31.11,73 C 31.11,73.8 30.46,74.44 29.67,74.44 Z M 28.22,73 L 28.22,74.44 29.67,74.44 29.67,74.44 C 28.87,74.44 28.22,73.8 28.22,73 Z M 31.11,71.56 L 34,71.56 34,74.44 31.11,74.44 31.11,71.56 Z M 35.44,71.56 L 34,71.56 34,73 34,73 C 34,72.2 34.65,71.56 35.44,71.56 Z M 38.33,71.56 L 38.33,71.56 38.33,71.56 C 39.13,71.56 39.78,72.2 39.78,73 L 39.78,73 39.78,73 C 39.78,73.8 39.13,74.44 38.33,74.44 L 38.33,74.44 38.33,74.44 C 37.54,74.44 36.89,73.8 36.89,73 L 36.89,73 36.89,73 C 36.89,72.2 37.54,71.56 38.33,71.56 Z M 61.44,71.56 L 62.89,71.56 62.89,74.44 61.44,74.44 61.44,74.44 C 60.65,74.44 60,73.8 60,73 L 60,73 60,73 C 60,72.2 60.65,71.56 61.44,71.56 Z M 62.89,71.56 L 65.78,71.56 65.78,74.44 62.89,74.44 62.89,71.56 Z M 65.78,71.56 L 68.67,71.56 68.67,73 68.67,73 C 68.67,73.8 68.02,74.44 67.22,74.44 L 65.78,74.44 65.78,71.56 Z M 70.11,71.56 L 68.67,71.56 68.67,73 68.67,73 C 68.67,72.2 69.31,71.56 70.11,71.56 Z M 73,71.56 L 74.44,71.56 74.44,74.44 71.56,74.44 71.56,73 71.56,73 C 71.56,72.2 72.2,71.56 73,71.56 Z M 74.44,71.56 L 77.33,71.56 77.33,74.44 74.44,74.44 74.44,71.56 Z M 77.33,71.56 L 80.22,71.56 80.22,74.44 77.33,74.44 77.33,71.56 Z M 80.22,71.56 L 83.11,71.56 83.11,74.44 80.22,74.44 80.22,71.56 Z M 83.11,71.56 L 86,71.56 86,74.44 83.11,74.44 83.11,71.56 Z M 93.22,71.56 L 94.67,71.56 94.67,74.44 93.22,74.44 93.22,74.44 C 92.42,74.44 91.78,73.8 91.78,73 L 91.78,73 91.78,73 C 91.78,72.2 92.42,71.56 93.22,71.56 Z M 94.67,71.56 L 96.11,71.56 96.11,71.56 C 96.91,71.56 97.56,72.2 97.56,73 L 97.56,73 97.56,73 C 97.56,73.8 96.91,74.44 96.11,74.44 L 94.67,74.44 94.67,71.56 Z M 25.33,74.44 L 28.22,74.44 28.22,77.33 25.33,77.33 25.33,74.44 Z M 28.22,74.44 L 31.11,74.44 31.11,77.33 28.22,77.33 28.22,74.44 Z M 31.11,74.44 L 34,74.44 34,75.89 34,75.89 C 34,76.69 33.35,77.33 32.56,77.33 L 31.11,77.33 31.11,74.44 Z M 41.22,74.44 L 42.67,74.44 42.67,77.33 41.22,77.33 41.22,77.33 C 40.42,77.33 39.78,76.69 39.78,75.89 L 39.78,75.89 39.78,75.89 C 39.78,75.09 40.42,74.44 41.22,74.44 Z M 42.67,74.44 L 45.56,74.44 45.56,77.33 42.67,77.33 42.67,74.44 Z M 45.56,74.44 L 48.44,74.44 48.44,77.33 45.56,77.33 45.56,74.44 Z M 48.44,74.44 L 51.33,74.44 51.33,77.33 48.44,77.33 48.44,74.44 Z M 51.33,74.44 L 52.78,74.44 52.78,74.44 C 53.58,74.44 54.22,75.09 54.22,75.89 L 54.22,77.33 51.33,77.33 51.33,74.44 Z M 54.22,75.89 L 54.22,77.33 55.67,77.33 55.67,77.33 C 54.87,77.33 54.22,76.69 54.22,75.89 Z M 62.89,75.89 L 62.89,74.44 61.44,74.44 61.44,74.44 C 62.24,74.44 62.89,75.09 62.89,75.89 Z M 62.89,74.44 L 65.78,74.44 65.78,75.89 65.78,75.89 C 65.78,76.69 65.13,77.33 64.33,77.33 L 64.33,77.33 64.33,77.33 C 63.54,77.33 62.89,76.69 62.89,75.89 L 62.89,74.44 Z M 67.22,74.44 L 65.78,74.44 65.78,75.89 65.78,75.89 C 65.78,75.09 66.42,74.44 67.22,74.44 Z M 71.56,74.44 L 74.44,74.44 74.44,77.33 71.56,77.33 71.56,74.44 Z M 75.89,74.44 L 74.44,74.44 74.44,75.89 74.44,75.89 C 74.44,75.09 75.09,74.44 75.89,74.44 Z M 83.11,75.89 L 83.11,74.44 81.67,74.44 81.67,74.44 C 82.46,74.44 83.11,75.09 83.11,75.89 Z M 83.11,74.44 L 86,74.44 86,77.33 83.11,77.33 83.11,74.44 Z M 87.44,77.33 L 88.89,77.33 88.89,75.89 88.89,75.89 C 88.89,76.69 88.24,77.33 87.44,77.33 Z M 86,75.89 L 86,77.33 87.44,77.33 87.44,77.33 C 86.65,77.33 86,76.69 86,75.89 Z M 90.33,74.44 L 90.33,74.44 90.33,74.44 C 91.13,74.44 91.78,75.09 91.78,75.89 L 91.78,77.33 88.89,77.33 88.89,75.89 88.89,75.89 C 88.89,75.09 89.54,74.44 90.33,74.44 Z M 91.78,75.89 L 91.78,77.33 93.22,77.33 93.22,77.33 C 92.42,77.33 91.78,76.69 91.78,75.89 Z M 3.67,77.33 L 5.11,77.33 5.11,80.22 2.22,80.22 2.22,78.78 2.22,78.78 C 2.22,77.98 2.87,77.33 3.67,77.33 Z M 5.11,77.33 L 8,77.33 8,80.22 5.11,80.22 5.11,77.33 Z M 8,77.33 L 10.89,77.33 10.89,80.22 8,80.22 8,77.33 Z M 10.89,77.33 L 13.78,77.33 13.78,80.22 10.89,80.22 10.89,77.33 Z M 13.78,77.33 L 16.67,77.33 16.67,80.22 13.78,80.22 13.78,77.33 Z M 16.67,77.33 L 19.56,77.33 19.56,80.22 16.67,80.22 16.67,77.33 Z M 19.56,77.33 L 21,77.33 21,77.33 C 21.8,77.33 22.44,77.98 22.44,78.78 L 22.44,80.22 19.56,80.22 19.56,77.33 Z M 25.33,77.33 L 28.22,77.33 28.22,80.22 25.33,80.22 25.33,77.33 Z M 28.22,77.33 L 31.11,77.33 31.11,78.78 31.11,78.78 C 31.11,79.58 30.46,80.22 29.67,80.22 L 28.22,80.22 28.22,77.33 Z M 32.56,77.33 L 31.11,77.33 31.11,78.78 31.11,78.78 C 31.11,77.98 31.76,77.33 32.56,77.33 Z M 35.44,80.22 L 36.89,80.22 36.89,78.78 36.89,78.78 C 36.89,79.58 36.24,80.22 35.44,80.22 Z M 38.33,77.33 L 38.33,77.33 38.33,77.33 C 39.13,77.33 39.78,77.98 39.78,78.78 L 39.78,80.22 36.89,80.22 36.89,78.78 36.89,78.78 C 36.89,77.98 37.54,77.33 38.33,77.33 Z M 39.78,78.78 L 39.78,80.22 41.22,80.22 41.22,80.22 C 40.42,80.22 39.78,79.58 39.78,78.78 Z M 51.33,78.78 L 51.33,77.33 49.89,77.33 49.89,77.33 C 50.69,77.33 51.33,77.98 51.33,78.78 Z M 51.33,77.33 L 54.22,77.33 54.22,80.22 52.78,80.22 52.78,80.22 C 51.98,80.22 51.33,79.58 51.33,78.78 L 51.33,77.33 Z M 54.22,77.33 L 57.11,77.33 57.11,80.22 54.22,80.22 54.22,77.33 Z M 57.11,77.33 L 58.56,77.33 58.56,77.33 C 59.35,77.33 60,77.98 60,78.78 L 60,80.22 57.11,80.22 57.11,77.33 Z M 60,78.78 L 60,80.22 61.44,80.22 61.44,80.22 C 60.65,80.22 60,79.58 60,78.78 Z M 71.56,77.33 L 74.44,77.33 74.44,80.22 71.56,80.22 71.56,77.33 Z M 78.78,77.33 L 78.78,77.33 78.78,77.33 C 79.58,77.33 80.22,77.98 80.22,78.78 L 80.22,78.78 80.22,78.78 C 80.22,79.58 79.58,80.22 78.78,80.22 L 78.78,80.22 78.78,80.22 C 77.98,80.22 77.33,79.58 77.33,78.78 L 77.33,78.78 77.33,78.78 C 77.33,77.98 77.98,77.33 78.78,77.33 Z M 83.11,77.33 L 86,77.33 86,80.22 83.11,80.22 83.11,77.33 Z M 86,77.33 L 88.89,77.33 88.89,80.22 86,80.22 86,77.33 Z M 88.89,77.33 L 91.78,77.33 91.78,80.22 88.89,80.22 88.89,77.33 Z M 91.78,77.33 L 93.22,77.33 93.22,77.33 C 94.02,77.33 94.67,77.98 94.67,78.78 L 94.67,80.22 91.78,80.22 91.78,77.33 Z M 94.67,78.78 L 94.67,80.22 96.11,80.22 96.11,80.22 C 95.31,80.22 94.67,79.58 94.67,78.78 Z M 2.22,80.22 L 5.11,80.22 5.11,83.11 2.22,83.11 2.22,80.22 Z M 6.56,80.22 L 5.11,80.22 5.11,81.67 5.11,81.67 C 5.11,80.87 5.76,80.22 6.56,80.22 Z M 19.56,81.67 L 19.56,80.22 18.11,80.22 18.11,80.22 C 18.91,80.22 19.56,80.87 19.56,81.67 Z M 19.56,80.22 L 22.44,80.22 22.44,83.11 19.56,83.11 19.56,80.22 Z M 25.33,80.22 L 28.22,80.22 28.22,83.11 25.33,83.11 25.33,80.22 Z M 29.67,80.22 L 28.22,80.22 28.22,81.67 28.22,81.67 C 28.22,80.87 28.87,80.22 29.67,80.22 Z M 28.22,81.67 L 28.22,83.11 29.67,83.11 29.67,83.11 C 28.87,83.11 28.22,82.46 28.22,81.67 Z M 35.44,80.22 L 36.89,80.22 36.89,83.11 34,83.11 34,81.67 34,81.67 C 34,80.87 34.65,80.22 35.44,80.22 Z M 36.89,80.22 L 39.78,80.22 39.78,83.11 36.89,83.11 36.89,80.22 Z M 39.78,80.22 L 41.22,80.22 41.22,80.22 C 42.02,80.22 42.67,80.87 42.67,81.67 L 42.67,81.67 42.67,81.67 C 42.67,82.46 42.02,83.11 41.22,83.11 L 39.78,83.11 39.78,80.22 Z M 49.89,80.22 L 49.89,80.22 49.89,80.22 C 50.69,80.22 51.33,80.87 51.33,81.67 L 51.33,81.67 51.33,81.67 C 51.33,82.46 50.69,83.11 49.89,83.11 L 49.89,83.11 49.89,83.11 C 49.09,83.11 48.44,82.46 48.44,81.67 L 48.44,81.67 48.44,81.67 C 48.44,80.87 49.09,80.22 49.89,80.22 Z M 54.22,81.67 L 54.22,80.22 52.78,80.22 52.78,80.22 C 53.58,80.22 54.22,80.87 54.22,81.67 Z M 52.78,83.11 L 54.22,83.11 54.22,81.67 54.22,81.67 C 54.22,82.46 53.58,83.11 52.78,83.11 Z M 54.22,80.22 L 57.11,80.22 57.11,83.11 54.22,83.11 54.22,80.22 Z M 57.11,80.22 L 60,80.22 60,83.11 57.11,83.11 57.11,80.22 Z M 60,80.22 L 61.44,80.22 61.44,80.22 C 62.24,80.22 62.89,80.87 62.89,81.67 L 62.89,83.11 60,83.11 60,80.22 Z M 67.22,80.22 L 67.22,80.22 67.22,80.22 C 68.02,80.22 68.67,80.87 68.67,81.67 L 68.67,83.11 65.78,83.11 65.78,81.67 65.78,81.67 C 65.78,80.87 66.42,80.22 67.22,80.22 Z M 71.56,80.22 L 74.44,80.22 74.44,83.11 71.56,83.11 71.56,80.22 Z M 74.44,81.67 L 74.44,83.11 75.89,83.11 75.89,83.11 C 75.09,83.11 74.44,82.46 74.44,81.67 Z M 81.67,83.11 L 83.11,83.11 83.11,81.67 83.11,81.67 C 83.11,82.46 82.46,83.11 81.67,83.11 Z M 83.11,80.22 L 86,80.22 86,83.11 83.11,83.11 83.11,80.22 Z M 87.44,80.22 L 86,80.22 86,81.67 86,81.67 C 86,80.87 86.65,80.22 87.44,80.22 Z M 91.78,81.67 L 91.78,80.22 90.33,80.22 90.33,80.22 C 91.13,80.22 91.78,80.87 91.78,81.67 Z M 91.78,80.22 L 94.67,80.22 94.67,83.11 93.22,83.11 93.22,83.11 C 92.42,83.11 91.78,82.46 91.78,81.67 L 91.78,80.22 Z M 94.67,80.22 L 96.11,80.22 96.11,80.22 C 96.91,80.22 97.56,80.87 97.56,81.67 L 97.56,81.67 97.56,81.67 C 97.56,82.46 96.91,83.11 96.11,83.11 L 94.67,83.11 94.67,80.22 Z M 2.22,83.11 L 5.11,83.11 5.11,86 2.22,86 2.22,83.11 Z M 9.44,83.11 L 10.89,83.11 10.89,86 8,86 8,84.56 8,84.56 C 8,83.76 8.65,83.11 9.44,83.11 Z M 10.89,83.11 L 13.78,83.11 13.78,86 10.89,86 10.89,83.11 Z M 13.78,83.11 L 15.22,83.11 15.22,83.11 C 16.02,83.11 16.67,83.76 16.67,84.56 L 16.67,86 13.78,86 13.78,83.11 Z M 19.56,83.11 L 22.44,83.11 22.44,86 19.56,86 19.56,83.11 Z M 25.33,83.11 L 28.22,83.11 28.22,86 26.78,86 26.78,86 C 25.98,86 25.33,85.35 25.33,84.56 L 25.33,83.11 Z M 28.22,83.11 L 29.67,83.11 29.67,83.11 C 30.46,83.11 31.11,83.76 31.11,84.56 L 31.11,86 28.22,86 28.22,83.11 Z M 34,83.11 L 36.89,83.11 36.89,86 34,86 34,83.11 Z M 38.33,83.11 L 36.89,83.11 36.89,84.56 36.89,84.56 C 36.89,83.76 37.54,83.11 38.33,83.11 Z M 44.11,83.11 L 44.11,83.11 44.11,83.11 C 44.91,83.11 45.56,83.76 45.56,84.56 L 45.56,84.56 45.56,84.56 C 45.56,85.35 44.91,86 44.11,86 L 44.11,86 44.11,86 C 43.31,86 42.67,85.35 42.67,84.56 L 42.67,84.56 42.67,84.56 C 42.67,83.76 43.31,83.11 44.11,83.11 Z M 52.78,83.11 L 54.22,83.11 54.22,86 52.78,86 52.78,86 C 51.98,86 51.33,85.35 51.33,84.56 L 51.33,84.56 51.33,84.56 C 51.33,83.76 51.98,83.11 52.78,83.11 Z M 54.22,83.11 L 57.11,83.11 57.11,86 54.22,86 54.22,83.11 Z M 57.11,83.11 L 60,83.11 60,86 57.11,86 57.11,83.11 Z M 60,83.11 L 62.89,83.11 62.89,86 60,86 60,83.11 Z M 62.89,84.56 L 62.89,86 64.33,86 64.33,86 C 63.54,86 62.89,85.35 62.89,84.56 Z M 65.78,83.11 L 68.67,83.11 68.67,84.56 68.67,84.56 C 68.67,85.35 68.02,86 67.22,86 L 67.22,86 67.22,86 C 66.42,86 65.78,85.35 65.78,84.56 L 65.78,83.11 Z M 70.11,86 L 71.56,86 71.56,84.56 71.56,84.56 C 71.56,85.35 70.91,86 70.11,86 Z M 71.56,83.11 L 74.44,83.11 74.44,86 71.56,86 71.56,83.11 Z M 74.44,83.11 L 77.33,83.11 77.33,86 74.44,86 74.44,83.11 Z M 77.33,83.11 L 80.22,83.11 80.22,86 77.33,86 77.33,83.11 Z M 80.22,83.11 L 83.11,83.11 83.11,86 80.22,86 80.22,83.11 Z M 83.11,83.11 L 86,83.11 86,86 83.11,86 83.11,83.11 Z M 86,84.56 L 86,86 87.44,86 87.44,86 C 86.65,86 86,85.35 86,84.56 Z M 2.22,86 L 5.11,86 5.11,88.89 2.22,88.89 2.22,86 Z M 8,86 L 10.89,86 10.89,88.89 8,88.89 8,86 Z M 10.89,86 L 13.78,86 13.78,88.89 10.89,88.89 10.89,86 Z M 13.78,86 L 16.67,86 16.67,88.89 13.78,88.89 13.78,86 Z M 19.56,86 L 22.44,86 22.44,88.89 19.56,88.89 19.56,86 Z M 28.22,87.44 L 28.22,86 26.78,86 26.78,86 C 27.58,86 28.22,86.65 28.22,87.44 Z M 28.22,86 L 31.11,86 31.11,87.44 31.11,87.44 C 31.11,88.24 30.46,88.89 29.67,88.89 L 29.67,88.89 29.67,88.89 C 28.87,88.89 28.22,88.24 28.22,87.44 L 28.22,86 Z M 34,86 L 36.89,86 36.89,87.44 36.89,87.44 C 36.89,88.24 36.24,88.89 35.44,88.89 L 35.44,88.89 35.44,88.89 C 34.65,88.89 34,88.24 34,87.44 L 34,86 Z M 41.22,86 L 41.22,86 41.22,86 C 42.02,86 42.67,86.65 42.67,87.44 L 42.67,88.89 39.78,88.89 39.78,87.44 39.78,87.44 C 39.78,86.65 40.42,86 41.22,86 Z M 47,86 L 47,86 47,86 C 47.8,86 48.44,86.65 48.44,87.44 L 48.44,88.89 45.56,88.89 45.56,87.44 45.56,87.44 C 45.56,86.65 46.2,86 47,86 Z M 48.44,87.44 L 48.44,88.89 49.89,88.89 49.89,88.89 C 49.09,88.89 48.44,88.24 48.44,87.44 Z M 54.22,87.44 L 54.22,86 52.78,86 52.78,86 C 53.58,86 54.22,86.65 54.22,87.44 Z M 52.78,88.89 L 54.22,88.89 54.22,87.44 54.22,87.44 C 54.22,88.24 53.58,88.89 52.78,88.89 Z M 54.22,86 L 57.11,86 57.11,88.89 54.22,88.89 54.22,86 Z M 57.11,86 L 60,86 60,88.89 57.11,88.89 57.11,86 Z M 60,86 L 62.89,86 62.89,88.89 60,88.89 60,86 Z M 62.89,86 L 64.33,86 64.33,86 C 65.13,86 65.78,86.65 65.78,87.44 L 65.78,87.44 65.78,87.44 C 65.78,88.24 65.13,88.89 64.33,88.89 L 62.89,88.89 62.89,86 Z M 70.11,86 L 71.56,86 71.56,88.89 68.67,88.89 68.67,87.44 68.67,87.44 C 68.67,86.65 69.31,86 70.11,86 Z M 71.56,86 L 74.44,86 74.44,87.44 74.44,87.44 C 74.44,88.24 73.8,88.89 73,88.89 L 71.56,88.89 71.56,86 Z M 75.89,86 L 74.44,86 74.44,87.44 74.44,87.44 C 74.44,86.65 75.09,86 75.89,86 Z M 77.33,87.44 L 77.33,86 75.89,86 75.89,86 C 76.69,86 77.33,86.65 77.33,87.44 Z M 75.89,88.89 L 77.33,88.89 77.33,87.44 77.33,87.44 C 77.33,88.24 76.69,88.89 75.89,88.89 Z M 77.33,86 L 80.22,86 80.22,88.89 77.33,88.89 77.33,86 Z M 80.22,86 L 83.11,86 83.11,88.89 80.22,88.89 80.22,86 Z M 83.11,86 L 86,86 86,88.89 83.11,88.89 83.11,86 Z M 86,86 L 87.44,86 87.44,86 C 88.24,86 88.89,86.65 88.89,87.44 L 88.89,88.89 86,88.89 86,86 Z M 88.89,87.44 L 88.89,88.89 90.33,88.89 90.33,88.89 C 89.54,88.89 88.89,88.24 88.89,87.44 Z M 96.11,86 L 96.11,86 96.11,86 C 96.91,86 97.56,86.65 97.56,87.44 L 97.56,87.44 97.56,87.44 C 97.56,88.24 96.91,88.89 96.11,88.89 L 96.11,88.89 96.11,88.89 C 95.31,88.89 94.67,88.24 94.67,87.44 L 94.67,87.44 94.67,87.44 C 94.67,86.65 95.31,86 96.11,86 Z M 2.22,88.89 L 5.11,88.89 5.11,91.78 2.22,91.78 2.22,88.89 Z M 8,88.89 L 10.89,88.89 10.89,91.78 9.44,91.78 9.44,91.78 C 8.65,91.78 8,91.13 8,90.33 L 8,88.89 Z M 10.89,88.89 L 13.78,88.89 13.78,91.78 10.89,91.78 10.89,88.89 Z M 13.78,88.89 L 16.67,88.89 16.67,90.33 16.67,90.33 C 16.67,91.13 16.02,91.78 15.22,91.78 L 13.78,91.78 13.78,88.89 Z M 19.56,88.89 L 22.44,88.89 22.44,91.78 19.56,91.78 19.56,88.89 Z M 32.56,88.89 L 32.56,88.89 32.56,88.89 C 33.35,88.89 34,89.54 34,90.33 L 34,91.78 31.11,91.78 31.11,90.33 31.11,90.33 C 31.11,89.54 31.76,88.89 32.56,88.89 Z M 39.78,88.89 L 42.67,88.89 42.67,90.33 42.67,90.33 C 42.67,91.13 42.02,91.78 41.22,91.78 L 41.22,91.78 41.22,91.78 C 40.42,91.78 39.78,91.13 39.78,90.33 L 39.78,88.89 Z M 45.56,88.89 L 48.44,88.89 48.44,91.78 47,91.78 47,91.78 C 46.2,91.78 45.56,91.13 45.56,90.33 L 45.56,88.89 Z M 48.44,88.89 L 51.33,88.89 51.33,91.78 48.44,91.78 48.44,88.89 Z M 51.33,88.89 L 54.22,88.89 54.22,91.78 51.33,91.78 51.33,88.89 Z M 54.22,88.89 L 57.11,88.89 57.11,90.33 57.11,90.33 C 57.11,91.13 56.46,91.78 55.67,91.78 L 54.22,91.78 54.22,88.89 Z M 58.56,88.89 L 57.11,88.89 57.11,90.33 57.11,90.33 C 57.11,89.54 57.76,88.89 58.56,88.89 Z M 68.67,88.89 L 71.56,88.89 71.56,90.33 71.56,90.33 C 71.56,91.13 70.91,91.78 70.11,91.78 L 70.11,91.78 70.11,91.78 C 69.31,91.78 68.67,91.13 68.67,90.33 L 68.67,88.89 Z M 73,88.89 L 71.56,88.89 71.56,90.33 71.56,90.33 C 71.56,89.54 72.2,88.89 73,88.89 Z M 73,91.78 L 74.44,91.78 74.44,90.33 74.44,90.33 C 74.44,91.13 73.8,91.78 73,91.78 Z M 75.89,88.89 L 77.33,88.89 77.33,91.78 74.44,91.78 74.44,90.33 74.44,90.33 C 74.44,89.54 75.09,88.89 75.89,88.89 Z M 77.33,88.89 L 80.22,88.89 80.22,90.33 80.22,90.33 C 80.22,91.13 79.58,91.78 78.78,91.78 L 77.33,91.78 77.33,88.89 Z M 81.67,88.89 L 80.22,88.89 80.22,90.33 80.22,90.33 C 80.22,89.54 80.87,88.89 81.67,88.89 Z M 83.11,90.33 L 83.11,88.89 81.67,88.89 81.67,88.89 C 82.46,88.89 83.11,89.54 83.11,90.33 Z M 81.67,91.78 L 83.11,91.78 83.11,90.33 83.11,90.33 C 83.11,91.13 82.46,91.78 81.67,91.78 Z M 83.11,88.89 L 86,88.89 86,91.78 83.11,91.78 83.11,88.89 Z M 86,88.89 L 88.89,88.89 88.89,91.78 86,91.78 86,88.89 Z M 88.89,88.89 L 90.33,88.89 90.33,88.89 C 91.13,88.89 91.78,89.54 91.78,90.33 L 91.78,91.78 88.89,91.78 88.89,88.89 Z M 2.22,91.78 L 5.11,91.78 5.11,94.67 2.22,94.67 2.22,91.78 Z M 5.11,93.22 L 5.11,94.67 6.56,94.67 6.56,94.67 C 5.76,94.67 5.11,94.02 5.11,93.22 Z M 18.11,94.67 L 19.56,94.67 19.56,93.22 19.56,93.22 C 19.56,94.02 18.91,94.67 18.11,94.67 Z M 19.56,91.78 L 22.44,91.78 22.44,94.67 19.56,94.67 19.56,91.78 Z M 31.11,91.78 L 34,91.78 34,93.22 34,93.22 C 34,94.02 33.35,94.67 32.56,94.67 L 32.56,94.67 32.56,94.67 C 31.76,94.67 31.11,94.02 31.11,93.22 L 31.11,91.78 Z M 38.33,91.78 L 38.33,91.78 38.33,91.78 C 39.13,91.78 39.78,92.42 39.78,93.22 L 39.78,94.67 36.89,94.67 36.89,93.22 36.89,93.22 C 36.89,92.42 37.54,91.78 38.33,91.78 Z M 39.78,93.22 L 39.78,94.67 41.22,94.67 41.22,94.67 C 40.42,94.67 39.78,94.02 39.78,93.22 Z M 48.44,93.22 L 48.44,91.78 47,91.78 47,91.78 C 47.8,91.78 48.44,92.42 48.44,93.22 Z M 47,94.67 L 48.44,94.67 48.44,93.22 48.44,93.22 C 48.44,94.02 47.8,94.67 47,94.67 Z M 48.44,91.78 L 51.33,91.78 51.33,94.67 48.44,94.67 48.44,91.78 Z M 52.78,91.78 L 51.33,91.78 51.33,93.22 51.33,93.22 C 51.33,92.42 51.98,91.78 52.78,91.78 Z M 58.56,91.78 L 60,91.78 60,94.67 57.11,94.67 57.11,93.22 57.11,93.22 C 57.11,92.42 57.76,91.78 58.56,91.78 Z M 60,91.78 L 62.89,91.78 62.89,94.67 60,94.67 60,91.78 Z M 62.89,91.78 L 64.33,91.78 64.33,91.78 C 65.13,91.78 65.78,92.42 65.78,93.22 L 65.78,94.67 62.89,94.67 62.89,91.78 Z M 65.78,93.22 L 65.78,94.67 67.22,94.67 67.22,94.67 C 66.42,94.67 65.78,94.02 65.78,93.22 Z M 70.11,94.67 L 71.56,94.67 71.56,93.22 71.56,93.22 C 71.56,94.02 70.91,94.67 70.11,94.67 Z M 73,91.78 L 74.44,91.78 74.44,94.67 71.56,94.67 71.56,93.22 71.56,93.22 C 71.56,92.42 72.2,91.78 73,91.78 Z M 74.44,91.78 L 77.33,91.78 77.33,93.22 77.33,93.22 C 77.33,94.02 76.69,94.67 75.89,94.67 L 74.44,94.67 74.44,91.78 Z M 78.78,91.78 L 77.33,91.78 77.33,93.22 77.33,93.22 C 77.33,92.42 77.98,91.78 78.78,91.78 Z M 78.78,94.67 L 80.22,94.67 80.22,93.22 80.22,93.22 C 80.22,94.02 79.58,94.67 78.78,94.67 Z M 81.67,91.78 L 83.11,91.78 83.11,94.67 80.22,94.67 80.22,93.22 80.22,93.22 C 80.22,92.42 80.87,91.78 81.67,91.78 Z M 83.11,91.78 L 86,91.78 86,93.22 86,93.22 C 86,94.02 85.35,94.67 84.56,94.67 L 83.11,94.67 83.11,91.78 Z M 87.44,91.78 L 86,91.78 86,93.22 86,93.22 C 86,92.42 86.65,91.78 87.44,91.78 Z M 88.89,93.22 L 88.89,91.78 87.44,91.78 87.44,91.78 C 88.24,91.78 88.89,92.42 88.89,93.22 Z M 88.89,91.78 L 91.78,91.78 91.78,94.67 88.89,94.67 88.89,91.78 Z M 2.22,94.67 L 5.11,94.67 5.11,97.56 3.67,97.56 3.67,97.56 C 2.87,97.56 2.22,96.91 2.22,96.11 L 2.22,94.67 Z M 5.11,94.67 L 8,94.67 8,97.56 5.11,97.56 5.11,94.67 Z M 8,94.67 L 10.89,94.67 10.89,97.56 8,97.56 8,94.67 Z M 10.89,94.67 L 13.78,94.67 13.78,97.56 10.89,97.56 10.89,94.67 Z M 13.78,94.67 L 16.67,94.67 16.67,97.56 13.78,97.56 13.78,94.67 Z M 16.67,94.67 L 19.56,94.67 19.56,97.56 16.67,97.56 16.67,94.67 Z M 19.56,94.67 L 22.44,94.67 22.44,96.11 22.44,96.11 C 22.44,96.91 21.8,97.56 21,97.56 L 19.56,97.56 19.56,94.67 Z M 36.89,94.67 L 39.78,94.67 39.78,97.56 38.33,97.56 38.33,97.56 C 37.54,97.56 36.89,96.91 36.89,96.11 L 36.89,94.67 Z M 39.78,94.67 L 41.22,94.67 41.22,94.67 C 42.02,94.67 42.67,95.31 42.67,96.11 L 42.67,96.11 42.67,96.11 C 42.67,96.91 42.02,97.56 41.22,97.56 L 39.78,97.56 39.78,94.67 Z M 47,94.67 L 48.44,94.67 48.44,97.56 47,97.56 47,97.56 C 46.2,97.56 45.56,96.91 45.56,96.11 L 45.56,96.11 45.56,96.11 C 45.56,95.31 46.2,94.67 47,94.67 Z M 48.44,94.67 L 51.33,94.67 51.33,96.11 51.33,96.11 C 51.33,96.91 50.69,97.56 49.89,97.56 L 48.44,97.56 48.44,94.67 Z M 57.11,94.67 L 60,94.67 60,96.11 60,96.11 C 60,96.91 59.35,97.56 58.56,97.56 L 58.56,97.56 58.56,97.56 C 57.76,97.56 57.11,96.91 57.11,96.11 L 57.11,94.67 Z M 61.44,94.67 L 60,94.67 60,96.11 60,96.11 C 60,95.31 60.65,94.67 61.44,94.67 Z M 62.89,96.11 L 62.89,94.67 61.44,94.67 61.44,94.67 C 62.24,94.67 62.89,95.31 62.89,96.11 Z M 62.89,94.67 L 65.78,94.67 65.78,97.56 64.33,97.56 64.33,97.56 C 63.54,97.56 62.89,96.91 62.89,96.11 L 62.89,94.67 Z M 65.78,94.67 L 68.67,94.67 68.67,97.56 65.78,97.56 65.78,94.67 Z M 68.67,94.67 L 71.56,94.67 71.56,97.56 68.67,97.56 68.67,94.67 Z M 71.56,94.67 L 74.44,94.67 74.44,96.11 74.44,96.11 C 74.44,96.91 73.8,97.56 73,97.56 L 71.56,97.56 71.56,94.67 Z M 75.89,94.67 L 74.44,94.67 74.44,96.11 74.44,96.11 C 74.44,95.31 75.09,94.67 75.89,94.67 Z M 78.78,94.67 L 80.22,94.67 80.22,97.56 78.78,97.56 78.78,97.56 C 77.98,97.56 77.33,96.91 77.33,96.11 L 77.33,96.11 77.33,96.11 C 77.33,95.31 77.98,94.67 78.78,94.67 Z M 80.22,94.67 L 83.11,94.67 83.11,96.11 83.11,96.11 C 83.11,96.91 82.46,97.56 81.67,97.56 L 80.22,97.56 80.22,94.67 Z M 84.56,94.67 L 83.11,94.67 83.11,96.11 83.11,96.11 C 83.11,95.31 83.76,94.67 84.56,94.67 Z M 88.89,94.67 L 91.78,94.67 91.78,96.11 91.78,96.11 C 91.78,96.91 91.13,97.56 90.33,97.56 L 90.33,97.56 90.33,97.56 C 89.54,97.56 88.89,96.91 88.89,96.11 L 88.89,94.67 Z M 96.11,94.67 L 96.11,94.67 96.11,94.67 C 96.91,94.67 97.56,95.31 97.56,96.11 L 97.56,96.11 97.56,96.11 C 97.56,96.91 96.91,97.56 96.11,97.56 L 96.11,97.56 96.11,97.56 C 95.31,97.56 94.67,96.91 94.67,96.11 L 94.67,96.11 94.67,96.11 C 94.67,95.31 95.31,94.67 96.11,94.67 Z M 96.11,94.67" />
    </g>
    <g id="identity-group2" transform="translate(35, 35) scale(1.88, 1.88)" >
        <rect id="identity-rectangle2" stroke="rgb(255, 249, 229)" stroke-width="2" fill="rgb(255, 168, 0)" x="1" y="1" width="14" height="14" rx="7" />
        <g id="identity-group3">
            <path id="identity-bezier2" stroke="rgb(255, 249, 229)" stroke-linecap="round" stroke-linejoin="bevel" stroke-miterlimit="10" fill="none" d="M 8,5 L 8,11" />
            <path id="identity-bezier3" stroke="rgb(255, 249, 229)" stroke-linecap="round" stroke-linejoin="bevel" stroke-miterlimit="10" fill="none" d="M 5,8 L 11,8" />
        </g>
    </g>
</svg>
