<?xml version="1.0" encoding="UTF-8"?>
<!DOCTYPE svg PUBLIC "-//W3C//DTD SVG 1.1//EN" "http://www.w3.org/Graphics/SVG/1.1/DTD/svg11.dtd">
<svg version="1.1" xmlns="http://www.w3.org/2000/svg" xmlns:xlink="http://www.w3.org/1999/xlink" width="100" height="100"  xml:space="preserve" id="identity">
    <!-- Generated by PaintCode (www.paintcodeapp.com) -->
    <rect id="identity-background" stroke="none" fill="rgb(255, 249, 229)" x="0" y="0" width="100" height="100" />
    <g id="identity-group" transform="" >
        <path id="identity-bezier" stroke="none" fill="rgb(255, 128, 0)" d="M 4.88,3 L 6.76,3 6.76,6.76 3,6.76 3,4.88 3,4.88 C 3,3.84 3.84,3 4.88,3 Z M 6.76,3 L 10.52,3 10.52,6.76 6.76,6.76 6.76,3 Z M 10.52,3 L 14.28,3 14.28,6.76 10.52,6.76 10.52,3 Z M 14.28,3 L 18.04,3 18.04,6.76 14.28,6.76 14.28,3 Z M 18.04,3 L 21.8,3 21.8,6.76 18.04,6.76 18.04,3 Z M 21.8,3 L 25.56,3 25.56,6.76 21.8,6.76 21.8,3 Z M 25.56,3 L 27.44,3 27.44,3 C 28.48,3 29.32,3.84 29.32,4.88 L 29.32,6.76 25.56,6.76 25.56,3 Z M 46.24,3 L 48.12,3 48.12,6.76 46.24,6.76 46.24,6.76 C 45.2,6.76 44.36,5.92 44.36,4.88 L 44.36,4.88 44.36,4.88 C 44.36,3.84 45.2,3 46.24,3 Z M 48.12,3 L 50,3 50,3 C 51.04,3 51.88,3.84 51.88,4.88 L 51.88,6.76 48.12,6.76 48.12,3 Z M 51.88,4.88 L 51.88,6.76 53.76,6.76 53.76,6.76 C 52.72,6.76 51.88,5.92 51.88,4.88 Z M 61.28,3 L 61.28,3 61.28,3 C 62.32,3 63.16,3.84 63.16,4.88 L 63.16,4.88 63.16,4.88 C 63.16,5.92 62.32,6.76 61.28,6.76 L 61.28,6.76 61.28,6.76 C 60.24,6.76 59.4,5.92 59.4,4.88 L 59.4,4.88 59.4,4.88 C 59.4,3.84 60.24,3 61.28,3 Z M 72.56,3 L 74.44,3 74.44,6.76 70.68,6.76 70.68,4.88 70.68,4.88 C 70.68,3.84 71.52,3 72.56,3 Z M 74.44,3 L 78.2,3 78.2,6.76 74.44,6.76 74.44,3 Z M 78.2,3 L 81.96,3 81.96,6.76 78.2,6.76 78.2,3 Z M 81.96,3 L 85.72,3 85.72,6.76 81.96,6.76 81.96,3 Z M 85.72,3 L 89.48,3 89.48,6.76 85.72,6.76 85.72,3 Z M 89.48,3 L 93.24,3 93.24,6.76 89.48,6.76 89.48,3 Z M 93.24,3 L 95.12,3 95.12,3 C 96.16,3 97,3.84 97,4.88 L 97,6.76 93.24,6.76 93.24,3 Z M 3,6.76 L 6.76,6.76 6.76,10.52 3,10.52 3,6.76 Z M 8.64,6.76 L 6.76,6.76 6.76,8.64 6.76,8.64 C 6.76,7.6 7.6,6.76 8.64,6.76 Z M 25.56,8.64 L 25.56,6.76 23.68,6.76 23.68,6.76 C 24.72,6.76 25.56,7.6 25.56,8.64 Z M 25.56,6.76 L 29.32,6.76 29.32,10.52 25.56,10.52 25.56,6.76 Z M 34.96,6.76 L 36.84,6.76 36.84,10.52 34.96,10.52 34.96,10.52 C 33.92,10.52 33.08,9.68 33.08,8.64 L 33.08,8.64 33.08,8.64 C 33.08,7.6 33.92,6.76 34.96,6.76 Z M 36.84,6.76 L 38.72,6.76 38.72,6.76 C 39.76,6.76 40.6,7.6 40.6,8.64 L 40.6,8.64 40.6,8.64 C 40.6,9.68 39.76,10.52 38.72,10.52 L 36.84,10.52 36.84,6.76 Z M 48.12,8.64 L 48.12,6.76 46.24,6.76 46.24,6.76 C 47.28,6.76 48.12,7.6 48.12,8.64 Z M 48.12,6.76 L 51.88,6.76 51.88,10.52 50,10.52 50,10.52 C 48.96,10.52 48.12,9.68 48.12,8.64 L 48.12,6.76 Z M 51.88,6.76 L 53.76,6.76 53.76,6.76 C 54.8,6.76 55.64,7.6 55.64,8.64 L 55.64,8.64 55.64,8.64 C 55.64,9.68 54.8,10.52 53.76,10.52 L 51.88,10.52 51.88,6.76 Z M 61.28,10.52 L 63.16,10.52 63.16,8.64 63.16,8.64 C 63.16,9.68 62.32,10.52 61.28,10.52 Z M 65.04,6.76 L 65.04,6.76 65.04,6.76 C 66.08,6.76 66.92,7.6 66.92,8.64 L 66.92,10.52 63.16,10.52 63.16,8.64 63.16,8.64 C 63.16,7.6 64,6.76 65.04,6.76 Z M 70.68,6.76 L 74.44,6.76 74.44,10.52 70.68,10.52 70.68,6.76 Z M 76.32,6.76 L 74.44,6.76 74.44,8.64 74.44,8.64 C 74.44,7.6 75.28,6.76 76.32,6.76 Z M 93.24,8.64 L 93.24,6.76 91.36,6.76 91.36,6.76 C 92.4,6.76 93.24,7.6 93.24,8.64 Z M 93.24,6.76 L 97,6.76 97,10.52 93.24,10.52 93.24,6.76 Z M 3,10.52 L 6.76,10.52 6.76,14.28 3,14.28 3,10.52 Z M 12.4,10.52 L 14.28,10.52 14.28,14.28 10.52,14.28 10.52,12.4 10.52,12.4 C 10.52,11.36 11.36,10.52 12.4,10.52 Z M 14.28,10.52 L 18.04,10.52 18.04,14.28 14.28,14.28 14.28,10.52 Z M 18.04,10.52 L 19.92,10.52 19.92,10.52 C 20.96,10.52 21.8,11.36 21.8,12.4 L 21.8,14.28 18.04,14.28 18.04,10.52 Z M 25.56,10.52 L 29.32,10.52 29.32,14.28 25.56,14.28 25.56,10.52 Z M 57.52,10.52 L 59.4,10.52 59.4,14.28 57.52,14.28 57.52,14.28 C 56.48,14.28 55.64,13.44 55.64,12.4 L 55.64,12.4 55.64,12.4 C 55.64,11.36 56.48,10.52 57.52,10.52 Z M 59.4,10.52 L 63.16,10.52 63.16,14.28 59.4,14.28 59.4,10.52 Z M 63.16,10.52 L 66.92,10.52 66.92,14.28 63.16,14.28 63.16,10.52 Z M 70.68,10.52 L 74.44,10.52 74.44,14.28 70.68,14.28 70.68,10.52 Z M 80.08,10.52 L 81.96,10.52 81.96,14.28 78.2,14.28 78.2,12.4 78.2,12.4 C 78.2,11.36 79.04,10.52 80.08,10.52 Z M 81.96,10.52 L 85.72,10.52 85.72,14.28 81.96,14.28 81.96,10.52 Z M 85.72,10.52 L 87.6,10.52 87.6,10.52 C 88.64,10.52 89.48,11.36 89.48,12.4 L 89.48,14.28 85.72,14.28 85.72,10.52 Z M 93.24,10.52 L 97,10.52 97,14.28 93.24,14.28 93.24,10.52 Z M 3,14.28 L 6.76,14.28 6.76,18.04 3,18.04 3,14.28 Z M 10.52,14.28 L 14.28,14.28 14.28,18.04 10.52,18.04 10.52,14.28 Z M 14.28,14.28 L 18.04,14.28 18.04,18.04 14.28,18.04 14.28,14.28 Z M 18.04,14.28 L 21.8,14.28 21.8,18.04 18.04,18.04 18.04,14.28 Z M 25.56,14.28 L 29.32,14.28 29.32,18.04 25.56,18.04 25.56,14.28 Z M 42.48,14.28 L 42.48,14.28 42.48,14.28 C 43.52,14.28 44.36,15.12 44.36,16.16 L 44.36,16.16 44.36,16.16 C 44.36,17.2 43.52,18.04 42.48,18.04 L 42.48,18.04 42.48,18.04 C 41.44,18.04 40.6,17.2 40.6,16.16 L 40.6,16.16 40.6,16.16 C 40.6,15.12 41.44,14.28 42.48,14.28 Z M 50,14.28 L 51.88,14.28 51.88,18.04 50,18.04 50,18.04 C 48.96,18.04 48.12,17.2 48.12,16.16 L 48.12,16.16 48.12,16.16 C 48.12,15.12 48.96,14.28 50,14.28 Z M 51.88,14.28 L 53.76,14.28 53.76,14.28 C 54.8,14.28 55.64,15.12 55.64,16.16 L 55.64,18.04 51.88,18.04 51.88,14.28 Z M 59.4,16.16 L 59.4,14.28 57.52,14.28 57.52,14.28 C 58.56,14.28 59.4,15.12 59.4,16.16 Z M 59.4,14.28 L 63.16,14.28 63.16,18.04 59.4,18.04 59.4,14.28 Z M 63.16,14.28 L 66.92,14.28 66.92,18.04 63.16,18.04 63.16,14.28 Z M 70.68,14.28 L 74.44,14.28 74.44,18.04 70.68,18.04 70.68,14.28 Z M 78.2,14.28 L 81.96,14.28 81.96,18.04 78.2,18.04 78.2,14.28 Z M 81.96,14.28 L 85.72,14.28 85.72,18.04 81.96,18.04 81.96,14.28 Z M 85.72,14.28 L 89.48,14.28 89.48,18.04 85.72,18.04 85.72,14.28 Z M 93.24,14.28 L 97,14.28 97,18.04 93.24,18.04 93.24,14.28 Z M 3,18.04 L 6.76,18.04 6.76,21.8 3,21.8 3,18.04 Z M 10.52,18.04 L 14.28,18.04 14.28,21.8 12.4,21.8 12.4,21.8 C 11.36,21.8 10.52,20.96 10.52,19.92 L 10.52,18.04 Z M 14.28,18.04 L 18.04,18.04 18.04,21.8 14.28,21.8 14.28,18.04 Z M 18.04,18.04 L 21.8,18.04 21.8,19.92 21.8,19.92 C 21.8,20.96 20.96,21.8 19.92,21.8 L 18.04,21.8 18.04,18.04 Z M 25.56,18.04 L 29.32,18.04 29.32,21.8 25.56,21.8 25.56,18.04 Z M 46.24,18.04 L 46.24,18.04 46.24,18.04 C 47.28,18.04 48.12,18.88 48.12,19.92 L 48.12,19.92 48.12,19.92 C 48.12,20.96 47.28,21.8 46.24,21.8 L 46.24,21.8 46.24,21.8 C 45.2,21.8 44.36,20.96 44.36,19.92 L 44.36,19.92 44.36,19.92 C 44.36,18.88 45.2,18.04 46.24,18.04 Z M 51.88,19.92 L 51.88,18.04 50,18.04 50,18.04 C 51.04,18.04 51.88,18.88 51.88,19.92 Z M 51.88,18.04 L 55.64,18.04 55.64,19.92 55.64,19.92 C 55.64,20.96 54.8,21.8 53.76,21.8 L 53.76,21.8 53.76,21.8 C 52.72,21.8 51.88,20.96 51.88,19.92 L 51.88,18.04 Z M 59.4,18.04 L 63.16,18.04 63.16,21.8 61.28,21.8 61.28,21.8 C 60.24,21.8 59.4,20.96 59.4,19.92 L 59.4,18.04 Z M 63.16,18.04 L 66.92,18.04 66.92,19.92 66.92,19.92 C 66.92,20.96 66.08,21.8 65.04,21.8 L 63.16,21.8 63.16,18.04 Z M 70.68,18.04 L 74.44,18.04 74.44,21.8 70.68,21.8 70.68,18.04 Z M 78.2,18.04 L 81.96,18.04 81.96,21.8 80.08,21.8 80.08,21.8 C 79.04,21.8 78.2,20.96 78.2,19.92 L 78.2,18.04 Z M 81.96,18.04 L 85.72,18.04 85.72,21.8 81.96,21.8 81.96,18.04 Z M 85.72,18.04 L 89.48,18.04 89.48,19.92 89.48,19.92 C 89.48,20.96 88.64,21.8 87.6,21.8 L 85.72,21.8 85.72,18.04 Z M 93.24,18.04 L 97,18.04 97,21.8 93.24,21.8 93.24,18.04 Z M 3,21.8 L 6.76,21.8 6.76,25.56 3,25.56 3,21.8 Z M 6.76,23.68 L 6.76,25.56 8.64,25.56 8.64,25.56 C 7.6,25.56 6.76,24.72 6.76,23.68 Z M 23.68,25.56 L 25.56,25.56 25.56,23.68 25.56,23.68 C 25.56,24.72 24.72,25.56 23.68,25.56 Z M 25.56,21.8 L 29.32,21.8 29.32,25.56 25.56,25.56 25.56,21.8 Z M 34.96,21.8 L 34.96,21.8 34.96,21.8 C 36,21.8 36.84,22.64 36.84,23.68 L 36.84,25.56 33.08,25.56 33.08,23.68 33.08,23.68 C 33.08,22.64 33.92,21.8 34.96,21.8 Z M 42.48,21.8 L 42.48,21.8 42.48,21.8 C 43.52,21.8 44.36,22.64 44.36,23.68 L 44.36,25.56 40.6,25.56 40.6,23.68 40.6,23.68 C 40.6,22.64 41.44,21.8 42.48,21.8 Z M 50,21.8 L 50,21.8 50,21.8 C 51.04,21.8 51.88,22.64 51.88,23.68 L 51.88,25.56 48.12,25.56 48.12,23.68 48.12,23.68 C 48.12,22.64 48.96,21.8 50,21.8 Z M 70.68,21.8 L 74.44,21.8 74.44,25.56 70.68,25.56 70.68,21.8 Z M 74.44,23.68 L 74.44,25.56 76.32,25.56 76.32,25.56 C 75.28,25.56 74.44,24.72 74.44,23.68 Z M 91.36,25.56 L 93.24,25.56 93.24,23.68 93.24,23.68 C 93.24,24.72 92.4,25.56 91.36,25.56 Z M 93.24,21.8 L 97,21.8 97,25.56 93.24,25.56 93.24,21.8 Z M 3,25.56 L 6.76,25.56 6.76,29.32 4.88,29.32 4.88,29.32 C 3.84,29.32 3,28.48 3,27.44 L 3,25.56 Z M 6.76,25.56 L 10.52,25.56 10.52,29.32 6.76,29.32 6.76,25.56 Z M 10.52,25.56 L 14.28,25.56 14.28,29.32 10.52,29.32 10.52,25.56 Z M 14.28,25.56 L 18.04,25.56 18.04,29.32 14.28,29.32 14.28,25.56 Z M 18.04,25.56 L 21.8,25.56 21.8,29.32 18.04,29.32 18.04,25.56 Z M 21.8,25.56 L 25.56,25.56 25.56,29.32 21.8,29.32 21.8,25.56 Z M 25.56,25.56 L 29.32,25.56 29.32,27.44 29.32,27.44 C 29.32,28.48 28.48,29.32 27.44,29.32 L 25.56,29.32 25.56,25.56 Z M 33.08,25.56 L 36.84,25.56 36.84,29.32 33.08,29.32 33.08,25.56 Z M 40.6,25.56 L 44.36,25.56 44.36,27.44 44.36,27.44 C 44.36,28.48 43.52,29.32 42.48,29.32 L 42.48,29.32 42.48,29.32 C 41.44,29.32 40.6,28.48 40.6,27.44 L 40.6,25.56 Z M 48.12,25.56 L 51.88,25.56 51.88,27.44 51.88,27.44 C 51.88,28.48 51.04,29.32 50,29.32 L 50,29.32 50,29.32 C 48.96,29.32 48.12,28.48 48.12,27.44 L 48.12,25.56 Z M 57.52,25.56 L 57.52,25.56 57.52,25.56 C 58.56,25.56 59.4,26.4 59.4,27.44 L 59.4,27.44 59.4,27.44 C 59.4,28.48 58.56,29.32 57.52,29.32 L 57.52,29.32 57.52,29.32 C 56.48,29.32 55.64,28.48 55.64,27.44 L 55.64,27.44 55.64,27.44 C 55.64,26.4 56.48,25.56 57.52,25.56 Z M 65.04,25.56 L 65.04,25.56 65.04,25.56 C 66.08,25.56 66.92,26.4 66.92,27.44 L 66.92,29.32 63.16,29.32 63.16,27.44 63.16,27.44 C 63.16,26.4 64,25.56 65.04,25.56 Z M 70.68,25.56 L 74.44,25.56 74.44,29.32 72.56,29.32 72.56,29.32 C 71.52,29.32 70.68,28.48 70.68,27.44 L 70.68,25.56 Z M 74.44,25.56 L 78.2,25.56 78.2,29.32 74.44,29.32 74.44,25.56 Z M 78.2,25.56 L 81.96,25.56 81.96,29.32 78.2,29.32 78.2,25.56 Z M 81.96,25.56 L 85.72,25.56 85.72,29.32 81.96,29.32 81.96,25.56 Z M 85.72,25.56 L 89.48,25.56 89.48,29.32 85.72,29.32 85.72,25.56 Z M 89.48,25.56 L 93.24,25.56 93.24,29.32 89.48,29.32 89.48,25.56 Z M 93.24,25.56 L 97,25.56 97,27.44 97,27.44 C 97,28.48 96.16,29.32 95.12,29.32 L 93.24,29.32 93.24,25.56 Z M 33.08,29.32 L 36.84,29.32 36.84,31.2 36.84,31.2 C 36.84,32.24 36,33.08 34.96,33.08 L 34.96,33.08 34.96,33.08 C 33.92,33.08 33.08,32.24 33.08,31.2 L 33.08,29.32 Z M 63.16,29.32 L 66.92,29.32 66.92,31.2 66.92,31.2 C 66.92,32.24 66.08,33.08 65.04,33.08 L 65.04,33.08 65.04,33.08 C 64,33.08 63.16,32.24 63.16,31.2 L 63.16,29.32 Z M 16.16,36.84 L 18.04,36.84 18.04,34.96 18.04,34.96 C 18.04,36 17.2,36.84 16.16,36.84 Z M 19.92,33.08 L 21.8,33.08 21.8,36.84 18.04,36.84 18.04,34.96 18.04,34.96 C 18.04,33.92 18.88,33.08 19.92,33.08 Z M 21.8,33.08 L 25.56,33.08 25.56,36.84 21.8,36.84 21.8,33.08 Z M 25.56,33.08 L 29.32,33.08 29.32,36.84 25.56,36.84 25.56,33.08 Z M 29.32,33.08 L 31.2,33.08 31.2,33.08 C 32.24,33.08 33.08,33.92 33.08,34.96 L 33.08,36.84 29.32,36.84 29.32,33.08 Z M 33.08,34.96 L 33.08,36.84 34.96,36.84 34.96,36.84 C 33.92,36.84 33.08,36 33.08,34.96 Z M 46.24,33.08 L 46.24,33.08 46.24,33.08 C 47.28,33.08 48.12,33.92 48.12,34.96 L 48.12,36.84 44.36,36.84 44.36,34.96 44.36,34.96 C 44.36,33.92 45.2,33.08 46.24,33.08 Z M 48.12,34.96 L 48.12,36.84 50,36.84 50,36.84 C 48.96,36.84 48.12,36 48.12,34.96 Z M 53.76,36.84 L 55.64,36.84 55.64,34.96 55.64,34.96 C 55.64,36 54.8,36.84 53.76,36.84 Z M 57.52,33.08 L 59.4,33.08 59.4,36.84 55.64,36.84 55.64,34.96 55.64,34.96 C 55.64,33.92 56.48,33.08 57.52,33.08 Z M 59.4,33.08 L 61.28,33.08 61.28,33.08 C 62.32,33.08 63.16,33.92 63.16,34.96 L 63.16,34.96 63.16,34.96 C 63.16,36 62.32,36.84 61.28,36.84 L 59.4,36.84 59.4,33.08 Z M 72.56,33.08 L 74.44,33.08 74.44,36.84 72.56,36.84 72.56,36.84 C 71.52,36.84 70.68,36 70.68,34.96 L 70.68,34.96 70.68,34.96 C 70.68,33.92 71.52,33.08 72.56,33.08 Z M 74.44,33.08 L 76.32,33.08 76.32,33.08 C 77.36,33.08 78.2,33.92 78.2,34.96 L 78.2,36.84 74.44,36.84 74.44,33.08 Z M 78.2,34.96 L 78.2,36.84 80.08,36.84 80.08,36.84 C 79.04,36.84 78.2,36 78.2,34.96 Z M 91.36,33.08 L 91.36,33.08 91.36,33.08 C 92.4,33.08 93.24,33.92 93.24,34.96 L 93.24,36.84 89.48,36.84 89.48,34.96 89.48,34.96 C 89.48,33.92 90.32,33.08 91.36,33.08 Z M 4.88,36.84 L 6.76,36.84 6.76,40.6 3,40.6 3,38.72 3,38.72 C 3,37.68 3.84,36.84 4.88,36.84 Z M 6.76,36.84 L 10.52,36.84 10.52,40.6 6.76,40.6 6.76,36.84 Z M 10.52,36.84 L 14.28,36.84 14.28,40.6 10.52,40.6 10.52,36.84 Z M 14.28,36.84 L 18.04,36.84 18.04,40.6 14.28,40.6 14.28,36.84 Z M 18.04,36.84 L 21.8,36.84 21.8,40.6 18.04,40.6 18.04,36.84 Z M 21.8,36.84 L 25.56,36.84 25.56,40.6 21.8,40.6 21.8,36.84 Z M 27.44,36.84 L 25.56,36.84 25.56,38.72 25.56,38.72 C 25.56,37.68 26.4,36.84 27.44,36.84 Z M 29.32,38.72 L 29.32,36.84 27.44,36.84 27.44,36.84 C 28.48,36.84 29.32,37.68 29.32,38.72 Z M 25.56,38.72 L 25.56,40.6 27.44,40.6 27.44,40.6 C 26.4,40.6 25.56,39.76 25.56,38.72 Z M 29.32,36.84 L 33.08,36.84 33.08,40.6 31.2,40.6 31.2,40.6 C 30.16,40.6 29.32,39.76 29.32,38.72 L 29.32,36.84 Z M 33.08,36.84 L 34.96,36.84 34.96,36.84 C 36,36.84 36.84,37.68 36.84,38.72 L 36.84,40.6 33.08,40.6 33.08,36.84 Z M 36.84,38.72 L 36.84,40.6 38.72,40.6 38.72,40.6 C 37.68,40.6 36.84,39.76 36.84,38.72 Z M 44.36,36.84 L 48.12,36.84 48.12,40.6 46.24,40.6 46.24,40.6 C 45.2,40.6 44.36,39.76 44.36,38.72 L 44.36,36.84 Z M 48.12,36.84 L 51.88,36.84 51.88,40.6 48.12,40.6 48.12,36.84 Z M 51.88,36.84 L 55.64,36.84 55.64,40.6 51.88,40.6 51.88,36.84 Z M 55.64,36.84 L 59.4,36.84 59.4,38.72 59.4,38.72 C 59.4,39.76 58.56,40.6 57.52,40.6 L 55.64,40.6 55.64,36.84 Z M 61.28,36.84 L 59.4,36.84 59.4,38.72 59.4,38.72 C 59.4,37.68 60.24,36.84 61.28,36.84 Z M 74.44,38.72 L 74.44,36.84 72.56,36.84 72.56,36.84 C 73.6,36.84 74.44,37.68 74.44,38.72 Z M 72.56,40.6 L 74.44,40.6 74.44,38.72 74.44,38.72 C 74.44,39.76 73.6,40.6 72.56,40.6 Z M 74.44,36.84 L 78.2,36.84 78.2,40.6 74.44,40.6 74.44,36.84 Z M 78.2,36.84 L 80.08,36.84 80.08,36.84 C 81.12,36.84 81.96,37.68 81.96,38.72 L 81.96,38.72 81.96,38.72 C 81.96,39.76 81.12,40.6 80.08,40.6 L 78.2,40.6 78.2,36.84 Z M 89.48,36.84 L 93.24,36.84 93.24,38.72 93.24,38.72 C 93.24,39.76 92.4,40.6 91.36,40.6 L 91.36,40.6 91.36,40.6 C 90.32,40.6 89.48,39.76 89.48,38.72 L 89.48,36.84 Z M 3,40.6 L 6.76,40.6 6.76,42.48 6.76,42.48 C 6.76,43.52 5.92,44.36 4.88,44.36 L 4.88,44.36 4.88,44.36 C 3.84,44.36 3,43.52 3,42.48 L 3,40.6 Z M 8.64,40.6 L 6.76,40.6 6.76,42.48 6.76,42.48 C 6.76,41.44 7.6,40.6 8.64,40.6 Z M 10.52,42.48 L 10.52,40.6 8.64,40.6 8.64,40.6 C 9.68,40.6 10.52,41.44 10.52,42.48 Z M 10.52,40.6 L 14.28,40.6 14.28,44.36 10.52,44.36 10.52,40.6 Z M 14.28,40.6 L 18.04,40.6 18.04,44.36 14.28,44.36 14.28,40.6 Z M 18.04,40.6 L 21.8,40.6 21.8,44.36 18.04,44.36 18.04,40.6 Z M 21.8,40.6 L 25.56,40.6 25.56,44.36 21.8,44.36 21.8,40.6 Z M 25.56,40.6 L 27.44,40.6 27.44,40.6 C 28.48,40.6 29.32,41.44 29.32,42.48 L 29.32,42.48 29.32,42.48 C 29.32,43.52 28.48,44.36 27.44,44.36 L 25.56,44.36 25.56,40.6 Z M 33.08,42.48 L 33.08,40.6 31.2,40.6 31.2,40.6 C 32.24,40.6 33.08,41.44 33.08,42.48 Z M 33.08,40.6 L 36.84,40.6 36.84,44.36 33.08,44.36 33.08,40.6 Z M 36.84,40.6 L 38.72,40.6 38.72,40.6 C 39.76,40.6 40.6,41.44 40.6,42.48 L 40.6,44.36 36.84,44.36 36.84,40.6 Z M 51.88,42.48 L 51.88,40.6 50,40.6 50,40.6 C 51.04,40.6 51.88,41.44 51.88,42.48 Z M 51.88,40.6 L 55.64,40.6 55.64,42.48 55.64,42.48 C 55.64,43.52 54.8,44.36 53.76,44.36 L 53.76,44.36 53.76,44.36 C 52.72,44.36 51.88,43.52 51.88,42.48 L 51.88,40.6 Z M 57.52,40.6 L 55.64,40.6 55.64,42.48 55.64,42.48 C 55.64,41.44 56.48,40.6 57.52,40.6 Z M 61.28,44.36 L 63.16,44.36 63.16,42.48 63.16,42.48 C 63.16,43.52 62.32,44.36 61.28,44.36 Z M 65.04,40.6 L 65.04,40.6 65.04,40.6 C 66.08,40.6 66.92,41.44 66.92,42.48 L 66.92,44.36 63.16,44.36 63.16,42.48 63.16,42.48 C 63.16,41.44 64,40.6 65.04,40.6 Z M 72.56,40.6 L 74.44,40.6 74.44,44.36 70.68,44.36 70.68,42.48 70.68,42.48 C 70.68,41.44 71.52,40.6 72.56,40.6 Z M 74.44,40.6 L 78.2,40.6 78.2,42.48 78.2,42.48 C 78.2,43.52 77.36,44.36 76.32,44.36 L 74.44,44.36 74.44,40.6 Z M 80.08,40.6 L 78.2,40.6 78.2,42.48 78.2,42.48 C 78.2,41.44 79.04,40.6 80.08,40.6 Z M 10.52,44.36 L 14.28,44.36 14.28,46.24 14.28,46.24 C 14.28,47.28 13.44,48.12 12.4,48.12 L 12.4,48.12 12.4,48.12 C 11.36,48.12 10.52,47.28 10.52,46.24 L 10.52,44.36 Z M 16.16,44.36 L 14.28,44.36 14.28,46.24 14.28,46.24 C 14.28,45.2 15.12,44.36 16.16,44.36 Z M 18.04,46.24 L 18.04,44.36 16.16,44.36 16.16,44.36 C 17.2,44.36 18.04,45.2 18.04,46.24 Z M 16.16,48.12 L 18.04,48.12 18.04,46.24 18.04,46.24 C 18.04,47.28 17.2,48.12 16.16,48.12 Z M 18.04,44.36 L 21.8,44.36 21.8,48.12 18.04,48.12 18.04,44.36 Z M 21.8,44.36 L 25.56,44.36 25.56,48.12 21.8,48.12 21.8,44.36 Z M 27.44,44.36 L 25.56,44.36 25.56,46.24 25.56,46.24 C 25.56,45.2 26.4,44.36 27.44,44.36 Z M 25.56,46.24 L 25.56,48.12 27.44,48.12 27.44,48.12 C 26.4,48.12 25.56,47.28 25.56,46.24 Z M 33.08,44.36 L 36.84,44.36 36.84,48.12 34.96,48.12 34.96,48.12 C 33.92,48.12 33.08,47.28 33.08,46.24 L 33.08,44.36 Z M 36.84,44.36 L 40.6,44.36 40.6,46.24 40.6,46.24 C 40.6,47.28 39.76,48.12 38.72,48.12 L 36.84,48.12 36.84,44.36 Z M 46.24,44.36 L 46.24,44.36 46.24,44.36 C 47.28,44.36 48.12,45.2 48.12,46.24 L 48.12,46.24 48.12,46.24 C 48.12,47.28 47.28,48.12 46.24,48.12 L 46.24,48.12 46.24,48.12 C 45.2,48.12 44.36,47.28 44.36,46.24 L 44.36,46.24 44.36,46.24 C 44.36,45.2 45.2,44.36 46.24,44.36 Z M 53.76,48.12 L 55.64,48.12 55.64,46.24 55.64,46.24 C 55.64,47.28 54.8,48.12 53.76,48.12 Z M 57.52,44.36 L 59.4,44.36 59.4,48.12 55.64,48.12 55.64,46.24 55.64,46.24 C 55.64,45.2 56.48,44.36 57.52,44.36 Z M 59.4,44.36 L 63.16,44.36 63.16,48.12 59.4,48.12 59.4,44.36 Z M 63.16,44.36 L 66.92,44.36 66.92,48.12 63.16,48.12 63.16,44.36 Z M 68.8,48.12 L 70.68,48.12 70.68,46.24 70.68,46.24 C 70.68,47.28 69.84,48.12 68.8,48.12 Z M 66.92,46.24 L 66.92,48.12 68.8,48.12 68.8,48.12 C 67.76,48.12 66.92,47.28 66.92,46.24 Z M 70.68,44.36 L 74.44,44.36 74.44,48.12 70.68,48.12 70.68,44.36 Z M 76.32,44.36 L 74.44,44.36 74.44,46.24 74.44,46.24 C 74.44,45.2 75.28,44.36 76.32,44.36 Z M 74.44,46.24 L 74.44,48.12 76.32,48.12 76.32,48.12 C 75.28,48.12 74.44,47.28 74.44,46.24 Z M 87.6,44.36 L 87.6,44.36 87.6,44.36 C 88.64,44.36 89.48,45.2 89.48,46.24 L 89.48,48.12 85.72,48.12 85.72,46.24 85.72,46.24 C 85.72,45.2 86.56,44.36 87.6,44.36 Z M 89.48,46.24 L 89.48,48.12 91.36,48.12 91.36,48.12 C 90.32,48.12 89.48,47.28 89.48,46.24 Z M 95.12,44.36 L 95.12,44.36 95.12,44.36 C 96.16,44.36 97,45.2 97,46.24 L 97,46.24 97,46.24 C 97,47.28 96.16,48.12 95.12,48.12 L 95.12,48.12 95.12,48.12 C 94.08,48.12 93.24,47.28 93.24,46.24 L 93.24,46.24 93.24,46.24 C 93.24,45.2 94.08,44.36 95.12,44.36 Z M 4.88,48.12 L 6.76,48.12 6.76,51.88 3,51.88 3,50 3,50 C 3,48.96 3.84,48.12 4.88,48.12 Z M 6.76,48.12 L 8.64,48.12 8.64,48.12 C 9.68,48.12 10.52,48.96 10.52,50 L 10.52,51.88 6.76,51.88 6.76,48.12 Z M 12.4,51.88 L 14.28,51.88 14.28,50 14.28,50 C 14.28,51.04 13.44,51.88 12.4,51.88 Z M 10.52,50 L 10.52,51.88 12.4,51.88 12.4,51.88 C 11.36,51.88 10.52,51.04 10.52,50 Z M 16.16,48.12 L 18.04,48.12 18.04,51.88 14.28,51.88 14.28,50 14.28,50 C 14.28,48.96 15.12,48.12 16.16,48.12 Z M 18.04,48.12 L 21.8,48.12 21.8,51.88 18.04,51.88 18.04,48.12 Z M 21.8,48.12 L 25.56,48.12 25.56,51.88 21.8,51.88 21.8,48.12 Z M 25.56,48.12 L 27.44,48.12 27.44,48.12 C 28.48,48.12 29.32,48.96 29.32,50 L 29.32,50 29.32,50 C 29.32,51.04 28.48,51.88 27.44,51.88 L 25.56,51.88 25.56,48.12 Z M 53.76,48.12 L 55.64,48.12 55.64,51.88 53.76,51.88 53.76,51.88 C 52.72,51.88 51.88,51.04 51.88,50 L 51.88,50 51.88,50 C 51.88,48.96 52.72,48.12 53.76,48.12 Z M 55.64,48.12 L 59.4,48.12 59.4,50 59.4,50 C 59.4,51.04 58.56,51.88 57.52,51.88 L 55.64,51.88 55.64,48.12 Z M 61.28,48.12 L 59.4,48.12 59.4,50 59.4,50 C 59.4,48.96 60.24,48.12 61.28,48.12 Z M 63.16,50 L 63.16,48.12 61.28,48.12 61.28,48.12 C 62.32,48.12 63.16,48.96 63.16,50 Z M 63.16,48.12 L 66.92,48.12 66.92,51.88 65.04,51.88 65.04,51.88 C 64,51.88 63.16,51.04 63.16,50 L 63.16,48.12 Z M 66.92,48.12 L 70.68,48.12 70.68,51.88 66.92,51.88 66.92,48.12 Z M 70.68,48.12 L 74.44,48.12 74.44,51.88 70.68,51.88 70.68,48.12 Z M 74.44,48.12 L 76.32,48.12 76.32,48.12 C 77.36,48.12 78.2,48.96 78.2,50 L 78.2,50 78.2,50 C 78.2,51.04 77.36,51.88 76.32,51.88 L 74.44,51.88 74.44,48.12 Z M 85.72,48.12 L 89.48,48.12 89.48,51.88 87.6,51.88 87.6,51.88 C 86.56,51.88 85.72,51.04 85.72,50 L 85.72,48.12 Z M 89.48,48.12 L 91.36,48.12 91.36,48.12 C 92.4,48.12 93.24,48.96 93.24,50 L 93.24,50 93.24,50 C 93.24,51.04 92.4,51.88 91.36,51.88 L 89.48,51.88 89.48,48.12 Z M 3,51.88 L 6.76,51.88 6.76,55.64 4.88,55.64 4.88,55.64 C 3.84,55.64 3,54.8 3,53.76 L 3,51.88 Z M 6.76,51.88 L 10.52,51.88 10.52,55.64 6.76,55.64 6.76,51.88 Z M 10.52,51.88 L 14.28,51.88 14.28,55.64 10.52,55.64 10.52,51.88 Z M 14.28,51.88 L 18.04,51.88 18.04,53.76 18.04,53.76 C 18.04,54.8 17.2,55.64 16.16,55.64 L 14.28,55.64 14.28,51.88 Z M 19.92,51.88 L 18.04,51.88 18.04,53.76 18.04,53.76 C 18.04,52.72 18.88,51.88 19.92,51.88 Z M 21.8,53.76 L 21.8,51.88 19.92,51.88 19.92,51.88 C 20.96,51.88 21.8,52.72 21.8,53.76 Z M 19.92,55.64 L 21.8,55.64 21.8,53.76 21.8,53.76 C 21.8,54.8 20.96,55.64 19.92,55.64 Z M 21.8,51.88 L 25.56,51.88 25.56,55.64 21.8,55.64 21.8,51.88 Z M 27.44,51.88 L 25.56,51.88 25.56,53.76 25.56,53.76 C 25.56,52.72 26.4,51.88 27.44,51.88 Z M 25.56,53.76 L 25.56,55.64 27.44,55.64 27.44,55.64 C 26.4,55.64 25.56,54.8 25.56,53.76 Z M 31.2,51.88 L 31.2,51.88 31.2,51.88 C 32.24,51.88 33.08,52.72 33.08,53.76 L 33.08,53.76 33.08,53.76 C 33.08,54.8 32.24,55.64 31.2,55.64 L 31.2,55.64 31.2,55.64 C 30.16,55.64 29.32,54.8 29.32,53.76 L 29.32,53.76 29.32,53.76 C 29.32,52.72 30.16,51.88 31.2,51.88 Z M 38.72,51.88 L 40.6,51.88 40.6,55.64 38.72,55.64 38.72,55.64 C 37.68,55.64 36.84,54.8 36.84,53.76 L 36.84,53.76 36.84,53.76 C 36.84,52.72 37.68,51.88 38.72,51.88 Z M 40.6,51.88 L 44.36,51.88 44.36,55.64 40.6,55.64 40.6,51.88 Z M 44.36,51.88 L 48.12,51.88 48.12,55.64 44.36,55.64 44.36,51.88 Z M 48.12,51.88 L 50,51.88 50,51.88 C 51.04,51.88 51.88,52.72 51.88,53.76 L 51.88,55.64 48.12,55.64 48.12,51.88 Z M 66.92,53.76 L 66.92,51.88 65.04,51.88 65.04,51.88 C 66.08,51.88 66.92,52.72 66.92,53.76 Z M 66.92,51.88 L 70.68,51.88 70.68,55.64 66.92,55.64 66.92,51.88 Z M 72.56,51.88 L 70.68,51.88 70.68,53.76 70.68,53.76 C 70.68,52.72 71.52,51.88 72.56,51.88 Z M 76.32,55.64 L 78.2,55.64 78.2,53.76 78.2,53.76 C 78.2,54.8 77.36,55.64 76.32,55.64 Z M 80.08,51.88 L 80.08,51.88 80.08,51.88 C 81.12,51.88 81.96,52.72 81.96,53.76 L 81.96,55.64 78.2,55.64 78.2,53.76 78.2,53.76 C 78.2,52.72 79.04,51.88 80.08,51.88 Z M 19.92,55.64 L 21.8,55.64 21.8,59.4 19.92,59.4 19.92,59.4 C 18.88,59.4 18.04,58.56 18.04,57.52 L 18.04,57.52 18.04,57.52 C 18.04,56.48 18.88,55.64 19.92,55.64 Z M 21.8,55.64 L 25.56,55.64 25.56,59.4 21.8,59.4 21.8,55.64 Z M 25.56,55.64 L 27.44,55.64 27.44,55.64 C 28.48,55.64 29.32,56.48 29.32,57.52 L 29.32,57.52 29.32,57.52 C 29.32,58.56 28.48,59.4 27.44,59.4 L 25.56,59.4 25.56,55.64 Z M 44.36,57.52 L 44.36,55.64 42.48,55.64 42.48,55.64 C 43.52,55.64 44.36,56.48 44.36,57.52 Z M 44.36,55.64 L 48.12,55.64 48.12,59.4 46.24,59.4 46.24,59.4 C 45.2,59.4 44.36,58.56 44.36,57.52 L 44.36,55.64 Z M 48.12,55.64 L 51.88,55.64 51.88,57.52 51.88,57.52 C 51.88,58.56 51.04,59.4 50,59.4 L 48.12,59.4 48.12,55.64 Z M 61.28,55.64 L 61.28,55.64 61.28,55.64 C 62.32,55.64 63.16,56.48 63.16,57.52 L 63.16,59.4 59.4,59.4 59.4,57.52 59.4,57.52 C 59.4,56.48 60.24,55.64 61.28,55.64 Z M 63.16,57.52 L 63.16,59.4 65.04,59.4 65.04,59.4 C 64,59.4 63.16,58.56 63.16,57.52 Z M 66.92,55.64 L 70.68,55.64 70.68,57.52 70.68,57.52 C 70.68,58.56 69.84,59.4 68.8,59.4 L 68.8,59.4 68.8,59.4 C 67.76,59.4 66.92,58.56 66.92,57.52 L 66.92,55.64 Z M 76.32,55.64 L 78.2,55.64 78.2,59.4 76.32,59.4 76.32,59.4 C 75.28,59.4 74.44,58.56 74.44,57.52 L 74.44,57.52 74.44,57.52 C 74.44,56.48 75.28,55.64 76.32,55.64 Z M 78.2,55.64 L 81.96,55.64 81.96,57.52 81.96,57.52 C 81.96,58.56 81.12,59.4 80.08,59.4 L 78.2,59.4 78.2,55.64 Z M 87.6,55.64 L 87.6,55.64 87.6,55.64 C 88.64,55.64 89.48,56.48 89.48,57.52 L 89.48,59.4 85.72,59.4 85.72,57.52 85.72,57.52 C 85.72,56.48 86.56,55.64 87.6,55.64 Z M 89.48,57.52 L 89.48,59.4 91.36,59.4 91.36,59.4 C 90.32,59.4 89.48,58.56 89.48,57.52 Z M 12.4,59.4 L 14.28,59.4 14.28,63.16 12.4,63.16 12.4,63.16 C 11.36,63.16 10.52,62.32 10.52,61.28 L 10.52,61.28 10.52,61.28 C 10.52,60.24 11.36,59.4 12.4,59.4 Z M 14.28,59.4 L 16.16,59.4 16.16,59.4 C 17.2,59.4 18.04,60.24 18.04,61.28 L 18.04,61.28 18.04,61.28 C 18.04,62.32 17.2,63.16 16.16,63.16 L 14.28,63.16 14.28,59.4 Z M 27.44,63.16 L 29.32,63.16 29.32,61.28 29.32,61.28 C 29.32,62.32 28.48,63.16 27.44,63.16 Z M 31.2,59.4 L 33.08,59.4 33.08,63.16 29.32,63.16 29.32,61.28 29.32,61.28 C 29.32,60.24 30.16,59.4 31.2,59.4 Z M 33.08,59.4 L 36.84,59.4 36.84,63.16 33.08,63.16 33.08,59.4 Z M 36.84,59.4 L 40.6,59.4 40.6,63.16 36.84,63.16 36.84,59.4 Z M 40.6,59.4 L 42.48,59.4 42.48,59.4 C 43.52,59.4 44.36,60.24 44.36,61.28 L 44.36,63.16 40.6,63.16 40.6,59.4 Z M 44.36,61.28 L 44.36,63.16 46.24,63.16 46.24,63.16 C 45.2,63.16 44.36,62.32 44.36,61.28 Z M 50,63.16 L 51.88,63.16 51.88,61.28 51.88,61.28 C 51.88,62.32 51.04,63.16 50,63.16 Z M 53.76,59.4 L 53.76,59.4 53.76,59.4 C 54.8,59.4 55.64,60.24 55.64,61.28 L 55.64,63.16 51.88,63.16 51.88,61.28 51.88,61.28 C 51.88,60.24 52.72,59.4 53.76,59.4 Z M 55.64,61.28 L 55.64,63.16 57.52,63.16 57.52,63.16 C 56.48,63.16 55.64,62.32 55.64,61.28 Z M 59.4,59.4 L 63.16,59.4 63.16,63.16 61.28,63.16 61.28,63.16 C 60.24,63.16 59.4,62.32 59.4,61.28 L 59.4,59.4 Z M 63.16,59.4 L 65.04,59.4 65.04,59.4 C 66.08,59.4 66.92,60.24 66.92,61.28 L 66.92,63.16 63.16,63.16 63.16,59.4 Z M 66.92,61.28 L 66.92,63.16 68.8,63.16 68.8,63.16 C 67.76,63.16 66.92,62.32 66.92,61.28 Z M 85.72,59.4 L 89.48,59.4 89.48,63.16 85.72,63.16 85.72,59.4 Z M 89.48,59.4 L 93.24,59.4 93.24,63.16 89.48,63.16 89.48,59.4 Z M 93.24,59.4 L 95.12,59.4 95.12,59.4 C 96.16,59.4 97,60.24 97,61.28 L 97,63.16 93.24,63.16 93.24,59.4 Z M 4.88,63.16 L 6.76,63.16 6.76,66.92 4.88,66.92 4.88,66.92 C 3.84,66.92 3,66.08 3,65.04 L 3,65.04 3,65.04 C 3,64 3.84,63.16 4.88,63.16 Z M 6.76,63.16 L 8.64,63.16 8.64,63.16 C 9.68,63.16 10.52,64 10.52,65.04 L 10.52,65.04 10.52,65.04 C 10.52,66.08 9.68,66.92 8.64,66.92 L 6.76,66.92 6.76,63.16 Z M 23.68,63.16 L 25.56,63.16 25.56,66.92 23.68,66.92 23.68,66.92 C 22.64,66.92 21.8,66.08 21.8,65.04 L 21.8,65.04 21.8,65.04 C 21.8,64 22.64,63.16 23.68,63.16 Z M 25.56,63.16 L 29.32,63.16 29.32,66.92 25.56,66.92 25.56,63.16 Z M 29.32,63.16 L 33.08,63.16 33.08,65.04 33.08,65.04 C 33.08,66.08 32.24,66.92 31.2,66.92 L 29.32,66.92 29.32,63.16 Z M 34.96,63.16 L 33.08,63.16 33.08,65.04 33.08,65.04 C 33.08,64 33.92,63.16 34.96,63.16 Z M 36.84,65.04 L 36.84,63.16 34.96,63.16 34.96,63.16 C 36,63.16 36.84,64 36.84,65.04 Z M 36.84,63.16 L 40.6,63.16 40.6,66.92 38.72,66.92 38.72,66.92 C 37.68,66.92 36.84,66.08 36.84,65.04 L 36.84,63.16 Z M 40.6,63.16 L 44.36,63.16 44.36,66.92 40.6,66.92 40.6,63.16 Z M 44.36,63.16 L 48.12,63.16 48.12,66.92 44.36,66.92 44.36,63.16 Z M 48.12,63.16 L 51.88,63.16 51.88,66.92 48.12,66.92 48.12,63.16 Z M 51.88,63.16 L 55.64,63.16 55.64,66.92 51.88,66.92 51.88,63.16 Z M 55.64,63.16 L 57.52,63.16 57.52,63.16 C 58.56,63.16 59.4,64 59.4,65.04 L 59.4,66.92 55.64,66.92 55.64,63.16 Z M 63.16,65.04 L 63.16,63.16 61.28,63.16 61.28,63.16 C 62.32,63.16 63.16,64 63.16,65.04 Z M 63.16,63.16 L 66.92,63.16 66.92,66.92 63.16,66.92 63.16,63.16 Z M 66.92,63.16 L 70.68,63.16 70.68,66.92 66.92,66.92 66.92,63.16 Z M 70.68,63.16 L 74.44,63.16 74.44,66.92 70.68,66.92 70.68,63.16 Z M 74.44,63.16 L 78.2,63.16 78.2,66.92 74.44,66.92 74.44,63.16 Z M 78.2,63.16 L 80.08,63.16 80.08,63.16 C 81.12,63.16 81.96,64 81.96,65.04 L 81.96,66.92 78.2,66.92 78.2,63.16 Z M 83.84,66.92 L 85.72,66.92 85.72,65.04 85.72,65.04 C 85.72,66.08 84.88,66.92 83.84,66.92 Z M 81.96,65.04 L 81.96,66.92 83.84,66.92 83.84,66.92 C 82.8,66.92 81.96,66.08 81.96,65.04 Z M 85.72,63.16 L 89.48,63.16 89.48,66.92 85.72,66.92 85.72,63.16 Z M 91.36,63.16 L 89.48,63.16 89.48,65.04 89.48,65.04 C 89.48,64 90.32,63.16 91.36,63.16 Z M 93.24,65.04 L 93.24,63.16 91.36,63.16 91.36,63.16 C 92.4,63.16 93.24,64 93.24,65.04 Z M 89.48,65.04 L 89.48,66.92 91.36,66.92 91.36,66.92 C 90.32,66.92 89.48,66.08 89.48,65.04 Z M 93.24,63.16 L 97,63.16 97,65.04 97,65.04 C 97,66.08 96.16,66.92 95.12,66.92 L 95.12,66.92 95.12,66.92 C 94.08,66.92 93.24,66.08 93.24,65.04 L 93.24,63.16 Z M 34.96,66.92 L 34.96,66.92 34.96,66.92 C 36,66.92 36.84,67.76 36.84,68.8 L 36.84,70.68 33.08,70.68 33.08,68.8 33.08,68.8 C 33.08,67.76 33.92,66.92 34.96,66.92 Z M 44.36,68.8 L 44.36,66.92 42.48,66.92 42.48,66.92 C 43.52,66.92 44.36,67.76 44.36,68.8 Z M 44.36,66.92 L 48.12,66.92 48.12,68.8 48.12,68.8 C 48.12,69.84 47.28,70.68 46.24,70.68 L 46.24,70.68 46.24,70.68 C 45.2,70.68 44.36,69.84 44.36,68.8 L 44.36,66.92 Z M 50,66.92 L 48.12,66.92 48.12,68.8 48.12,68.8 C 48.12,67.76 48.96,66.92 50,66.92 Z M 55.64,68.8 L 55.64,66.92 53.76,66.92 53.76,66.92 C 54.8,66.92 55.64,67.76 55.64,68.8 Z M 55.64,66.92 L 59.4,66.92 59.4,70.68 55.64,70.68 55.64,66.92 Z M 61.28,70.68 L 63.16,70.68 63.16,68.8 63.16,68.8 C 63.16,69.84 62.32,70.68 61.28,70.68 Z M 59.4,68.8 L 59.4,70.68 61.28,70.68 61.28,70.68 C 60.24,70.68 59.4,69.84 59.4,68.8 Z M 63.16,66.92 L 66.92,66.92 66.92,70.68 63.16,70.68 63.16,66.92 Z M 68.8,66.92 L 66.92,66.92 66.92,68.8 66.92,68.8 C 66.92,67.76 67.76,66.92 68.8,66.92 Z M 78.2,68.8 L 78.2,66.92 76.32,66.92 76.32,66.92 C 77.36,66.92 78.2,67.76 78.2,68.8 Z M 78.2,66.92 L 81.96,66.92 81.96,70.68 78.2,70.68 78.2,66.92 Z M 81.96,66.92 L 85.72,66.92 85.72,70.68 81.96,70.68 81.96,66.92 Z M 85.72,66.92 L 89.48,66.92 89.48,70.68 85.72,70.68 85.72,66.92 Z M 89.48,66.92 L 91.36,66.92 91.36,66.92 C 92.4,66.92 93.24,67.76 93.24,68.8 L 93.24,68.8 93.24,68.8 C 93.24,69.84 92.4,70.68 91.36,70.68 L 89.48,70.68 89.48,66.92 Z M 4.88,70.68 L 6.76,70.68 6.76,74.44 3,74.44 3,72.56 3,72.56 C 3,71.52 3.84,70.68 4.88,70.68 Z M 6.76,70.68 L 10.52,70.68 10.52,74.44 6.76,74.44 6.76,70.68 Z M 10.52,70.68 L 14.28,70.68 14.28,74.44 10.52,74.44 10.52,70.68 Z M 14.28,70.68 L 18.04,70.68 18.04,74.44 14.28,74.44 14.28,70.68 Z M 18.04,70.68 L 21.8,70.68 21.8,74.44 18.04,74.44 18.04,70.68 Z M 21.8,70.68 L 25.56,70.68 25.56,74.44 21.8,74.44 21.8,70.68 Z M 25.56,70.68 L 27.44,70.68 27.44,70.68 C 28.48,70.68 29.32,71.52 29.32,72.56 L 29.32,74.44 25.56,74.44 25.56,70.68 Z M 33.08,70.68 L 36.84,70.68 36.84,74.44 33.08,74.44 33.08,70.68 Z M 42.48,70.68 L 42.48,70.68 42.48,70.68 C 43.52,70.68 44.36,71.52 44.36,72.56 L 44.36,72.56 44.36,72.56 C 44.36,73.6 43.52,74.44 42.48,74.44 L 42.48,74.44 42.48,74.44 C 41.44,74.44 40.6,73.6 40.6,72.56 L 40.6,72.56 40.6,72.56 C 40.6,71.52 41.44,70.68 42.48,70.68 Z M 55.64,70.68 L 59.4,70.68 59.4,74.44 57.52,74.44 57.52,74.44 C 56.48,74.44 55.64,73.6 55.64,72.56 L 55.64,70.68 Z M 59.4,70.68 L 63.16,70.68 63.16,74.44 59.4,74.44 59.4,70.68 Z M 63.16,70.68 L 66.92,70.68 66.92,74.44 63.16,74.44 63.16,70.68 Z M 72.56,70.68 L 72.56,70.68 72.56,70.68 C 73.6,70.68 74.44,71.52 74.44,72.56 L 74.44,72.56 74.44,72.56 C 74.44,73.6 73.6,74.44 72.56,74.44 L 72.56,74.44 72.56,74.44 C 71.52,74.44 70.68,73.6 70.68,72.56 L 70.68,72.56 70.68,72.56 C 70.68,71.52 71.52,70.68 72.56,70.68 Z M 78.2,70.68 L 81.96,70.68 81.96,74.44 78.2,74.44 78.2,70.68 Z M 81.96,70.68 L 85.72,70.68 85.72,72.56 85.72,72.56 C 85.72,73.6 84.88,74.44 83.84,74.44 L 81.96,74.44 81.96,70.68 Z M 87.6,70.68 L 85.72,70.68 85.72,72.56 85.72,72.56 C 85.72,71.52 86.56,70.68 87.6,70.68 Z M 3,74.44 L 6.76,74.44 6.76,78.2 3,78.2 3,74.44 Z M 8.64,74.44 L 6.76,74.44 6.76,76.32 6.76,76.32 C 6.76,75.28 7.6,74.44 8.64,74.44 Z M 25.56,76.32 L 25.56,74.44 23.68,74.44 23.68,74.44 C 24.72,74.44 25.56,75.28 25.56,76.32 Z M 25.56,74.44 L 29.32,74.44 29.32,78.2 25.56,78.2 25.56,74.44 Z M 33.08,74.44 L 36.84,74.44 36.84,78.2 33.08,78.2 33.08,74.44 Z M 46.24,74.44 L 48.12,74.44 48.12,78.2 46.24,78.2 46.24,78.2 C 45.2,78.2 44.36,77.36 44.36,76.32 L 44.36,76.32 44.36,76.32 C 44.36,75.28 45.2,74.44 46.24,74.44 Z M 48.12,74.44 L 50,74.44 50,74.44 C 51.04,74.44 51.88,75.28 51.88,76.32 L 51.88,76.32 51.88,76.32 C 51.88,77.36 51.04,78.2 50,78.2 L 48.12,78.2 48.12,74.44 Z M 63.16,76.32 L 63.16,74.44 61.28,74.44 61.28,74.44 C 62.32,74.44 63.16,75.28 63.16,76.32 Z M 61.28,78.2 L 63.16,78.2 63.16,76.32 63.16,76.32 C 63.16,77.36 62.32,78.2 61.28,78.2 Z M 63.16,74.44 L 66.92,74.44 66.92,78.2 63.16,78.2 63.16,74.44 Z M 66.92,76.32 L 66.92,78.2 68.8,78.2 68.8,78.2 C 67.76,78.2 66.92,77.36 66.92,76.32 Z M 76.32,78.2 L 78.2,78.2 78.2,76.32 78.2,76.32 C 78.2,77.36 77.36,78.2 76.32,78.2 Z M 78.2,74.44 L 81.96,74.44 81.96,78.2 78.2,78.2 78.2,74.44 Z M 83.84,74.44 L 81.96,74.44 81.96,76.32 81.96,76.32 C 81.96,75.28 82.8,74.44 83.84,74.44 Z M 87.6,74.44 L 89.48,74.44 89.48,78.2 85.72,78.2 85.72,76.32 85.72,76.32 C 85.72,75.28 86.56,74.44 87.6,74.44 Z M 89.48,74.44 L 91.36,74.44 91.36,74.44 C 92.4,74.44 93.24,75.28 93.24,76.32 L 93.24,78.2 89.48,78.2 89.48,74.44 Z M 3,78.2 L 6.76,78.2 6.76,81.96 3,81.96 3,78.2 Z M 12.4,78.2 L 14.28,78.2 14.28,81.96 10.52,81.96 10.52,80.08 10.52,80.08 C 10.52,79.04 11.36,78.2 12.4,78.2 Z M 14.28,78.2 L 18.04,78.2 18.04,81.96 14.28,81.96 14.28,78.2 Z M 18.04,78.2 L 19.92,78.2 19.92,78.2 C 20.96,78.2 21.8,79.04 21.8,80.08 L 21.8,81.96 18.04,81.96 18.04,78.2 Z M 25.56,78.2 L 29.32,78.2 29.32,81.96 25.56,81.96 25.56,78.2 Z M 33.08,78.2 L 36.84,78.2 36.84,80.08 36.84,80.08 C 36.84,81.12 36,81.96 34.96,81.96 L 34.96,81.96 34.96,81.96 C 33.92,81.96 33.08,81.12 33.08,80.08 L 33.08,78.2 Z M 42.48,78.2 L 42.48,78.2 42.48,78.2 C 43.52,78.2 44.36,79.04 44.36,80.08 L 44.36,80.08 44.36,80.08 C 44.36,81.12 43.52,81.96 42.48,81.96 L 42.48,81.96 42.48,81.96 C 41.44,81.96 40.6,81.12 40.6,80.08 L 40.6,80.08 40.6,80.08 C 40.6,79.04 41.44,78.2 42.48,78.2 Z M 57.52,78.2 L 59.4,78.2 59.4,81.96 55.64,81.96 55.64,80.08 55.64,80.08 C 55.64,79.04 56.48,78.2 57.52,78.2 Z M 59.4,78.2 L 63.16,78.2 63.16,81.96 59.4,81.96 59.4,78.2 Z M 63.16,78.2 L 66.92,78.2 66.92,81.96 63.16,81.96 63.16,78.2 Z M 66.92,78.2 L 70.68,78.2 70.68,81.96 66.92,81.96 66.92,78.2 Z M 70.68,78.2 L 74.44,78.2 74.44,81.96 70.68,81.96 70.68,78.2 Z M 74.44,78.2 L 78.2,78.2 78.2,81.96 74.44,81.96 74.44,78.2 Z M 78.2,78.2 L 81.96,78.2 81.96,80.08 81.96,80.08 C 81.96,81.12 81.12,81.96 80.08,81.96 L 78.2,81.96 78.2,78.2 Z M 83.84,81.96 L 85.72,81.96 85.72,80.08 85.72,80.08 C 85.72,81.12 84.88,81.96 83.84,81.96 Z M 85.72,78.2 L 89.48,78.2 89.48,81.96 85.72,81.96 85.72,78.2 Z M 89.48,78.2 L 93.24,78.2 93.24,80.08 93.24,80.08 C 93.24,81.12 92.4,81.96 91.36,81.96 L 89.48,81.96 89.48,78.2 Z M 3,81.96 L 6.76,81.96 6.76,85.72 3,85.72 3,81.96 Z M 10.52,81.96 L 14.28,81.96 14.28,85.72 10.52,85.72 10.52,81.96 Z M 14.28,81.96 L 18.04,81.96 18.04,85.72 14.28,85.72 14.28,81.96 Z M 18.04,81.96 L 21.8,81.96 21.8,85.72 18.04,85.72 18.04,81.96 Z M 25.56,81.96 L 29.32,81.96 29.32,85.72 25.56,85.72 25.56,81.96 Z M 46.24,85.72 L 48.12,85.72 48.12,83.84 48.12,83.84 C 48.12,84.88 47.28,85.72 46.24,85.72 Z M 50,81.96 L 50,81.96 50,81.96 C 51.04,81.96 51.88,82.8 51.88,83.84 L 51.88,85.72 48.12,85.72 48.12,83.84 48.12,83.84 C 48.12,82.8 48.96,81.96 50,81.96 Z M 53.76,85.72 L 55.64,85.72 55.64,83.84 55.64,83.84 C 55.64,84.88 54.8,85.72 53.76,85.72 Z M 51.88,83.84 L 51.88,85.72 53.76,85.72 53.76,85.72 C 52.72,85.72 51.88,84.88 51.88,83.84 Z M 55.64,81.96 L 59.4,81.96 59.4,85.72 55.64,85.72 55.64,81.96 Z M 61.28,81.96 L 59.4,81.96 59.4,83.84 59.4,83.84 C 59.4,82.8 60.24,81.96 61.28,81.96 Z M 63.16,83.84 L 63.16,81.96 61.28,81.96 61.28,81.96 C 62.32,81.96 63.16,82.8 63.16,83.84 Z M 63.16,81.96 L 66.92,81.96 66.92,85.72 65.04,85.72 65.04,85.72 C 64,85.72 63.16,84.88 63.16,83.84 L 63.16,81.96 Z M 66.92,81.96 L 70.68,81.96 70.68,85.72 66.92,85.72 66.92,81.96 Z M 70.68,81.96 L 74.44,81.96 74.44,85.72 70.68,85.72 70.68,81.96 Z M 74.44,81.96 L 78.2,81.96 78.2,85.72 74.44,85.72 74.44,81.96 Z M 80.08,81.96 L 78.2,81.96 78.2,83.84 78.2,83.84 C 78.2,82.8 79.04,81.96 80.08,81.96 Z M 83.84,81.96 L 85.72,81.96 85.72,85.72 83.84,85.72 83.84,85.72 C 82.8,85.72 81.96,84.88 81.96,83.84 L 81.96,83.84 81.96,83.84 C 81.96,82.8 82.8,81.96 83.84,81.96 Z M 85.72,81.96 L 89.48,81.96 89.48,83.84 89.48,83.84 C 89.48,84.88 88.64,85.72 87.6,85.72 L 85.72,85.72 85.72,81.96 Z M 91.36,81.96 L 89.48,81.96 89.48,83.84 89.48,83.84 C 89.48,82.8 90.32,81.96 91.36,81.96 Z M 95.12,81.96 L 95.12,81.96 95.12,81.96 C 96.16,81.96 97,82.8 97,83.84 L 97,83.84 97,83.84 C 97,84.88 96.16,85.72 95.12,85.72 L 95.12,85.72 95.12,85.72 C 94.08,85.72 93.24,84.88 93.24,83.84 L 93.24,83.84 93.24,83.84 C 93.24,82.8 94.08,81.96 95.12,81.96 Z M 3,85.72 L 6.76,85.72 6.76,89.48 3,89.48 3,85.72 Z M 10.52,85.72 L 14.28,85.72 14.28,89.48 12.4,89.48 12.4,89.48 C 11.36,89.48 10.52,88.64 10.52,87.6 L 10.52,85.72 Z M 14.28,85.72 L 18.04,85.72 18.04,89.48 14.28,89.48 14.28,85.72 Z M 18.04,85.72 L 21.8,85.72 21.8,87.6 21.8,87.6 C 21.8,88.64 20.96,89.48 19.92,89.48 L 18.04,89.48 18.04,85.72 Z M 25.56,85.72 L 29.32,85.72 29.32,89.48 25.56,89.48 25.56,85.72 Z M 38.72,85.72 L 40.6,85.72 40.6,89.48 36.84,89.48 36.84,87.6 36.84,87.6 C 36.84,86.56 37.68,85.72 38.72,85.72 Z M 40.6,85.72 L 44.36,85.72 44.36,89.48 40.6,89.48 40.6,85.72 Z M 44.36,85.72 L 48.12,85.72 48.12,89.48 44.36,89.48 44.36,85.72 Z M 48.12,85.72 L 51.88,85.72 51.88,89.48 48.12,89.48 48.12,85.72 Z M 51.88,85.72 L 55.64,85.72 55.64,89.48 51.88,89.48 51.88,85.72 Z M 55.64,85.72 L 59.4,85.72 59.4,89.48 55.64,89.48 55.64,85.72 Z M 59.4,87.6 L 59.4,89.48 61.28,89.48 61.28,89.48 C 60.24,89.48 59.4,88.64 59.4,87.6 Z M 70.68,87.6 L 70.68,85.72 68.8,85.72 68.8,85.72 C 69.84,85.72 70.68,86.56 70.68,87.6 Z M 70.68,85.72 L 74.44,85.72 74.44,89.48 72.56,89.48 72.56,89.48 C 71.52,89.48 70.68,88.64 70.68,87.6 L 70.68,85.72 Z M 74.44,85.72 L 78.2,85.72 78.2,87.6 78.2,87.6 C 78.2,88.64 77.36,89.48 76.32,89.48 L 74.44,89.48 74.44,85.72 Z M 87.6,89.48 L 89.48,89.48 89.48,87.6 89.48,87.6 C 89.48,88.64 88.64,89.48 87.6,89.48 Z M 91.36,85.72 L 91.36,85.72 91.36,85.72 C 92.4,85.72 93.24,86.56 93.24,87.6 L 93.24,89.48 89.48,89.48 89.48,87.6 89.48,87.6 C 89.48,86.56 90.32,85.72 91.36,85.72 Z M 3,89.48 L 6.76,89.48 6.76,93.24 3,93.24 3,89.48 Z M 6.76,91.36 L 6.76,93.24 8.64,93.24 8.64,93.24 C 7.6,93.24 6.76,92.4 6.76,91.36 Z M 23.68,93.24 L 25.56,93.24 25.56,91.36 25.56,91.36 C 25.56,92.4 24.72,93.24 23.68,93.24 Z M 25.56,89.48 L 29.32,89.48 29.32,93.24 25.56,93.24 25.56,89.48 Z M 36.84,89.48 L 40.6,89.48 40.6,93.24 38.72,93.24 38.72,93.24 C 37.68,93.24 36.84,92.4 36.84,91.36 L 36.84,89.48 Z M 40.6,89.48 L 44.36,89.48 44.36,93.24 40.6,93.24 40.6,89.48 Z M 44.36,89.48 L 48.12,89.48 48.12,93.24 44.36,93.24 44.36,89.48 Z M 48.12,89.48 L 51.88,89.48 51.88,93.24 48.12,93.24 48.12,89.48 Z M 53.76,89.48 L 51.88,89.48 51.88,91.36 51.88,91.36 C 51.88,90.32 52.72,89.48 53.76,89.48 Z M 55.64,91.36 L 55.64,89.48 53.76,89.48 53.76,89.48 C 54.8,89.48 55.64,90.32 55.64,91.36 Z M 55.64,89.48 L 59.4,89.48 59.4,93.24 57.52,93.24 57.52,93.24 C 56.48,93.24 55.64,92.4 55.64,91.36 L 55.64,89.48 Z M 59.4,89.48 L 63.16,89.48 63.16,93.24 59.4,93.24 59.4,89.48 Z M 63.16,89.48 L 66.92,89.48 66.92,93.24 63.16,93.24 63.16,89.48 Z M 66.92,89.48 L 68.8,89.48 68.8,89.48 C 69.84,89.48 70.68,90.32 70.68,91.36 L 70.68,91.36 70.68,91.36 C 70.68,92.4 69.84,93.24 68.8,93.24 L 66.92,93.24 66.92,89.48 Z M 80.08,89.48 L 81.96,89.48 81.96,93.24 80.08,93.24 80.08,93.24 C 79.04,93.24 78.2,92.4 78.2,91.36 L 78.2,91.36 78.2,91.36 C 78.2,90.32 79.04,89.48 80.08,89.48 Z M 81.96,89.48 L 85.72,89.48 85.72,93.24 81.96,93.24 81.96,89.48 Z M 85.72,89.48 L 89.48,89.48 89.48,93.24 85.72,93.24 85.72,89.48 Z M 89.48,89.48 L 93.24,89.48 93.24,93.24 89.48,93.24 89.48,89.48 Z M 93.24,91.36 L 93.24,93.24 95.12,93.24 95.12,93.24 C 94.08,93.24 93.24,92.4 93.24,91.36 Z M 3,93.24 L 6.76,93.24 6.76,97 4.88,97 4.88,97 C 3.84,97 3,96.16 3,95.12 L 3,93.24 Z M 6.76,93.24 L 10.52,93.24 10.52,97 6.76,97 6.76,93.24 Z M 10.52,93.24 L 14.28,93.24 14.28,97 10.52,97 10.52,93.24 Z M 14.28,93.24 L 18.04,93.24 18.04,97 14.28,97 14.28,93.24 Z M 18.04,93.24 L 21.8,93.24 21.8,97 18.04,97 18.04,93.24 Z M 21.8,93.24 L 25.56,93.24 25.56,97 21.8,97 21.8,93.24 Z M 25.56,93.24 L 29.32,93.24 29.32,95.12 29.32,95.12 C 29.32,96.16 28.48,97 27.44,97 L 25.56,97 25.56,93.24 Z M 48.12,95.12 L 48.12,93.24 46.24,93.24 46.24,93.24 C 47.28,93.24 48.12,94.08 48.12,95.12 Z M 48.12,93.24 L 51.88,93.24 51.88,95.12 51.88,95.12 C 51.88,96.16 51.04,97 50,97 L 50,97 50,97 C 48.96,97 48.12,96.16 48.12,95.12 L 48.12,93.24 Z M 85.72,95.12 L 85.72,93.24 83.84,93.24 83.84,93.24 C 84.88,93.24 85.72,94.08 85.72,95.12 Z M 85.72,93.24 L 89.48,93.24 89.48,97 87.6,97 87.6,97 C 86.56,97 85.72,96.16 85.72,95.12 L 85.72,93.24 Z M 89.48,93.24 L 93.24,93.24 93.24,97 89.48,97 89.48,93.24 Z M 93.24,93.24 L 95.12,93.24 95.12,93.24 C 96.16,93.24 97,94.08 97,95.12 L 97,95.12 97,95.12 C 97,96.16 96.16,97 95.12,97 L 93.24,97 93.24,93.24 Z M 93.24,93.24" />
    </g>
    <g id="identity-group2" transform="translate(35, 35) scale(1.88, 1.88)" >
        <rect id="identity-rectangle2" stroke="rgb(255, 249, 229)" stroke-width="2" fill="rgb(255, 128, 0)" x="1" y="1" width="14" height="14" rx="7" />
        <g id="identity-group3">
            <path id="identity-bezier2" stroke="rgb(255, 249, 229)" stroke-width="1.5" stroke-linecap="round" stroke-linejoin="bevel" stroke-miterlimit="10" fill="none" d="M 8,5 L 8,11" />
            <path id="identity-bezier3" stroke="rgb(255, 249, 229)" stroke-width="1.5" stroke-linecap="round" stroke-linejoin="bevel" stroke-miterlimit="10" fill="none" d="M 5,8 L 11,8" />
        </g>
    </g>
</svg>
